<svg id="_4_copy" xmlns="http://www.w3.org/2000/svg" viewBox="0 0 416.6 170"><style>.st0{fill:url(#vertical_1_)}.st1{fill:url(#horizontal_1_)}.st2{fill:url(#anchor_1_)}.st3{fill:url(#SVGID_1_)}.st4{fill:url(#vertical-2_1_)}.st5{fill:url(#horizontal-2_1_)}.st6{fill:url(#anchor-2_1_)}</style><title>404-illustration</title><linearGradient id="vertical_1_" gradientUnits="userSpaceOnUse" x1="380.41" y1=".348" x2="380.41" y2="169.652" gradientTransform="matrix(1 0 0 -1 0 170)"><stop offset="0" stop-color="#4c4cd9"/><stop offset="1" stop-color="#0098d6"/></linearGradient><path id="vertical" class="st0" d="M380.4.3c6.9 0 12.5 5.6 12.5 12.5V157c0 6.9-5.6 12.5-12.5 12.5s-12.5-5.6-12.5-12.5V12.9C367.9 6 373.5.3 380.4.3z"/><linearGradient id="horizontal_1_" gradientUnits="userSpaceOnUse" x1="258.156" y1="-81.057" x2="258.156" y2="51.32" gradientTransform="matrix(0 1 1 0 365.32 -138.32)"><stop offset="0" stop-color="#155fff"/><stop offset=".02" stop-color="#4c4cd9"/><stop offset="1" stop-color="#0098d6"/></linearGradient><path id="horizontal" class="st1" d="M416.6 119.8c0 6.9-5.6 12.5-12.5 12.5H296.8c-6.9 0-12.5-5.6-12.5-12.5s5.6-12.5 12.5-12.5h107.3c6.9 0 12.5 5.6 12.5 12.5z"/><linearGradient id="anchor_1_" gradientUnits="userSpaceOnUse" x1="255.143" y1="-4.051" x2="255.143" y2="165.252" gradientTransform="matrix(.788 .6157 .5849 -.7486 90.583 -30.411)"><stop offset="0" stop-color="#4c4cd9"/><stop offset="1" stop-color="#0098d6"/></linearGradient><path id="anchor" class="st2" d="M388.1 3.2c5.5 4.3 6.4 12.1 2.2 17.6l-83.4 106.8c-4.3 5.5-12.1 6.4-17.6 2.2-5.5-4.3-6.4-12.1-2.2-17.6L370.5 5.3c4.3-5.4 12.2-6.4 17.6-2.1z"/><linearGradient id="SVGID_1_" gradientUnits="userSpaceOnUse" x1="207.32" y1="-2" x2="207.32" y2="168" gradientTransform="matrix(1 0 0 -1 1 168)"><stop offset="0" stop-color="#4c4cd9"/><stop offset="1" stop-color="#0098d6"/></linearGradient><path class="st3" d="M208.3 0c-31.5.1-57 25.6-57.1 57.1v55.7c.1 31.5 25.6 57 57.1 57.1 31.5-.1 57-25.6 57.1-57.1V57.1c0-31.5-25.6-57-57.1-57.1zm31.4 116.4c0 17.3-14.1 31.3-31.4 31.4-17.3 0-31.3-14.1-31.4-31.4V53.6c0-17.3 14.1-31.3 31.4-31.4 17.3 0 31.3 14.1 31.4 31.4v62.8z"/><linearGradient id="vertical-2_1_" gradientUnits="userSpaceOnUse" x1="96.147" y1=".348" x2="96.147" y2="169.652" gradientTransform="matrix(1 0 0 -1 0 170)"><stop offset="0" stop-color="#4c4cd9"/><stop offset="1" stop-color="#0098d6"/></linearGradient><path id="vertical-2" class="st4" d="M96.1.3c6.9 0 12.5 5.6 12.5 12.5V157c0 6.9-5.6 12.5-12.5 12.5s-12.5-5.6-12.5-12.5V12.9C83.6 6 89.2.3 96.1.3z"/><linearGradient id="horizontal-2_1_" gradientUnits="userSpaceOnUse" x1="258.156" y1="-365.32" x2="258.156" y2="-232.943" gradientTransform="matrix(0 1 1 0 365.32 -138.32)"><stop offset="0" stop-color="#4c4cd9"/><stop offset="1" stop-color="#0098d6"/></linearGradient><path id="horizontal-2" class="st5" d="M132.4 119.8c0 6.9-5.6 12.5-12.5 12.5H12.5c-6.9 0-12.5-5.6-12.5-12.5s5.6-12.5 12.5-12.5h107.3c7 0 12.6 5.6 12.6 12.5z"/><linearGradient id="anchor-2_1_" gradientUnits="userSpaceOnUse" x1="31.139" y1="-188.6" x2="31.139" y2="-19.297" gradientTransform="matrix(.788 .6157 .5849 -.7486 90.586 -30.41)"><stop offset="0" stop-color="#4c4cd9"/><stop offset="1" stop-color="#0098d6"/></linearGradient><path id="anchor-2" class="st6" d="M103.9 3.2c5.5 4.3 6.4 12.1 2.2 17.6L22.6 127.5C18.3 133 10.5 134 5 129.7c-5.5-4.3-6.4-12.1-2.2-17.6L86.3 5.3c4.2-5.4 12.1-6.4 17.6-2.1z"/></svg>