<svg id="Capa_1" data-name="Capa 1" xmlns="http://www.w3.org/2000/svg" viewBox="0 0 32 32"><defs><style>.cls-1{fill:#ffcc4d}.cls-2{fill:#664500}</style></defs><title>emoji6</title><path class="cls-1" d="M32 16A16 16 0 1 1 16 0a16 16 0 0 1 16 16"/><path class="cls-2" d="M12.44 14.67c0 1.72-1 3.11-2.22 3.11S8 16.39 8 14.67s1-3.11 2.22-3.11 2.22 1.39 2.22 3.11m12.86 1.15c-.05-.12-1.33-2.93-4-2.93s-3.91 2.81-4 2.93a.44.44 0 0 0 .13.53.45.45 0 0 0 .54 0 5.94 5.94 0 0 1 3.29-.8 6 6 0 0 1 3.29.8.44.44 0 0 0 .26.09.44.44 0 0 0 .41-.62M5.33 11.07a.89.89 0 0 1-.71-1.42 9.26 9.26 0 0 1 6.93-3.91.89.89 0 0 1 0 1.78A7.5 7.5 0 0 0 6 10.72a.89.89 0 0 1-.71.36M25.78 13a.89.89 0 0 1-.71-.36c-2.3-3.07-6.19-2.34-6.23-2.33a.89.89 0 1 1-.35-1.74c.2 0 5-1 8 3a.89.89 0 0 1-.71 1.43m-5.11 8a.46.46 0 0 0-.53.05s-.9.77-4.14.77-4.13-.82-4.13-.82a.44.44 0 0 0-.75.42s1 3.89 4.88 3.89 4.87-3.85 4.88-3.89a.44.44 0 0 0-.21-.42"/></svg>