<svg id="Capa_1" data-name="Capa 1" xmlns="http://www.w3.org/2000/svg" viewBox="0 0 32 32"><defs><style>.cls-1{fill:#ffcc4d}.cls-2{fill:#664500}</style></defs><title>emoji1</title><path class="cls-1" d="M32 16A16 16 0 1 1 16 0a16 16 0 0 1 16 16"/><path class="cls-2" d="M22.65 26.56c0-.16-1-3.89-6.65-3.89s-6.61 3.73-6.65 3.89a.44.44 0 0 0 .21.49.45.45 0 0 0 .53-.05s1.74-1.65 5.91-1.65S21.89 27 21.91 27a.44.44 0 0 0 .74-.42M14 15.37c-2.89-2.89-7.54-2.93-7.74-2.93a.89.89 0 0 0 0 1.78 12.38 12.38 0 0 1 3.54.66 3.63 3.63 0 0 0-.87 2.46c0 1.72 1 3.11 2.22 3.11s2.22-1.39 2.22-3.11a4.15 4.15 0 0 0 0-.45.89.89 0 0 0 .63-1.52m11.78-2.93c-.2 0-4.85 0-7.74 2.93a.89.89 0 0 0 .63 1.52v.45c0 1.72 1 3.11 2.22 3.11s2.22-1.39 2.22-3.11a3.63 3.63 0 0 0-.87-2.46 12.38 12.38 0 0 1 3.54-.66.89.89 0 0 0 0-1.78"/></svg>