<svg id="Capa_1" data-name="Capa 1" xmlns="http://www.w3.org/2000/svg" viewBox="0 0 16 16"><defs><style>.cls-1{fill:#2f3133;}</style></defs><title>calendar</title><path class="cls-1" d="M241.86,244.9a0.37,0.37,0,0,0-.37-0.36h-1.3a0.37,0.37,0,0,0-.37.36v1.27a0.37,0.37,0,0,0,.37.36h1.3a0.37,0.37,0,0,0,.37-0.36V244.9h0Z" transform="translate(-236.08 -236.08)"/><path class="cls-1" d="M245.1,244.9a0.37,0.37,0,0,0-.37-0.36h-1.3a0.37,0.37,0,0,0-.37.36v1.27a0.37,0.37,0,0,0,.37.36h1.3a0.37,0.37,0,0,0,.37-0.36V244.9Z" transform="translate(-236.08 -236.08)"/><path class="cls-1" d="M248.33,244.9a0.37,0.37,0,0,0-.37-0.36h-1.3a0.37,0.37,0,0,0-.37.36v1.27a0.37,0.37,0,0,0,.37.36H248a0.37,0.37,0,0,0,.37-0.36V244.9Z" transform="translate(-236.08 -236.08)"/><path class="cls-1" d="M241.86,248.07a0.37,0.37,0,0,0-.37-0.36h-1.3a0.37,0.37,0,0,0-.37.36v1.27a0.37,0.37,0,0,0,.37.36h1.3a0.37,0.37,0,0,0,.37-0.36v-1.27h0Z" transform="translate(-236.08 -236.08)"/><path class="cls-1" d="M245.1,248.07a0.37,0.37,0,0,0-.37-0.36h-1.3a0.37,0.37,0,0,0-.37.36v1.27a0.37,0.37,0,0,0,.37.36h1.3a0.37,0.37,0,0,0,.37-0.36v-1.27Z" transform="translate(-236.08 -236.08)"/><path class="cls-1" d="M248.33,248.07a0.37,0.37,0,0,0-.37-0.36h-1.3a0.37,0.37,0,0,0-.37.36v1.27a0.37,0.37,0,0,0,.37.36H248a0.37,0.37,0,0,0,.37-0.36v-1.27h0Z" transform="translate(-236.08 -236.08)"/><path class="cls-1" d="M250.65,237.86v1.94a1.6,1.6,0,0,1-1.62,1.58h-1a1.61,1.61,0,0,1-1.63-1.58v-1.94h-4.61v1.94a1.61,1.61,0,0,1-1.63,1.58h-1a1.6,1.6,0,0,1-1.62-1.58v-1.94a1.46,1.46,0,0,0-1.42,1.43v11.34a1.46,1.46,0,0,0,1.47,1.44h13.07a1.46,1.46,0,0,0,1.47-1.44V239.29A1.46,1.46,0,0,0,250.65,237.86Zm-0.47,12.07a0.63,0.63,0,0,1-.63.62h-11a0.63,0.63,0,0,1-.63-0.62v-5.86a0.63,0.63,0,0,1,.63-0.62h11a0.63,0.63,0,0,1,.63.62v5.86h0Z" transform="translate(-236.08 -236.08)"/><path class="cls-1" d="M239.12,240.34h1a0.55,0.55,0,0,0,.56-0.54v-3.17a0.55,0.55,0,0,0-.56-0.54h-1a0.55,0.55,0,0,0-.56.54v3.17A0.55,0.55,0,0,0,239.12,240.34Z" transform="translate(-236.08 -236.08)"/><path class="cls-1" d="M248,240.34h1a0.55,0.55,0,0,0,.56-0.54v-3.17a0.55,0.55,0,0,0-.56-0.54h-1a0.55,0.55,0,0,0-.56.54v3.17A0.55,0.55,0,0,0,248,240.34Z" transform="translate(-236.08 -236.08)"/></svg>