<svg id="Capa_1" data-name="Capa 1" xmlns="http://www.w3.org/2000/svg" viewBox="0 0 16 16"><defs><style>.cls-1{fill:#2f3133;}</style></defs><title>clock copy</title><path class="cls-1" d="M109.6,101.6a8,8,0,1,0,8,8A8,8,0,0,0,109.6,101.6Zm6.57,8A6.57,6.57,0,1,1,109.6,103,6.59,6.59,0,0,1,116.17,109.6Z" transform="translate(-101.6 -101.6)"/><path class="cls-1" d="M113.63,109.31h-3.54v-3.88a0.71,0.71,0,0,0-1.43,0V110a0.72,0.72,0,0,0,.71.71h4.25A0.71,0.71,0,0,0,113.63,109.31Z" transform="translate(-101.6 -101.6)"/></svg>