<?xml version="1.0" standalone="no"?>
<!DOCTYPE svg PUBLIC "-//W3C//DTD SVG 20010904//EN"
 "http://www.w3.org/TR/2001/REC-SVG-20010904/DTD/svg10.dtd">
<svg version="1.0" xmlns="http://www.w3.org/2000/svg"
 width="1248.000000pt" height="1248.000000pt" viewBox="0 0 1248.000000 1248.000000"
 preserveAspectRatio="xMidYMid meet">
<metadata>
Created by potrace 1.11, written by Peter Selinger 2001-2013
</metadata>
<g transform="translate(0.000000,1248.000000) scale(0.100000,-0.100000)"
fill="#000000" stroke="none">
<path d="M4627 10224 c-3 -4 -32 -8 -64 -10 -68 -4 -128 -10 -198 -20 -27 -4
-61 -8 -75 -9 -14 -2 -25 -4 -25 -5 0 -1 -16 -3 -35 -6 -29 -4 -115 -19 -217
-40 -44 -9 -219 -53 -273 -69 -30 -9 -64 -18 -74 -20 -28 -7 -209 -67 -221
-74 -5 -3 -16 -6 -22 -7 -24 -4 -249 -97 -361 -150 -62 -29 -116 -54 -120 -54
-4 -1 -11 -5 -17 -10 -5 -4 -41 -25 -80 -46 -119 -64 -138 -75 -215 -127 -75
-50 -142 -101 -214 -160 -54 -45 -276 -264 -276 -273 0 -4 -8 -14 -18 -23 -10
-9 -33 -36 -52 -61 -19 -25 -37 -47 -40 -50 -4 -3 -26 -34 -50 -70 -24 -36
-47 -67 -50 -70 -4 -3 -15 -21 -25 -40 -10 -19 -21 -37 -24 -40 -3 -3 -15 -23
-26 -45 -11 -22 -23 -42 -26 -45 -7 -6 -119 -236 -119 -245 0 -3 -7 -22 -17
-43 -9 -20 -17 -39 -17 -42 -1 -3 -16 -48 -33 -100 -27 -80 -46 -144 -58 -195
-1 -5 -4 -17 -7 -25 -9 -24 -77 -273 -83 -303 -2 -9 -7 -22 -10 -27 -3 -5 -8
-18 -10 -29 -2 -10 -25 -97 -50 -192 -26 -96 -51 -187 -55 -204 -5 -16 -16
-57 -25 -90 -9 -33 -18 -69 -21 -79 -2 -10 -8 -33 -14 -51 -6 -18 -12 -41 -14
-51 -2 -10 -11 -44 -20 -75 -9 -31 -19 -66 -21 -78 -7 -32 -11 -45 -55 -205
-23 -82 -42 -157 -43 -168 -1 -10 -4 -18 -7 -18 -4 0 -7 -6 -7 -12 -1 -12 -15
-67 -70 -268 -8 -30 -16 -62 -17 -70 -1 -9 -5 -20 -8 -26 -6 -9 -27 -89 -43
-161 -3 -12 -10 -34 -15 -48 -5 -14 -9 -29 -8 -33 1 -4 -2 -14 -5 -22 -8 -19
-58 -200 -61 -220 -1 -8 -10 -40 -19 -71 -10 -31 -20 -71 -22 -90 -2 -19 -9
-35 -15 -37 -5 -2 -8 -8 -5 -12 3 -5 -3 -37 -15 -72 -11 -35 -21 -72 -23 -83
-1 -11 -6 -26 -10 -32 -5 -7 -6 -13 -3 -13 3 0 -1 -18 -9 -40 -8 -22 -15 -44
-15 -48 0 -4 -5 -25 -11 -47 -6 -22 -13 -47 -15 -55 -7 -29 -52 -196 -73 -270
-12 -41 -24 -86 -27 -100 -2 -14 -9 -36 -14 -50 -5 -14 -11 -36 -14 -50 -2
-14 -9 -37 -15 -52 -6 -16 -9 -28 -6 -28 2 0 -2 -18 -10 -39 -7 -22 -11 -42
-8 -45 4 -3 1 -6 -6 -6 -7 0 -10 -4 -7 -9 4 -5 1 -22 -5 -38 -6 -15 -13 -36
-15 -46 -2 -9 -6 -25 -8 -35 -7 -27 -44 -164 -55 -201 -6 -19 -9 -37 -6 -39 3
-3 1 -10 -4 -16 -5 -6 -14 -36 -21 -66 -7 -30 -15 -59 -19 -65 -3 -5 -6 -14
-7 -20 -9 -45 -71 -281 -81 -305 -3 -8 -7 -22 -9 -32 -5 -21 -60 -229 -79
-293 -27 -96 -39 -140 -37 -147 1 -4 -4 -25 -12 -45 -8 -21 -28 -92 -46 -158
-17 -66 -34 -127 -37 -135 -3 -8 -7 -24 -9 -35 -1 -11 -16 -67 -32 -125 -17
-58 -33 -121 -37 -140 -4 -19 -12 -41 -17 -48 -6 -6 -8 -12 -5 -12 3 0 -1 -21
-9 -47 -8 -25 -14 -52 -14 -60 0 -11 239 -13 1418 -13 l1418 0 24 92 c13 51
24 95 23 98 -1 3 3 12 8 21 4 9 10 27 13 41 3 21 53 212 131 503 9 33 18 71
21 85 2 14 9 36 14 50 5 14 11 34 13 45 2 11 9 40 16 65 13 43 15 54 26 101 2
12 9 36 15 54 6 18 12 41 14 51 2 11 9 39 16 64 7 25 13 50 14 55 2 6 8 30 15
55 7 25 15 53 17 62 8 34 13 54 39 153 15 55 29 107 30 115 2 8 4 15 5 15 1 0
3 7 5 15 5 25 23 92 40 155 10 33 18 67 20 75 2 8 19 76 39 150 20 74 39 146
42 160 3 14 8 34 11 45 4 11 8 25 9 30 2 11 40 155 111 420 25 94 46 175 47
180 3 12 8 31 53 200 18 71 36 139 38 150 2 11 4 20 5 20 1 0 3 7 5 15 2 8 13
48 24 88 10 40 20 76 20 80 1 4 6 25 12 47 6 22 13 47 15 55 8 38 76 291 90
338 8 29 17 61 19 70 1 9 8 37 15 62 7 25 13 50 15 55 3 17 16 65 52 200 20
72 36 135 38 140 2 12 6 26 66 250 26 99 60 223 75 275 14 52 27 100 29 105 1
6 6 21 12 35 5 14 18 50 29 80 26 77 113 250 141 280 13 14 23 28 23 31 0 13
104 114 150 146 82 57 231 122 314 137 14 3 36 8 49 12 12 4 29 8 37 9 8 0 38
5 65 9 66 10 95 13 185 23 93 10 3274 10 3350 0 30 -4 71 -9 90 -12 19 -3 49
-8 65 -10 54 -7 181 -40 223 -57 108 -44 191 -89 228 -124 7 -6 25 -22 40 -35
109 -95 162 -285 130 -466 -20 -110 -97 -323 -117 -323 -5 0 -8 -4 -6 -8 5
-17 -103 -169 -165 -232 -71 -73 -98 -96 -166 -144 -56 -40 -186 -110 -251
-135 -25 -10 -55 -22 -66 -26 -11 -4 -24 -7 -28 -6 -4 0 -21 -6 -37 -14 -17
-9 -30 -13 -30 -11 0 3 -15 0 -32 -5 -18 -6 -42 -12 -53 -14 -11 -3 -32 -7
-47 -10 -51 -12 -138 -22 -243 -30 -33 -2 -464 -5 -957 -5 -494 -1 -898 -5
-898 -9 0 -3 -17 -7 -38 -8 -123 -5 -462 -101 -506 -144 -6 -5 -18 -9 -28 -9
-10 0 -18 -4 -18 -10 0 -5 -6 -10 -14 -10 -16 0 -196 -120 -261 -175 -50 -42
-146 -139 -187 -189 -12 -15 -30 -36 -38 -45 -8 -9 -26 -32 -40 -51 -13 -19
-27 -37 -30 -40 -3 -3 -14 -21 -24 -40 -11 -19 -23 -37 -26 -40 -16 -12 -163
-295 -157 -304 1 -1 -4 -10 -12 -19 -7 -10 -10 -17 -5 -17 5 0 5 -4 -1 -8 -5
-4 -16 -23 -23 -42 -26 -68 -102 -292 -105 -309 -1 -9 -6 -21 -9 -27 -4 -6
-10 -26 -13 -45 -9 -46 -13 -64 -15 -64 -1 0 -3 -7 -5 -15 -1 -8 -12 -49 -23
-90 -12 -41 -31 -111 -42 -155 -12 -44 -28 -105 -37 -135 -8 -30 -17 -66 -19
-80 l-4 -25 2022 0 c1113 0 2064 -4 2113 -9 84 -7 396 -9 475 -2 135 12 199
18 225 23 17 2 39 6 50 8 56 7 122 18 140 22 11 3 33 6 48 9 15 2 54 10 85 18
31 8 68 17 82 19 36 7 211 57 235 67 20 9 60 22 80 26 6 1 24 8 40 15 17 6 37
13 45 15 8 2 23 7 35 13 11 5 45 20 75 31 81 32 356 167 425 210 33 20 71 43
84 51 29 16 38 23 70 49 13 11 28 20 32 20 4 0 19 11 33 25 14 14 29 25 35 25
5 0 11 3 13 8 2 4 32 32 68 62 83 70 251 238 315 315 28 33 52 62 55 65 18 16
100 132 100 140 0 6 3 10 8 10 4 0 16 16 26 35 11 19 23 35 28 35 4 0 8 4 8 9
0 5 18 39 40 75 22 37 57 99 77 139 21 39 41 75 46 78 5 3 8 8 7 10 -2 5 14
47 39 102 15 35 35 88 99 267 7 20 10 31 16 56 2 12 13 52 25 90 11 38 22 80
25 94 3 14 23 90 46 170 22 80 42 154 44 165 8 38 15 64 36 140 12 42 23 85
25 96 2 10 6 23 9 27 3 5 8 22 11 38 7 36 9 44 18 69 3 11 8 31 11 45 2 14 12
52 22 85 10 33 19 65 20 70 1 6 3 12 4 15 1 3 3 12 5 20 2 8 11 44 20 80 9 36
18 72 20 80 2 8 16 56 30 105 14 50 28 101 31 115 4 21 15 63 30 115 21 74 59
223 69 270 10 50 14 69 20 98 3 12 8 40 10 62 3 22 8 65 12 95 14 111 7 397
-12 470 -3 14 -8 36 -10 50 -7 41 -42 154 -60 196 -39 89 -125 240 -144 254
-4 3 -15 16 -24 30 -23 33 -126 138 -168 172 -19 14 -45 36 -58 47 -13 11 -47
35 -75 53 -28 18 -53 35 -56 38 -10 10 -86 51 -170 92 -47 22 -96 46 -110 53
-14 7 -68 27 -120 45 -52 18 -102 35 -110 38 -24 8 -29 10 -155 42 -66 17
-132 32 -147 35 -72 13 -85 15 -108 20 -14 3 -43 7 -65 10 -22 3 -55 8 -73 11
-17 4 -47 8 -65 9 -131 13 -168 16 -210 19 -26 1 -50 6 -53 9 -9 8 -5839 9
-5847 1z"/>
</g>
</svg>
