<svg
  xmlns="http://www.w3.org/2000/svg" viewBox="0 0 97.35 20">
  <circle cx="10" cy="2.44" r="2.44"/>
  <circle cx="10" cy="17.56" r="2.44"/>
  <circle cx="10" cy="10" r="2.44"/>
  <circle cx="2.44" cy="10" r="2.44"/>
  <circle cx="17.56" cy="10" r="2.44"/>
  <circle cx="10" cy="10" r="2.44"/>
  <circle cx="5.74" cy="14.26" r="2.44" transform="translate(-8.41 8.23) rotate(-45)"/>
  <circle cx="14.26" cy="5.74" r="2.44" transform="translate(0.12 11.77) rotate(-45)"/>
  <circle cx="10" cy="10" r="2.44" transform="translate(-4.14 10) rotate(-45)"/>
  <circle cx="5.74" cy="5.74" r="2.44" transform="translate(-2.38 5.74) rotate(-45)"/>
  <circle cx="14.26" cy="14.26" r="2.44" transform="translate(-5.91 14.26) rotate(-45)"/>
  <circle cx="10" cy="10" r="2.44" transform="translate(-4.14 10) rotate(-45)"/>
  <path d="M30.21,6.82A2.86,2.86,0,0,1,32.66,8a5.6,5.6,0,0,1,.88,3.35,5.51,5.51,0,0,1-.91,3.39,3.19,3.19,0,0,1-4.93.07H27.54l-0.4,1H25.29V3.53h2.41V6.39q0,0.55-.09,1.75h0.09A2.79,2.79,0,0,1,30.21,6.82ZM29.43,8.75a1.52,1.52,0,0,0-1.3.55,3.14,3.14,0,0,0-.43,1.81v0.26a3.72,3.72,0,0,0,.42,2,1.51,1.51,0,0,0,1.34.62,1.34,1.34,0,0,0,1.18-.68,3.69,3.69,0,0,0,.44-2,3.52,3.52,0,0,0-.44-2A1.39,1.39,0,0,0,29.43,8.75Z"/>
  <path d="M43.56,11.39a4.75,4.75,0,0,1-1.14,3.37A4.13,4.13,0,0,1,39.26,16,4.42,4.42,0,0,1,37,15.42a3.71,3.71,0,0,1-1.49-1.6A5.38,5.38,0,0,1,35,11.39,4.72,4.72,0,0,1,36.13,8a4.15,4.15,0,0,1,3.18-1.2,4.46,4.46,0,0,1,2.24.55A3.7,3.7,0,0,1,43,9,5.33,5.33,0,0,1,43.56,11.39Zm-6.11,0a3.71,3.71,0,0,0,.43,2,1.54,1.54,0,0,0,1.4.67,1.52,1.52,0,0,0,1.39-.67,3.76,3.76,0,0,0,.42-2,3.65,3.65,0,0,0-.43-2,1.81,1.81,0,0,0-2.79,0A3.65,3.65,0,0,0,37.45,11.39Z"/>
  <path d="M47.36,11.31L44.52,7h2.73L49,9.8,50.7,7h2.73l-2.88,4.32,3,4.51H50.82L49,12.8l-1.86,3H44.37Z"/>
  <path d="M59.82,6.82A2.86,2.86,0,0,1,62.27,8a5.6,5.6,0,0,1,.88,3.35,5.51,5.51,0,0,1-.91,3.39,3.19,3.19,0,0,1-4.93.07H57.15l-0.4,1H54.91V3.53h2.41V6.39q0,0.55-.09,1.75h0.09A2.79,2.79,0,0,1,59.82,6.82ZM59,8.75a1.52,1.52,0,0,0-1.3.55,3.14,3.14,0,0,0-.43,1.81v0.26a3.72,3.72,0,0,0,.42,2,1.51,1.51,0,0,0,1.34.62,1.34,1.34,0,0,0,1.18-.68,3.69,3.69,0,0,0,.44-2,3.52,3.52,0,0,0-.44-2A1.39,1.39,0,0,0,59,8.75Z"/>
  <path d="M69.15,16a4.56,4.56,0,0,1-3.33-1.18,4.46,4.46,0,0,1-1.2-3.33A4.9,4.9,0,0,1,65.72,8a4,4,0,0,1,3.07-1.21,3.89,3.89,0,0,1,2.91,1.07,4,4,0,0,1,1,2.95V12h-5.7a2.32,2.32,0,0,0,.61,1.6,2.14,2.14,0,0,0,1.6.58A6.68,6.68,0,0,0,70.77,14a7.62,7.62,0,0,0,1.49-.53v1.86a5.68,5.68,0,0,1-1.35.47A8.63,8.63,0,0,1,69.15,16ZM68.81,8.54A1.53,1.53,0,0,0,67.6,9a2.25,2.25,0,0,0-.5,1.38h3.38A2,2,0,0,0,70,9,1.58,1.58,0,0,0,68.81,8.54Z"/>
  <path d="M79.64,6.82a3.88,3.88,0,0,1,.81.07L80.27,9.15a2.76,2.76,0,0,0-.71-0.08,2.55,2.55,0,0,0-1.8.59,2.14,2.14,0,0,0-.64,1.66v4.5H74.71V7h1.82l0.36,1.49H77a3.33,3.33,0,0,1,1.11-1.2A2.74,2.74,0,0,1,79.64,6.82Z"/>
  <path d="M87,6.82a3.88,3.88,0,0,1,.81.07L87.62,9.15a2.76,2.76,0,0,0-.71-0.08,2.55,2.55,0,0,0-1.8.59,2.14,2.14,0,0,0-.64,1.66v4.5H82.06V7h1.82l0.36,1.49h0.12a3.33,3.33,0,0,1,1.11-1.2A2.74,2.74,0,0,1,87,6.82Z"/>
  <path d="M88.14,7h2.64l1.67,5a7,7,0,0,1,.29,1.53h0A6.77,6.77,0,0,1,93.13,12l1.64-5h2.58L93.61,17A4.33,4.33,0,0,1,92.14,19a3.71,3.71,0,0,1-2.22.69,5.66,5.66,0,0,1-1.23-.13V17.66a4.12,4.12,0,0,0,.95.1,1.72,1.72,0,0,0,1.12-.39,2.54,2.54,0,0,0,.75-1.18l0.14-.43Z"/>
</svg>
