<svg version="1.1"
  xmlns="http://www.w3.org/2000/svg"
  xmlns:xlink="http://www.w3.org/1999/xlink" x="0px" y="0px" viewBox="0 0 24.2 26" style="enable-background:new 0 0 24.2 26;" xml:space="preserve">
  <path d="M6.9,17.1h14.3c1.6,0,2.9-1.3,3-2.9V7.7L5.4,4.9l0-3L1,0.1c-0.4-0.2-0.8,0-0.9,0.4s0,0.8,0.4,0.9l3.5,1.5v15.8	c0,1.5,1.1,2.7,2.6,2.9c-0.8,1.4-0.4,3.2,1,4s3.2,0.4,4-1c0.3-0.4,0.4-1,0.4-1.5c0-0.5-0.1-1-0.4-1.5H18c-0.3,0.4-0.4,1-0.4,1.5	c0,1.6,1.3,2.9,2.9,2.9s2.9-1.3,2.9-2.9s-1.3-2.9-2.9-2.9l0,0H6.9c-0.8,0-1.5-0.7-1.5-1.5l0,0v-2C5.8,17,6.4,17.1,6.9,17.1z	 M10.5,23.1c0,0.8-0.7,1.5-1.5,1.4c-0.8,0-1.5-0.7-1.4-1.5c0-0.8,0.7-1.4,1.5-1.4C9.8,21.6,10.5,22.3,10.5,23.1	C10.5,23.1,10.5,23.1,10.5,23.1L10.5,23.1z M22,23.1c0,0.8-0.7,1.5-1.5,1.5S19,23.9,19,23.1c0-0.8,0.7-1.5,1.5-1.5h0	C21.3,21.6,22,22.3,22,23.1L22,23.1z M21.2,15.7H6.9c-0.8,0-1.5-0.7-1.5-1.5l0,0V6.4l17.3,2.4v5.4C22.7,15,22.1,15.7,21.2,15.7	C21.2,15.7,21.2,15.7,21.2,15.7L21.2,15.7z"/>
</svg>
