<svg
  xmlns="http://www.w3.org/2000/svg"
  xmlns:xlink="http://www.w3.org/1999/xlink" x="0px" y="0px" viewBox="0 0 13 12.3" style="enable-background:new 0 0 13 12.3;" xml:space="preserve">
  <path d="M6.5,0C2.9,0,0,2.6,0,5.8C0,7,0.4,8.1,1,9c-0.1,1.4-0.5,2.5-1,3C0,12,0,12.1,0,12.2c0,0.1,0.1,0.1,0.2,0.1
	c0,0,0,0,0,0c0.1,0,2.1-0.3,3.6-1.2c0.8,0.3,1.7,0.5,2.7,0.5c3.6,0,6.5-2.6,6.5-5.8S10.1,0,6.5,0z M3.5,6.7C3,6.7,2.6,6.3,2.6,5.8
	S3,5,3.5,5s0.9,0.4,0.9,0.9S3.9,6.7,3.5,6.7z M6.5,6.7C6,6.7,5.6,6.3,5.6,5.8S6,5,6.5,5s0.9,0.4,0.9,0.9S7,6.7,6.5,6.7z M9.5,6.7
	c-0.5,0-0.9-0.4-0.9-0.9S9.1,5,9.5,5s0.9,0.4,0.9,0.9S10,6.7,9.5,6.7z"/>
</svg>
