<svg xmlns="http://www.w3.org/2000/svg" viewBox="0 0 30.4 26"><title>compare</title><path d="M30.4,15.8v-.4L25.9,6.6a.68.68,0,0,0-.2-1,.6.6,0,0,0-.4-.1H16.2V1a1,1,0,0,0-1-1h0a1,1,0,0,0-1,1V5.5H5.1a.77.77,0,0,0-.7.8c0,.2.1.3.2.5L0,15.5v.4a5.14,5.14,0,0,0,5.5,4.7,5.22,5.22,0,0,0,4.7-4.7v-.4L5.9,6.9h8.3V24.6h-7a.68.68,0,0,0-.7.7.77.77,0,0,0,.8.7h16a.7.7,0,0,0,0-1.4h-7V6.9h8.3l-4.2,8.5v.4a5.14,5.14,0,0,0,5.5,4.7,5.21,5.21,0,0,0,4.5-4.7ZM5.1,19A3.31,3.31,0,0,1,2,17H8.3A3.56,3.56,0,0,1,5.1,19Zm3.5-3.5H1.7L5.2,8.6ZM25.2,19a3.31,3.31,0,0,1-3.1-2h6.3A3.56,3.56,0,0,1,25.2,19Zm-3.3-3.6,3.4-6.9,3.5,6.9Z"/></svg>