<svg xmlns="http://www.w3.org/2000/svg" xmlns:xlink="http://www.w3.org/1999/xlink" x="0px" y="0px" viewBox="0 0 44.1 20"
	 style="enable-background:new 0 0 44.1 20;" xml:space="preserve">
<g>
	<path d="M27.7,16c-0.9,0.2-2,0.3-3,0.3c-2.6,0-4.2-1.3-4.2-3.8
		c0-2.3,1.6-3.8,3.9-3.8c0.5,0,1.1,0.1,1.4,0.2V5.7h2V16z M25.7,10.8c-0.3-0.1-0.7-0.2-1.2-0.2c-1.2,0-2,0.7-2,2
		c0,1.4,0.9,2.2,2.3,2.2c0.2,0,0.6,0,1-0.1V10.8z M44.1,16c-0.9,0.2-2,0.3-3,0.3c-2.5,0-4.2-1.3-4.2-3.8c0-2.3,1.6-3.8,3.9-3.8
		c0.5,0,1.1,0.1,1.4,0.2V5.7h2V16z M42.1,10.8c-0.3-0.1-0.7-0.2-1.2-0.2c-1.2,0-2,0.7-2,2c0,1.4,0.9,2.2,2.3,2.2
		c0.2,0,0.6,0,0.9-0.1V10.8z M30.9,10.8c0.3-0.1,0.8-0.2,1.2-0.2c1.2,0,2.1,0.7,2.1,1.9c0,1.5-0.9,2.2-2.2,2.2v1.7H32
		c2.6,0,4.1-1.4,4.1-3.9c0-2.3-1.6-3.6-4.1-3.6c-1.2,0-2.4,0.3-3.2,0.6v9.7h2L30.9,10.8z"/>
	<path d="M17,4.3L17,4.3L17,4.3L17,4.3z"/>
	<path d="M16.6,4.1l0.3,0.4l0.2-0.1L16.6,4.1z"/>
	<path d="M16.1,3.8l0.6,0.7l0.2-0.1l-0.2-0.3C16.7,4.1,16.1,3.8,16.1,3.8
		z"/>
	<path d="M15.6,3.5l1,1.1l0.2-0.1l-0.6-0.7C16.2,3.9,15.6,3.5,15.6,3.5z"
		/>
	<path d="M15.1,3.3l1.3,1.5l0.2-0.1l-0.9-1L15.1,3.3z M17.5,5.9L17.4,6
		l0.1,0.2C17.5,6.1,17.5,5.9,17.5,5.9z"/>
	<path d="M14.6,3l1.6,1.8l0.2-0.1l-1.2-1.4L14.6,3z M17.4,5.9l-0.2,0.1
		l0.3,0.4V6L17.4,5.9L17.4,5.9z"/>
	<path d="M14.1,2.7L16,5l0.2-0.1l-1.5-1.8C14.7,3.1,14.1,2.7,14.1,2.7z
		 M17.2,6L17,6.2l0.5,0.6V6.4C17.5,6.4,17.2,6,17.2,6z"/>
	<path d="M13.6,2.5l2.2,2.6L16,4.9l-1.8-2.1C14.2,2.8,13.6,2.5,13.6,2.5z
		 M17,6.1l-0.2,0.1l0.7,0.8V6.7C17.5,6.7,17,6.1,17,6.1z"/>
	<path d="M13.1,2.2l2.5,3L15.8,5l-2.2-2.5C13.7,2.5,13.1,2.2,13.1,2.2z
		 M16.9,6.2l-0.2,0.1l0.9,1V7C17.5,7,16.9,6.2,16.9,6.2z"/>
	<path d="M12.6,1.9l2.9,3.3l0.2-0.1l-2.5-2.9C13.2,2.3,12.6,1.9,12.6,1.9
		z M16.7,6.4l-0.2,0.1l1,1.2V7.3L16.7,6.4z"/>
	<path d="M12.1,1.7l3.2,3.7l0.2-0.1L12.7,2L12.1,1.7z M16.5,6.5l-0.2,0.1
		L17.5,8V7.6C17.5,7.6,16.5,6.5,16.5,6.5z"/>
	<path d="M11.6,1.4l3.5,4.1l0.2-0.1l-3.1-3.6L11.6,1.4z M16.3,6.6
		l-0.2,0.1l1.4,1.6V7.9L16.3,6.6z"/>
	<path d="M11.1,1.1l3.8,4.4l0.2-0.1l-3.4-4L11.1,1.1z M16.1,6.7l-0.2,0.1
		l1.6,1.9V8.2C17.5,8.2,16.1,6.7,16.1,6.7z"/>
	<path d="M10.6,0.9l4.1,4.8l0.2-0.1l-3.7-4.3C11.2,1.2,10.6,0.9,10.6,0.9
		z M16,6.8l-0.2,0.1L17.5,9V8.6C17.5,8.6,16,6.8,16,6.8z"/>
	<path d="M10.1,0.6l4.5,5.2l0.2-0.1l-4.1-4.7L10.1,0.6z M15.8,6.9L15.6,7
		l1.9,2.3V8.9C17.5,8.9,15.8,6.9,15.8,6.9z"/>
	<path d="M9.6,0.3l4.8,5.6l0.2-0.1l-4.4-5.1L9.6,0.3z M15.6,7l-0.2,0.1
		l2.1,2.5V9.2C17.5,9.2,15.6,7,15.6,7z"/>
	<path d="M9.1,0.1L14.2,6l0.2-0.1L9.7,0.4L9.1,0.1L9.1,0.1z M15.4,7.1
		l-0.2,0.1l2.3,2.7V9.5L15.4,7.1z"/>
	<path d="M8.8,0L8.8,0L14,6.1L14.2,6l-5-5.8L9.1,0.1C9,0,8.9,0,8.8,0z
		 M15.2,7.2L15,7.3l2.5,2.9V9.8C17.5,9.8,15.2,7.2,15.2,7.2z"/>
	<path d="M8.8,0C8.7,0,8.6,0,8.5,0l5.3,6.2L14,6.1L8.8,0
		C8.8,0,8.8,0,8.8,0z M15.1,7.3l-0.2,0.1l2.7,3.1v-0.4C17.5,10.1,15.1,7.3,15.1,7.3z"/>
	<path d="M8.6,0c0,0-0.1,0-0.1,0.1L8.3,0.1l5.3,6.2l0.2-0.1
		C13.9,6.2,8.6,0,8.6,0z M14.9,7.4l-0.2,0.1l2.8,3.3v-0.4L14.9,7.4z"/>
	<path d="M8.4,0.1L8.1,0.2l5.3,6.2l0.2-0.1C13.7,6.3,8.4,0.1,8.4,0.1z
		 M14.7,7.5l-0.2,0.1l3,3.5v-0.4C17.5,10.8,14.7,7.5,14.7,7.5z"/>
	<path d="M8.2,0.2L8,0.3l5.3,6.2l0.2-0.1C13.5,6.4,8.2,0.2,8.2,0.2z
		 M14.5,7.6l-0.2,0.1l3.2,3.7v-0.4C17.5,11.1,14.5,7.6,14.5,7.6z"/>
	<path d="M8,0.3L7.8,0.4l5.3,6.2l0.2-0.1C13.3,6.5,8,0.3,8,0.3z
		 M14.3,7.7l-0.2,0.1l3.4,4v-0.4L14.3,7.7z"/>
	<path d="M7.8,0.4L7.6,0.5l5.3,6.2l0.2-0.1C13.1,6.6,7.8,0.4,7.8,0.4z
		 M14.1,7.8l-0.2,0.1l3.6,4.2v-0.4C17.5,11.7,14.1,7.8,14.1,7.8z"/>
	<path d="M7.6,0.5L7.4,0.6l5.3,6.2l0.2-0.1C12.9,6.7,7.6,0.5,7.6,0.5z
		 M14,7.9L13.7,8l3.7,4.4V12C17.5,12,14,7.9,14,7.9z"/>
	<path d="M7.4,0.6L7.2,0.7l5.3,6.2l0.2-0.1C12.8,6.8,7.4,0.6,7.4,0.6z
		 M13.8,8l-0.2,0.1l3.9,4.6v-0.4L13.8,8z"/>
	<path d="M7.3,0.7L7,0.8L12.4,7l0.2-0.1C12.6,6.9,7.3,0.7,7.3,0.7z
		 M13.6,8.1l-0.2,0.1l4.1,4.8v-0.4C17.5,12.6,13.6,8.1,13.6,8.1z"/>
	<path d="M7.1,0.8L6.8,0.9l5.3,6.2L12.4,7L7.1,0.8z M13.4,8.2l-0.2,0.1
		l4.3,5V13L13.4,8.2z"/>
	<path d="M6.9,0.9L6.7,1L12,7.3l0.2-0.1L6.9,0.9z M13.2,8.3L13,8.4
		l4.5,5.2v-0.4C17.5,13.3,13.2,8.3,13.2,8.3z"/>
	<path d="M6.7,1L6.5,1.1l5.3,6.2L12,7.2C12,7.2,6.7,1,6.7,1z M13.1,8.4
		l-0.2,0.1l4.7,5.5v-0.4C17.5,13.6,13.1,8.4,13.1,8.4z"/>
	<path d="M6.5,1.1L6.3,1.2l5.3,6.2l0.2-0.1C11.8,7.3,6.5,1.1,6.5,1.1z
		 M12.9,8.5l-0.2,0.1l4.8,5.7v-0.4C17.5,13.9,12.9,8.5,12.9,8.5z"/>
	<path d="M6.3,1.2L6.1,1.3l5.4,6.2l0.2-0.1C11.7,7.4,6.3,1.2,6.3,1.2z
		 M12.7,8.6l-0.2,0.1l5,5.9v-0.4L12.7,8.6z"/>
	<path d="M6.1,1.3L5.9,1.4l5.4,6.3c0,0,0-0.1,0.1-0.1l0.1-0.1
		C11.5,7.5,6.1,1.3,6.1,1.3z M12.5,8.7l-0.2,0.1l5.2,6c0-0.1,0-0.1,0-0.2v-0.2L12.5,8.7L12.5,8.7z"/>
	<path d="M6,1.4L5.7,1.5l5.5,6.4V7.8c0-0.1,0-0.1,0.1-0.2L6,1.4z
		 M12.3,8.8l-0.2,0.1c0,0,0,0-0.1,0l5.2,6.1c0.1-0.1,0.1-0.2,0.1-0.2L12.3,8.8z"/>
	<path d="M5.8,1.5L5.5,1.6l5.7,6.6V7.8C11.2,7.8,5.8,1.5,5.8,1.5z
		 M11.8,8.9l5.5,6.4c0.1,0,0.1-0.1,0.2-0.2l-5.2-6.1c-0.1,0-0.2,0-0.3,0L11.8,8.9z"/>
	<path d="M5.6,1.6L5.3,1.7L17,15.3l0.2-0.1c0,0,0,0,0.1-0.1l-5.4-6.2h0
		l-0.5-0.3c0,0-0.1-0.1-0.1-0.1l0,0c0-0.1,0-0.1-0.1-0.1V8.2C11.2,8.2,5.6,1.6,5.6,1.6z"/>
	<path d="M5.4,1.7L5.2,1.8l11.7,13.6l0.2-0.1L5.4,1.7z"/>
	<path d="M5.2,1.8L5,1.9l11.7,13.6l0.2-0.1L5.2,1.8z"/>
	<path d="M5,1.9L4.8,2l11.7,13.6l0.2-0.1L5,1.9z"/>
	<path d="M4.9,2L4.6,2.1l11.7,13.6l0.2-0.1L4.9,2z"/>
	<path d="M4.7,2.1L4.4,2.2l11.7,13.6l0.2-0.1L4.7,2.1z"/>
	<path d="M4.5,2.2L4.2,2.3L15.9,16l0.2-0.1L4.5,2.2z"/>
	<path d="M4.3,2.3L4.1,2.4l11.7,13.6l0.2-0.1L4.3,2.3z"/>
	<path d="M4.1,2.4L3.9,2.5l11.7,13.7l0.2-0.1L4.1,2.4z"/>
	<path d="M3.9,2.5L3.7,2.6l11.7,13.7l0.2-0.1L3.9,2.5z"/>
	<path d="M3.7,2.6L3.5,2.7l5.7,6.6l0.2,0.1c0.1,0,0.2,0.1,0.2,0.2v0
		l5.7,6.6l0.2-0.1L3.7,2.6z"/>
	<path d="M3.5,2.7L3.3,2.8l5.3,6.3l0.7,0.4L3.5,2.7z M9.5,9.7
		C9.5,9.7,9.5,9.7,9.5,9.7l0,0.4l5.5,6.4l0.2-0.1C15.3,16.4,9.5,9.7,9.5,9.7z"/>
	<path d="M3.4,2.8L3.1,2.9l5,5.8l0.7,0.4C8.8,9.1,3.4,2.8,3.4,2.8z
		 M9.5,10v0.4l5.3,6.2l0.2-0.1L9.5,10z"/>
	<path d="M3.2,2.9L3,3l4.7,5.4l0.7,0.4L3.2,2.9z M9.5,10.3v0.4l5.1,6
		l0.2-0.1L9.5,10.3z"/>
	<path d="M3,3L2.8,3.1l4.3,5l0.7,0.4L3,3z M9.5,10.6V11l5,5.8l0.2-0.1
		L9.5,10.6z"/>
	<path d="M2.8,3.1L2.6,3.2l4,4.6l0.7,0.4C7.2,8.2,2.8,3.1,2.8,3.1z
		 M9.5,10.9v0.4l4.8,5.6l0.2-0.1L9.5,10.9z"/>
	<path d="M2.6,3.2L2.4,3.3L6,7.5l0.7,0.4L2.6,3.2z M9.5,11.2v0.4
		l4.6,5.4l0.2-0.1C14.4,16.9,9.5,11.2,9.5,11.2z"/>
	<path d="M2.4,3.3L2.2,3.4l3.3,3.8l0.7,0.4C6.1,7.6,2.4,3.3,2.4,3.3z
		 M9.5,11.6v0.4l4.4,5.2l0.2-0.1C14.2,17,9.5,11.6,9.5,11.6z"/>
	<path d="M2.3,3.4L2,3.5L5,6.9l0.7,0.4C5.6,7.3,2.3,3.4,2.3,3.4z
		 M9.5,11.9v0.4l4.2,5l0.2-0.1C14,17.1,9.5,11.9,9.5,11.9z"/>
	<path d="M2.1,3.5L1.8,3.6l2.6,3L5.1,7C5.1,7,2.1,3.5,2.1,3.5z
		 M7.4,10.1L8,10.7v-0.2c0,0,0-0.1-0.1-0.1L7.4,10.1z M9.5,12.2v0.4l4.1,4.7l0.2-0.1L9.5,12.2z"/>
	<path d="M1.9,3.6L1.7,3.7l2.2,2.6l0.7,0.4C4.6,6.7,1.9,3.6,1.9,3.6z
		 M6.9,9.8L8,11v-0.4l-0.4-0.5C7.6,10.2,6.9,9.8,6.9,9.8z M9.5,12.5v0.4l3.9,4.5l0.2-0.1C13.6,17.3,9.5,12.5,9.5,12.5z"/>
	<path d="M1.7,3.7L1.5,3.8L3.4,6L4,6.4C4,6.4,1.7,3.7,1.7,3.7z M6.4,9.5
		L8,11.4V11L7,9.9C7,9.9,6.4,9.5,6.4,9.5z M9.5,12.8v0.4l3.7,4.3l0.2-0.1C13.5,17.4,9.5,12.8,9.5,12.8z"/>
	<path d="M1.5,3.8L1.3,3.9l1.6,1.8l0.7,0.4C3.5,6.1,1.5,3.8,1.5,3.8z
		 M5.9,9.2L8,11.7v-0.4L6.5,9.6C6.5,9.6,5.9,9.2,5.9,9.2z M9.5,13.1v0.4l3.5,4.1l0.2-0.1L9.5,13.1z"/>
	<path d="M1.3,3.9L1.1,4l1.2,1.4L3,5.8C3,5.8,1.3,3.9,1.3,3.9z M5.3,8.9
		L8,12v-0.4L6,9.3L5.3,8.9z M9.5,13.4v0.4l3.3,3.9l0.2-0.1C13.1,17.6,9.5,13.4,9.5,13.4z"/>
	<path d="M1.1,4L0.9,4.1l0.9,1l0.7,0.4L1.1,4z M4.8,8.6L8,12.3v-0.4
		L5.5,9L4.8,8.6z M9.5,13.7v0.4l3.2,3.7l0.2-0.1L9.5,13.7z"/>
	<path d="M1,4.1L0.7,4.2l0.5,0.6l0.7,0.4C1.9,5.2,1,4.1,1,4.1z M4.3,8.3
		L8,12.6v-0.4L4.9,8.7L4.3,8.3z M9.5,14.1v0.4l3,3.5l0.2-0.1C12.7,17.8,9.5,14.1,9.5,14.1z"/>
	<path d="M0.8,4.2L0.5,4.3l0.2,0.2l0.7,0.4C1.4,4.9,0.8,4.2,0.8,4.2z
		 M3.7,8L8,13v-0.4L4.4,8.4C4.4,8.4,3.7,8,3.7,8z M9.5,14.4v0.4l2.8,3.3l0.2-0.1C12.6,17.9,9.5,14.4,9.5,14.4z"/>
	<path d="M0.6,4.3L0.5,4.3l0.4,0.2C0.9,4.6,0.6,4.3,0.6,4.3z M3.2,7.7
		L8,13.3v-0.4L3.9,8.1C3.9,8.1,3.2,7.7,3.2,7.7z M9.5,14.7v0.4l2.6,3.1l0.2-0.1L9.5,14.7z"/>
	<path d="M2.7,7.4L8,13.6v-0.4L3.3,7.8L2.7,7.4z M9.5,15v0.4l2.4,2.8
		l0.2-0.1L9.5,15z"/>
	<path d="M2.2,7.1L8,13.9v-0.4l-5.2-6L2.2,7.1z M9.5,15.3v0.4l2.3,2.6
		l0.2-0.1L9.5,15.3z"/>
	<path d="M1.6,6.8L8,14.2v-0.4L2.3,7.2C2.3,7.2,1.6,6.8,1.6,6.8z
		 M9.5,15.6V16l2.1,2.4l0.2-0.1C11.8,18.3,9.5,15.6,9.5,15.6z"/>
	<path d="M1.1,6.5l6.9,8v-0.4L1.7,6.9L1.1,6.5z M9.5,16v0.4l1.9,2.2
		l0.2-0.1L9.5,16z"/>
	<path d="M0.6,6.2L8,14.8v-0.4L1.2,6.6L0.6,6.2z M9.5,16.3v0.4l1.7,2
		l0.2-0.1L9.5,16.3z"/>
	<path d="M0,5.9l8,9.2v-0.4L0.7,6.3C0.7,6.3,0,5.9,0,5.9z M9.5,16.6V17
		l1.5,1.8l0.2-0.1C11.3,18.6,9.5,16.6,9.5,16.6z"/>
	<path d="M0,5.9v0.3l8,9.3v-0.4L0.2,6L0,5.9z M9.5,16.9v0.2
		c0,0,0,0.1,0,0.1l1.4,1.6l0.2-0.1C11.1,18.7,9.5,16.9,9.5,16.9z"/>
	<path d="M0,6.1v0.4l8,9.3v-0.4L0,6.1z M9.5,17.2c0,0.1-0.1,0.2-0.1,0.2
		l0,0l1.4,1.6l0.2-0.1C10.9,18.9,9.5,17.2,9.5,17.2z"/>
	<path d="M0,6.4v0.4l8,9.3v-0.4L0,6.4z M9.4,17.4
		C9.4,17.4,9.4,17.4,9.4,17.4l-0.2,0.1l1.4,1.6l0.2-0.1L9.4,17.4L9.4,17.4z"/>
	<path d="M0,6.7v0.4l8,9.3V16L0,6.7z M9.2,17.5L9,17.6l1.4,1.6l0.2-0.1
		L9.2,17.5z"/>
	<path d="M0,7v0.4l8,9.3v-0.4L0,7z M9.1,17.6l-0.1,0.1c0,0-0.1,0-0.1,0
		l1.4,1.6l0.2-0.1L9.1,17.6L9.1,17.6z"/>
	<path d="M0,7.4v0.4L8,17v-0.4L0,7.4z M8.4,17.6l1.6,1.8l0.2-0.1
		l-1.4-1.6c0,0-0.1,0-0.1,0h0c-0.1,0-0.1,0-0.1,0L8.4,17.6L8.4,17.6z"/>
	<path d="M0,7.7v0.4l9.8,11.4l0.2-0.1l-1.5-1.7l-0.5-0.2
		C8,17.4,8,17.3,8,17.2v-0.2L0,7.7z"/>
	<path d="M0,8v0.4l9.6,11.2l0.2-0.1L0,8z"/>
	<path d="M0,8.3v0.4l9.4,11l0.2-0.1L0,8.3z"/>
	<path d="M0,8.6V9l9.3,10.8l0.2-0.1L0,8.6z"/>
	<path d="M0,8.9v0.4l9.1,10.6l0.2-0.1L0,8.9z"/>
	<path d="M0,9.2v0.4L8.9,20C9,20,9,20,9.1,19.9l0.1,0L0,9.2z"/>
	<path d="M0,9.5V10l8.6,10c0,0,0.1,0,0.1,0c0.1,0,0.1,0,0.2,0L0,9.5z"/>
	<path d="M0,9.9v0.4l8.2,9.5l0.3,0.2C8.5,20,8.6,20,8.7,20L0,9.9z"/>
	<path d="M0,10.2v0.4l7.6,8.9l0.7,0.4L0,10.2z"/>
	<path d="M0,10.5v0.4l7.1,8.3l0.7,0.4L0,10.5z"/>
	<path d="M0,10.8v0.4l6.6,7.6l0.7,0.4L0,10.8z"/>
	<path d="M0,11.1v0.4l6,7l0.7,0.4L0,11.1z"/>
	<path d="M0,11.5v0.4l5.5,6.4l0.7,0.4L0,11.5z"/>
	<path d="M0,11.8v0.4l4.9,5.8l0.7,0.4L0,11.8z"/>
	<path d="M0,12.1v0.4l4.4,5.1L5.1,18C5.1,18,0,12.1,0,12.1z"/>
	<path d="M0,12.4v0.4l3.9,4.5l0.7,0.4L0,12.4z"/>
	<path d="M0,12.7v0.4L3.3,17L4,17.4L0,12.7z"/>
	<path d="M0,13v0.4l2.8,3.3l0.7,0.4L0,13z"/>
	<path d="M0,13.3v0.4l2.3,2.6l0.7,0.4L0,13.3z"/>
	<path d="M0,13.6V14l1.7,2l0.7,0.4L0,13.6z"/>
	<path d="M0,14v0.4l1.2,1.4l0.7,0.4L0,14z"/>
	<path d="M0,14.3v0.4l0.7,0.8l0.7,0.4L0,14.3z"/>
	<path d="M0,14.6v0.1c0,0.2,0.1,0.5,0.3,0.6l0.5,0.3
		C0.8,15.5,0,14.6,0,14.6z"/>
	<path d="M0.1,15.1c0,0,0.1,0.1,0.1,0.1L0.1,15.1z"/>
</g>
</svg>
