<svg xmlns="http://www.w3.org/2000/svg" viewBox="0 0 15 11"><<path d="M317.51,350.91a1.72,1.72,0,0,0-1.28-.51H305.06a1.87,1.87,0,0,0-1.91,1.83v7.33a1.87,1.87,0,0,0,1.91,1.83h11.17a1.87,1.87,0,0,0,1.91-1.83v-7.33A3.1,3.1,0,0,0,317.51,350.91Zm-13.4,1.32a0.9,0.9,0,0,1,.85-0.81h11.17a0.9,0.9,0,0,1,.85.81v7.33a0.9,0.9,0,0,1-.85.81H305a0.9,0.9,0,0,1-.85-0.81v-7.33Z" transform="translate(-303.15 -350.4)"/><path class="cls-1" d="M305,352.74l3.51,3.06L305,359.06a0.47,0.47,0,0,0,0,.71,0.82,0.82,0,0,0,.43.2c0.11,0,.32-0.1.43-0.1l3.62-3.26,1,0.81a0.53,0.53,0,0,0,.43.1c0.11,0,.32-0.1.43-0.1l1-.81,3.62,3.36a0.53,0.53,0,0,0,.43.1,0.82,0.82,0,0,0,.43-0.2,0.3,0.3,0,0,0,.11-0.41,0.76,0.76,0,0,0-.21-0.41L313,355.8l3.51-3.06a0.47,0.47,0,0,0,0-.71,0.53,0.53,0,0,0-.74,0l-5,4.18-0.85-.71h0a0.1,0.1,0,0,1-.11-0.1L305.92,352a0.53,0.53,0,0,0-.43-0.1,0.82,0.82,0,0,0-.43.2A0.34,0.34,0,0,0,305,352.74Z" transform="translate(-303.15 -350.4)"/></svg>
