<svg xmlns="http://www.w3.org/2000/svg" viewBox="0 0 52.12 29.36"><title>features-6</title><path d="M51.3,4.5H44.1V2a2,2,0,0,0-2-2H16.3a2,2,0,0,0-2,2h0V7.2H7.5a1.15,1.15,0,0,0-.9.6l-3.5,6h-2A1.11,1.11,0,0,0,0,14.9v9.7a1.11,1.11,0,0,0,1.1,1.1H3.5a4.89,4.89,0,0,0,6,3.5A5,5,0,0,0,13,25.7h2.4a.6.6,0,0,0,.4-.1.9.9,0,0,0,.5.1H27.4a4.89,4.89,0,0,0,6,3.5,5,5,0,0,0,3.5-3.5H42a2,2,0,0,0,2-2V16h5.4c.6-.1,1.1-.6,1-1.1a1.28,1.28,0,0,0-1-1H44V11.4h.8a1,1,0,0,0,1.1-1,1,1,0,0,0-1-1.1h-1V6.6h7.2a1.19,1.19,0,0,0,1-1.2A.77.77,0,0,0,51.3,4.5ZM36.9,5.6A1.11,1.11,0,0,0,38,6.7h3.9V9.2H31.6c-.6.1-1.1.6-1,1.1a1.28,1.28,0,0,0,1,1H42v2.5H36.3c-.6.1-1.1.6-1,1.1a1.28,1.28,0,0,0,1,1H42v7.5H37a4.89,4.89,0,0,0-6-3.5,5,5,0,0,0-3.5,3.5h-11l.1-21.2,25.5.1V4.5h-4a1.13,1.13,0,0,0-1.2,1.1ZM32.2,21.8a2.75,2.75,0,1,1-2.8,2.7h0A2.78,2.78,0,0,1,32.2,21.8Zm-23.9,0a2.75,2.75,0,0,1,.1,5.5,2.78,2.78,0,0,1-2.8-2.7h0A2.71,2.71,0,0,1,8.3,21.8Zm6-5.9v7.5H13a4.89,4.89,0,0,0-6-3.5,5,5,0,0,0-3.5,3.5H2.2V15.9Zm0-6.5v4.4H5.7L8.2,9.4Z"/></svg>