<svg xmlns="http://www.w3.org/2000/svg" viewBox="0 0 40 52"><title>features-3</title><path d="M29.9,34.5H10.4a.85.85,0,0,0-.7,1.1.84.84,0,0,0,.7.7H30a.92.92,0,0,0,.4-1.8Z"/><path d="M29.9,15.7H10.4a.85.85,0,0,0-.7,1.1.84.84,0,0,0,.7.7H30a.92.92,0,0,0,.4-1.8C30.1,15.6,30.1,15.6,29.9,15.7Z"/><path d="M29.9,29.8H10.4a.85.85,0,0,0-.7,1.1.84.84,0,0,0,.7.7H30a.92.92,0,1,0,.4-1.8Z"/><path d="M29.6.3a1.33,1.33,0,0,0-.8-.3H4.4A4.44,4.44,0,0,0,0,4.4V47.6A4.37,4.37,0,0,0,4.4,52H35.6A4.44,4.44,0,0,0,40,47.6V10.7Zm.2,2.9,7.3,7.3H31.7a2,2,0,0,1-2-1.9V3.2Zm8.6,44.4a2.48,2.48,0,0,1-2.5,2.5H4.4a2.48,2.48,0,0,1-2.5-2.5V4.4A2.48,2.48,0,0,1,4.4,1.9H28V8.5a3.8,3.8,0,0,0,3.8,3.8h6.7l-.1,35.3Z"/><path d="M29.9,20.4H10.4a.92.92,0,0,0-.4,1.8H30a.92.92,0,0,0,.4-1.8C30.1,20.3,30.1,20.3,29.9,20.4Z"/><path d="M29.9,25.1H10.4a.85.85,0,0,0-.7,1.1.84.84,0,0,0,.7.7H30a.92.92,0,0,0,.4-1.8Z"/></svg>