<svg xmlns="http://www.w3.org/2000/svg" viewBox="0 0 44.1 51.88"><title>features-2</title><path d="M42.3,16.58h0a.37.37,0,0,0-.1-.3v-.1h0l-2.6-4.4a.81.81,0,0,0-.8-.4H37.2l.6-2.6a1,1,0,0,0-.7-1.1h0l-7.9-1.8a7.53,7.53,0,0,0-13.4-2.8c0,.1-.1.1-.1.2L6,4.28a1,1,0,0,0-.8,1h0l.7,6.1H5.3a1.23,1.23,0,0,0-.8.4l-2.6,4.4v.2c0,.1-.1.2-.1.3h0L0,51a.82.82,0,0,0,.8.9H43.2a.9.9,0,0,0,.9-.9v-.1Zm-28.6-3.3,12.5-3,1.3,5.5H14.3Zm24.6-.2,1.6,2.6H36.2l.6-2.6Zm-3.8,2.6H29.4L27.8,9a.92.92,0,0,0-1.1-.7h0l-1.4.3.5-2L36,9.18ZM22,1.58a5.86,5.86,0,0,1,5.4,3.7l-2.2-.4a1,1,0,0,0-1.1.7h0l-.9,3.7-.9.2-.7-6.1a.85.85,0,0,0-1-.8h0l-2.1.3A5.44,5.44,0,0,1,22,1.58Zm-1.9,2.8.6,5.4-8.2,2a.92.92,0,0,0-.7,1.1h0l.7,2.9H8.2L7.1,6ZM5.8,13.08h.3l.3,2.6H4.2Zm-4,37,1.7-32.6H40.6l1.7,32.6Z"/><path d="M28.7,19.28a2.58,2.58,0,0,0-2.6,2.6,2.72,2.72,0,0,0,1.7,2.5h0a.37.37,0,0,0,.1.3v4.5a5.7,5.7,0,0,1-11.4,0v-4.9h0a2.66,2.66,0,1,0-3.4-1.6,2.8,2.8,0,0,0,1.6,1.6h0v4.9a7.5,7.5,0,0,0,15,0v-4.9h0a2.63,2.63,0,0,0,1.6-3.4A3.08,3.08,0,0,0,28.7,19.28ZM15.4,21a.9.9,0,1,1-.9.9h0C14.6,21.38,14.9,21,15.4,21Zm13.3,1.8a.9.9,0,1,1,.9-.9A1.06,1.06,0,0,1,28.7,22.78Z"/></svg>