<svg xmlns="http://www.w3.org/2000/svg" viewBox="0 0 52.06 49.77"><title>features-4</title><path d="M50.92,22.49a3.77,3.77,0,0,0,.1-5.3,3.6,3.6,0,0,0-2.1-1.1l-12.6-1.9a1.6,1.6,0,0,1-1.3-.9l-5.7-11.2a3.71,3.71,0,0,0-5-1.7,4.24,4.24,0,0,0-1.8,1.7L17,13.49a1.6,1.6,0,0,1-1.3.9l-12.5,1.8A3.86,3.86,0,0,0,0,20.39a3.6,3.6,0,0,0,1.1,2.1l9.1,8.9a1.65,1.65,0,0,1,.5,1.5l-2.1,12.5a3.74,3.74,0,0,0,3,4.3,3.44,3.44,0,0,0,2.4-.4l11.3-5.9a2,2,0,0,1,1.5,0L38,49.29a3.73,3.73,0,0,0,5-1.5,3.85,3.85,0,0,0,.4-2.4l-2.1-12.5a1.65,1.65,0,0,1,.5-1.5Zm-11.7,10.8,2.2,12.5a1.6,1.6,0,0,1-1.3,1.9,1.39,1.39,0,0,1-1.1-.2l-11.3-5.9a3.63,3.63,0,0,0-3.5,0L13,47.49a1.61,1.61,0,0,1-2.2-.6,2,2,0,0,1-.2-1.1l2.1-12.4a3.76,3.76,0,0,0-1.1-3.3l-9.1-8.9a1.69,1.69,0,0,1-.1-2.3,1.23,1.23,0,0,1,1-.5L16,16.49a3.93,3.93,0,0,0,2.8-2L24.62,3a1.66,1.66,0,0,1,2.1-.8,2,2,0,0,1,.8.8l5.6,11.4a3.61,3.61,0,0,0,2.8,2l12.6,1.9a1.75,1.75,0,0,1,1.5,1.8,1.91,1.91,0,0,1-.5,1L40.42,30A3.41,3.41,0,0,0,39.22,33.29Z"/></svg>