<svg xmlns="http://www.w3.org/2000/svg" viewBox="0 0 52.04 52"><title>featrues-5</title><path d="M35.48,15.9a.84.84,0,0,0-.4-.7h0a1,1,0,0,0-1.5.2h0L16.87,35.2a1.19,1.19,0,0,0,.21,1.5,1.23,1.23,0,0,0,1.5-.2l16.5-19.8A.93.93,0,0,0,35.48,15.9Z"/><path d="M49.87,21a2.73,2.73,0,0,0-.9-.6l-.2-.2a.78.78,0,0,1-.1-.8,5.53,5.53,0,0,0,.8-3.1v-.6h0v-.2a6.87,6.87,0,0,0-4-5.3,6,6,0,0,0-2.3-.6h0a.84.84,0,0,1-.8-.2,2.44,2.44,0,0,1-.2-.6,5.78,5.78,0,0,0-2.4-4.7,6.82,6.82,0,0,0-4.3-1.5,9.26,9.26,0,0,0-2.3.4,3.15,3.15,0,0,0-.8.4l-.09.1h-.2c-.3-.1-.3-.1-.71-.6A6.14,6.14,0,0,0,26.08,0H26a6.28,6.28,0,0,0-5.6,3.2c-.1.2-.2.2-.4.2h-.29l-.21-.1a5.65,5.65,0,0,0-1.2-.5,5.54,5.54,0,0,0-1.8-.2,2.71,2.71,0,0,0-.89.1,7,7,0,0,0-4.11,2.2A6.19,6.19,0,0,0,9.77,9v.3a1,1,0,0,1-.69.4h-.2a5.83,5.83,0,0,0-2.9.9,4.43,4.43,0,0,0-1.5,1.2A7.6,7.6,0,0,0,2.58,17a5.44,5.44,0,0,0,.59,2.4c.1.2.2.2.2.4s0,.4-.2.6l-.3.2A6.41,6.41,0,0,0,.08,25.1a6.52,6.52,0,0,0,1.79,5.6,4.1,4.1,0,0,0,1,.8c.61.5.61.5.61.8s-.2.2-.2.4a6.77,6.77,0,0,0-.7,2.5,7.05,7.05,0,0,0,3.09,6.2,7.19,7.19,0,0,0,3.21,1.1c.6.1.6.1.8.4v.4a6.1,6.1,0,0,0,1.5,3.9,6.77,6.77,0,0,0,6.4,2.4,6.2,6.2,0,0,0,1.79-.6c.21-.1.3-.2.4-.2s.2,0,.2.1c.21.1.21.2.3.3a6.48,6.48,0,0,0,1.6,1.7A8.55,8.55,0,0,0,26.08,52a6.66,6.66,0,0,0,2.79-.6,5.44,5.44,0,0,0,2.8-2.4.82.82,0,0,1,.5-.5h.2c.1.1.21.1.3.2l.5.2a8.33,8.33,0,0,0,1.5.4,3.42,3.42,0,0,0,1.1.1h1a6.92,6.92,0,0,0,5.6-5.5,2.77,2.77,0,0,0,.1-.9.37.37,0,0,1,.1-.3c.2-.2.2-.2.7-.2h.2a7.17,7.17,0,0,0,4.3-2.2,6.66,6.66,0,0,0,1.7-5,4.3,4.3,0,0,0-.7-2.5c-.1-.2-.2-.2-.2-.4s0-.3.6-.7A6.3,6.3,0,0,0,52,27.6,7.68,7.68,0,0,0,49.87,21ZM46.28,32.4a3.94,3.94,0,0,0,.4,1.2,3.71,3.71,0,0,1,.4,1.5A4.66,4.66,0,0,1,46,38.5a4.1,4.1,0,0,1-2.8,1.5h-.1a2.54,2.54,0,0,0-2.41,1.2,3,3,0,0,0-.5,1.5v.6a4.5,4.5,0,0,1-4.4,3.7H35a2.92,2.92,0,0,0-.9-.2l-.4-.2a2.82,2.82,0,0,0-2.2-.3,3.08,3.08,0,0,0-1.79,1.4,3.17,3.17,0,0,1-1.9,1.5,4.76,4.76,0,0,1-4.6-.5,3.45,3.45,0,0,1-1-1.1A3.48,3.48,0,0,0,21,46.4a2.25,2.25,0,0,0-1.1-.3,4.19,4.19,0,0,0-1.5.4,4.23,4.23,0,0,1-1.2.4,4.74,4.74,0,0,1-4.3-1.6,4,4,0,0,1-1-2.5,5,5,0,0,0-.2-1.2A2.5,2.5,0,0,0,9.07,40,3.94,3.94,0,0,1,7,39.4a4.59,4.59,0,0,1-2.1-4.1,3,3,0,0,1,.5-1.6c.2-.2.2-.5.3-.7a2.67,2.67,0,0,0-1.5-3.3c-.2-.2-.5-.3-.6-.6a4.17,4.17,0,0,1-1.1-3.8,4.08,4.08,0,0,1,1.8-2.9l.4-.2a2.63,2.63,0,0,0,1.2-2.7,2.57,2.57,0,0,0-.5-1.2A3.71,3.71,0,0,1,5,16.8a5.11,5.11,0,0,1,1.3-3.7h0L6,13l.19.2a7.2,7.2,0,0,1,.91-.7A4.17,4.17,0,0,1,9,11.9h.11a3,3,0,0,0,2.8-2.1c0-.2.1-.5.1-.6a4,4,0,0,1,1.1-2.7,3.82,3.82,0,0,1,3-1.5h0a2.85,2.85,0,0,1,1.6.2c.2.1.5.2.7.3l.2.2a2.74,2.74,0,0,0,1.3.2,2.81,2.81,0,0,0,2.4-1.3A4.13,4.13,0,0,1,26,2.4h.1a4.49,4.49,0,0,1,3.6,1.7,2.87,2.87,0,0,0,2.4,1.7h.2a3.19,3.19,0,0,0,1.4-.3,1.42,1.42,0,0,1,.6-.2,3.89,3.89,0,0,1,1.5-.2,4.4,4.4,0,0,1,2.9,1.1,3.89,3.89,0,0,1,1.6,3.2,2.8,2.8,0,0,0,2.8,2.9h.29V12a6,6,0,0,1,1.41.3,4.83,4.83,0,0,1,2.7,4.1,6.46,6.46,0,0,1-.4,1.9,2.86,2.86,0,0,0,.4,3.6c.2.2.4.3.6.5a1.93,1.93,0,0,1,.59.4A4.89,4.89,0,0,1,50,27.1a4,4,0,0,1-1.9,2.7A2.38,2.38,0,0,0,46.28,32.4Z"/><path d="M21.08,23.8a4.47,4.47,0,0,0,4.5-4.4,4.45,4.45,0,0,0-8.9-.1h0A4.46,4.46,0,0,0,21.08,23.8Zm-2.21-4.5a2.21,2.21,0,1,1,2.21,2.2h0a2.16,2.16,0,0,1-2.21-2.2Z"/><path d="M31.87,28.1a4.4,4.4,0,0,0-4.4,4.5,4.25,4.25,0,0,0,4.4,4.4,4.4,4.4,0,0,0,4.5-4.4A4.67,4.67,0,0,0,31.87,28.1Zm2.21,4.5a2.21,2.21,0,1,1-2.21-2.2A2.22,2.22,0,0,1,34.08,32.6Z"/></svg>