<svg xmlns="http://www.w3.org/2000/svg" viewBox="0 0 52.11 49.8"><title>features-7</title><path d="M44.3,38.1a45.22,45.22,0,0,0-10.7-3.7v-.8c.2-.2.5-.4.7-.6a13,13,0,0,0,3.4-7.5A6.35,6.35,0,0,0,41.9,23c1.5-2,1.5-5,.4-8.6a2.09,2.09,0,0,0-.4-.6l-.5-.3a13.36,13.36,0,0,0-3.2-8.9C35.6,1.5,31.5,0,26.1,0S16.7,1.5,14,4.5a13.89,13.89,0,0,0-3.2,8.9l-.5.3a1.27,1.27,0,0,0-.4.6c-1.2,3.7-1.1,6.6.4,8.6a6.73,6.73,0,0,0,4.2,2.6A13.27,13.27,0,0,0,17.9,33c.2.2.5.4.7.6v.8A40.91,40.91,0,0,0,7.9,38C2.5,40.8-.1,44.5,0,48.7a1.11,1.11,0,0,0,1.1,1.1H51a1.11,1.11,0,0,0,1.1-1.1h0C52.2,44.5,49.6,40.9,44.3,38.1ZM25,42.5v5.1H2.3c.8-7.1,12.6-10.2,16.3-11v1.6C18.6,40.5,21.2,42.2,25,42.5ZM16.2,22.7a5.87,5.87,0,0,1-1.8-4.1,2.47,2.47,0,0,1,.8-1.6c1,0,5.8-.2,8.8-2.8a22,22,0,0,0,10.9,2.9,14.08,14.08,0,0,0,2-.1,3.15,3.15,0,0,1,.8,1.5c.2,1.1-.4,2.5-1.8,4.1a.84.84,0,0,0-.2.7V24l-5.5,3a2.9,2.9,0,1,0,.2,4.1,2.81,2.81,0,0,0,.7-1.9V29l4.3-2.4a10.48,10.48,0,0,1-2.6,5A10,10,0,0,1,26.3,34h-.5a8.82,8.82,0,0,1-6.4-2.4c-2.8-2.8-3-7.2-3-8h0v-.1A1.2,1.2,0,0,0,16.2,22.7Zm-3.9-4.3a5.85,5.85,0,0,0,1.5,4.7,3.11,3.11,0,0,1-1.6-1.2h0l-.1-.2c-1-1.5-1.1-3.6-.2-6.3l.7-.5a1.23,1.23,0,0,0,.5-1,11.15,11.15,0,0,1,2.7-8C18,3.5,21.5,2.2,26.3,2.2h.1c4.7,0,8.2,1.3,10.4,3.7a11.78,11.78,0,0,1,2.7,8,1.23,1.23,0,0,0,.5,1l.6.5c.9,2.8.8,5-.2,6.3a4.89,4.89,0,0,1-1.8,1.4,6.65,6.65,0,0,0,1.5-4.7,4.45,4.45,0,0,0-1.6-2.8C37.9,5.7,31,4.6,28,4.6a13.66,13.66,0,0,0-1.9.2,11.08,11.08,0,0,0-1.9-.2h0c-3,0-9.9,1.1-10.3,11A5,5,0,0,0,12.3,18.4Zm12-11.7a7.77,7.77,0,0,1,1.6.2h.4a10,10,0,0,1,1.6-.2c3.4,0,7.6,1.5,8.2,8.4a20.17,20.17,0,0,1-11.5-2.9,1.08,1.08,0,0,0-1.4.2c-1.9,2.1-5.5,2.6-7.1,2.7C16.7,8.2,20.8,6.7,24.3,6.7Zm3.1,22.4a.8.8,0,1,1,.8.8A.74.74,0,0,1,27.4,29.1ZM20.7,35a12.63,12.63,0,0,0,5.1,1.1h.7A12.06,12.06,0,0,0,31.4,35v3.2c0,.9-2.1,2.2-5.4,2.2s-5.4-1.3-5.4-2.2l.1-3.2Zm6.5,7.5c3.8-.2,6.4-2,6.4-4.3V36.6c3.7.8,15.4,3.8,16.3,11H27.2V42.5Z"/></svg>