<svg xmlns="http://www.w3.org/2000/svg" viewBox="0 0 47.2 52"><title>features-1</title><path d="M23.7,2a6.74,6.74,0,0,1,3,.8l15.6,9a6,6,0,0,1,3,5.2V35a6,6,0,0,1-3,5.2l-15.6,9a6.74,6.74,0,0,1-3,.8,6.11,6.11,0,0,1-3-.8l-15.6-9a6,6,0,0,1-3-5.2V17a6,6,0,0,1,3-5.2l15.6-9a6.11,6.11,0,0,1,3-.8m-.1-2a8,8,0,0,0-4,1.1L4,10.1A7.94,7.94,0,0,0,0,17V35a7.82,7.82,0,0,0,4,6.9l15.6,9a7.82,7.82,0,0,0,8,0l15.6-9a7.94,7.94,0,0,0,4-6.9V17a7.82,7.82,0,0,0-4-6.9l-15.5-9A8.69,8.69,0,0,0,23.6,0Z"/><path d="M22.4,32a1,1,0,0,1-.7,1.7H14.3a1,1,0,0,1,0-2h2.9V19.5l-2.5,1.2a.35.35,0,0,0-.2.1h-.4a.86.86,0,0,1-.6-.3,1.22,1.22,0,0,1-.3-.9,1,1,0,0,1,.6-.9L17.1,17a1.45,1.45,0,0,1,.7-.2h.5a1,1,0,0,1,1.1,1.1V31.5h2.3A4.23,4.23,0,0,1,22.4,32Z"/><path d="M29.7,16.8a6.09,6.09,0,0,1,2.8.6,4.94,4.94,0,0,1,2,1.8,10.37,10.37,0,0,1,1.6,6.2,10.17,10.17,0,0,1-1.6,6.2A5.35,5.35,0,0,1,29.7,34a5.76,5.76,0,0,1-4.9-2.4,10.37,10.37,0,0,1-1.6-6.2,10.37,10.37,0,0,1,1.6-6.2A5.76,5.76,0,0,1,29.7,16.8Zm0,15.2a3.5,3.5,0,0,0,3.2-1.8A9.47,9.47,0,0,0,34,25.4a9.47,9.47,0,0,0-1.1-4.8,3.74,3.74,0,0,0-6.4,0,9.47,9.47,0,0,0-1.1,4.8,9.21,9.21,0,0,0,1.1,4.8A3.6,3.6,0,0,0,29.7,32Z"/></svg>