<svg id="Capa_1" data-name="Capa 1" xmlns="http://www.w3.org/2000/svg" viewBox="0 0 15 14.29"><defs><style>.cls-1{fill:#000002;}</style></defs><title>filter_icon_mobile</title><path class="cls-1" d="M0.48,2.37H3a1.89,1.89,0,0,0,3.66,0h7.87a0.48,0.48,0,0,0,0-1H6.65A1.89,1.89,0,0,0,3,1.41H0.48A0.48,0.48,0,1,0,.48,2.37ZM4.82,1a0.93,0.93,0,1,1-.93.93A0.93,0.93,0,0,1,4.82,1Z"/><path class="cls-1" d="M14.52,6.66h-3.2a1.89,1.89,0,0,0-3.66,0H0.48a0.48,0.48,0,0,0,0,1H7.66a1.89,1.89,0,0,0,3.66,0h3.2A0.48,0.48,0,1,0,14.52,6.66Zm-5,1.41a0.93,0.93,0,1,1,.93-0.93A0.93,0.93,0,0,1,9.49,8.07Z"/><path class="cls-1" d="M14.52,11.91H6.65a1.89,1.89,0,0,0-3.66,0H0.48a0.48,0.48,0,0,0,0,1H3a1.89,1.89,0,0,0,3.66,0h7.87A0.48,0.48,0,0,0,14.52,11.91ZM4.82,13.32a0.93,0.93,0,1,1,.93-0.93A0.93,0.93,0,0,1,4.82,13.32Z"/></svg>