<svg
  xmlns="http://www.w3.org/2000/svg" viewBox="0 0 17 17">
  <path d="M263.39,250.8h-1.24a2,2,0,0,0,.3-0.86,2.2,2.2,0,0,0-3.67-1.87l-1.56,1.42a1.66,1.66,0,0,0-2.46,0l-1.56-1.42a2.2,2.2,0,0,0-3.67,1.87,2,2,0,0,0,.3.86h-1.23a1.11,1.11,0,0,0-1.11,1.11v1.67a0.55,0.55,0,0,0,.55.56h15.89a0.55,0.55,0,0,0,.55-0.56v-1.67A1.11,1.11,0,0,0,263.39,250.8Zm-9.05-.19v0.19h-2.61a1.09,1.09,0,0,1-.46-2.08,1.07,1.07,0,0,1,1.19.18l1.87,1.7v0Zm7-.82a1.12,1.12,0,0,1-1.14,1h-2.55v-0.2l1.85-1.68a1.11,1.11,0,0,1,1-.27A1.08,1.08,0,0,1,261.36,249.8Z" transform="translate(-247.5 -247.5)"/>
  <path d="M248.61,255.24v8.14a1.11,1.11,0,0,0,1.11,1.11h5.17v-9.26h-6.28Z" transform="translate(-247.5 -247.5)"/>
  <path d="M257.11,255.24v9.26h5.17a1.11,1.11,0,0,0,1.11-1.11v-8.14h-6.28Z" transform="translate(-247.5 -247.5)"/>
</svg>
