<svg xmlns="http://www.w3.org/2000/svg" viewBox="0 0 491.86 377.47"><title>google-plus</title><path d="M377.47,167.76H201.32v58.72H308.79a125.86,125.86,0,1,1-30.6-126.22l42.62-46.33A188.08,188.08,0,0,0,188.74,0C84.5,0,0,84.5,0,188.73S84.5,377.47,188.74,377.47c91.3,0,171.24-64.84,188.73-151V167.76Z"/><polygon points="491.86 167.66 455.83 167.66 455.83 131.63 424.94 131.63 424.94 167.66 388.91 167.66 388.91 198.55 424.94 198.55 424.94 234.58 455.83 234.58 455.83 198.55 491.86 198.55 491.86 167.66"/></svg>