<svg
  xmlns="http://www.w3.org/2000/svg" viewBox="0 0 58 20">
  <path d="M3.55,14.84c0.31-1,.66-2,1-3C5.19,12.55,5.8,13.27,6.41,14c-1,.28-1.9.59-2.86,0.85M0,10C0.86,9.51,1.74,9,2.62,8.5c0,1.06,0,2.13,0,3.19C1.73,11.15.86,10.6,0,10M3.39,5.37c1,0.28,1.95.6,2.92,0.9C5.72,7,5.06,7.65,4.43,8.33c-0.39-1-.7-2-1-3"/>
  <path d="M6.17,10.95C7,11.3,7.77,11.66,8.55,12a2.07,2.07,0,0,1,.63.86c-0.1.63-.9,0.82-1.09,1.4H8.23c2.27,0.53,4.58.89,6.89,1.21a0.87,0.87,0,0,1,.41.64c-0.2.62-.93,0.84-1.22,1.4A111,111,0,0,0,39.92,20,153.5,153.5,0,0,0,56.4,19,0.59,0.59,0,0,0,57,18.47c0.17-1.58.33-3.17,0.5-4.75l0.63-6.09c0.19-1.84.4-3.67,0.57-5.51a0.52,0.52,0,0,0-.59-0.53A153.48,153.48,0,0,0,30.68.11a88.3,88.3,0,0,0-16,2,1.87,1.87,0,0,0-.44.14c0.32,0.45,1,.62,1.14,1.2a1.21,1.21,0,0,1-1.11,1A61.89,61.89,0,0,0,8,5.64c0.28,0.48.86,0.71,1.09,1.23a0.77,0.77,0,0,1-.25.64,1.51,1.51,0,0,1-.5.43c-0.86.4-1.7,0.85-2.57,1.21a0.91,0.91,0,0,0-.65.88A1.37,1.37,0,0,0,6.17,10.95ZM48.5,7.36c0.61,0,1.22,0,1.82,0l0.05,0.44a2.82,2.82,0,0,1,1.26-.63,1.74,1.74,0,0,1,2,.72,4.07,4.07,0,0,1,0,1.72c-0.21,1.25-.42,2.49-0.66,3.73H50.54c0.2-1.27.45-2.53,0.65-3.8A0.55,0.55,0,0,0,51.1,9a0.36,0.36,0,0,0-.52.29c-0.26,1.35-.5,2.71-0.76,4.06h-2.3c0.27-1.68.55-3.37,0.81-5.05C48.38,8,48.44,7.68,48.5,7.36Zm-2-2.14A1.13,1.13,0,0,1,48,6a1.29,1.29,0,0,1-1.61,1,0.91,0.91,0,0,1-.84-0.8A1.11,1.11,0,0,1,46.46,5.22ZM45.31,7.36h2.36q-0.06.36-.12,0.72l-0.94,5.28c-0.79,0-1.58,0-2.37,0q0.41-2.39.84-4.78C45.16,8.17,45.23,7.76,45.31,7.36Zm-4.14-2c0.78,0,1.56,0,2.34,0-0.12.66-.27,1.32-0.35,2,0.45,0,.91,0,1.36,0,0,0.33-.11.66-0.17,1s-0.09.53-.14,0.79c-0.42,0-.83,0-1.24,0-0.17,0-.18.21-0.21,0.33-0.08.52-.2,1-0.28,1.55a0.61,0.61,0,0,0,.22.67,1.54,1.54,0,0,0,.86-0.08c0.08,0.42.17,0.84,0.21,1.27a0.29,0.29,0,0,1-.25.29,3.81,3.81,0,0,1-2.76.11A1.25,1.25,0,0,1,40,12c0.12-1.39.42-2.75,0.66-4.13C40.86,7,41,6.17,41.17,5.34ZM35.45,8.11a3.43,3.43,0,0,1,4.6-.2l0.19,0.2c-0.39.41-.77,0.82-1.17,1.22a4.25,4.25,0,0,0-1.32-.61,0.31,0.31,0,0,0-.19.56,5.08,5.08,0,0,1,1.8,1.19A1.94,1.94,0,0,1,38.62,13a4.45,4.45,0,0,1-4.36-.28c0.27-.51.54-1,0.82-1.53a13.86,13.86,0,0,0,1.73.58c0.28,0.09.5-.36,0.22-0.49a4.2,4.2,0,0,1-1.73-1.07A1.89,1.89,0,0,1,35.45,8.11Zm-3.3-1a9.39,9.39,0,0,1,2.4.46c0,0.19-.06.38-0.09,0.56q-0.42,2.6-.85,5.19H31.77l-0.07-.49a2.25,2.25,0,0,1-1.95.58,1.55,1.55,0,0,1-1.26-1.08,4.51,4.51,0,0,1,.23-3.08A3.6,3.6,0,0,1,32.15,7.13Zm-7.56.2h1.78c0,0.24,0,.48.06,0.72a2.34,2.34,0,0,1,1.09-.85,2,2,0,0,1,1.34.12c-0.16.65-.43,1.26-0.6,1.91A3.57,3.57,0,0,0,27,9.16a0.73,0.73,0,0,0-.42.62c-0.22,1.19-.42,2.38-0.65,3.56H23.61c0.33-1.89.66-3.79,0.91-5.69Zm-7.27.3a4.17,4.17,0,0,1,5.23-1.88,2.43,2.43,0,0,1,1.39,1.47l-0.77.47c-0.37.21-.72,0.43-1.09,0.63a1.82,1.82,0,0,0-1-.85,1.22,1.22,0,0,0-1.27.68,3.62,3.62,0,0,0-.35,2.66,1,1,0,0,0,1.54.53,14.32,14.32,0,0,0,.43-1.84,0.39,0.39,0,0,1,.4-0.16h1.81c-0.09.67-.21,1.34-0.3,2a2.15,2.15,0,0,1-.57,1.34,4,4,0,0,1-1.22.5,5.06,5.06,0,0,1-3,0,2.57,2.57,0,0,1-1.53-1.87A5.75,5.75,0,0,1,17.31,7.63Z"/>
  <path d="M31.56,11.45c0.18-.88.34-1.77,0.46-2.66a0.71,0.71,0,0,0-.76.22,3.41,3.41,0,0,0-.5,2.55C30.87,12,31.51,11.83,31.56,11.45Z"/>
</svg>
