<svg
  xmlns="http://www.w3.org/2000/svg" viewBox="0 0 15 15">
  <path d="M87.89,77H81.17A4.14,4.14,0,0,0,77,81.17v6.72A4.14,4.14,0,0,0,81.17,92h6.72A4.14,4.14,0,0,0,92,87.89V81.17A4.14,4.14,0,0,0,87.89,77ZM90.7,87.89a2.81,2.81,0,0,1-2.81,2.81H81.17a2.81,2.81,0,0,1-2.81-2.81V81.17a2.81,2.81,0,0,1,2.81-2.81h6.72a2.81,2.81,0,0,1,2.81,2.81v6.72h0Z" transform="translate(-77.03 -77.03)"/>
  <path d="M84.53,80.67a3.87,3.87,0,1,0,3.87,3.87A3.87,3.87,0,0,0,84.53,80.67Zm0,6.4a2.53,2.53,0,1,1,2.53-2.53A2.54,2.54,0,0,1,84.53,87.07Z" transform="translate(-77.03 -77.03)"/>
  <path d="M88.56,79.54a1,1,0,1,0,.69.29A1,1,0,0,0,88.56,79.54Z" transform="translate(-77.03 -77.03)"/>
</svg>
