<svg
  xmlns="http://www.w3.org/2000/svg"
  xmlns:xlink="http://www.w3.org/1999/xlink" x="0px" y="0px" viewBox="0 0 12 18" style="enable-background:new 0 0 12 18;" xml:space="preserve">
  <path d="M6.1,3.8c-1.3-0.1-2.5,1-2.5,2.3c-0.1,1.3,1,2.5,2.3,2.5c1.3,0.1,2.5-1,2.5-2.3c0,0,0-0.1,0-0.1
	C8.4,4.9,7.4,3.8,6.1,3.8z M7.4,6.2C7.3,7,6.7,7.5,6,7.5c-0.7,0-1.3-0.7-1.3-1.4c0-0.7,0.6-1.3,1.3-1.3C6.8,4.8,7.4,5.5,7.4,6.2
	C7.4,6.2,7.4,6.2,7.4,6.2L7.4,6.2z"/>
  <path d="M10.2,1.8L10.2,1.8C8.1-0.5,4.4-0.6,2,1.5C1.9,1.6,1.8,1.7,1.8,1.8c-2.1,2.5-2.3,6.1-0.6,8.8L6,18l4.8-7.3
	C12.6,7.9,12.4,4.4,10.2,1.8z M10,10.1l-4,6.1l-4-6.1C0.5,7.7,0.7,4.7,2.5,2.6c1.8-2,4.9-2.1,6.9-0.2c0.1,0.1,0.2,0.2,0.2,0.2
	C11.4,4.7,11.5,7.8,10,10.1L10,10.1z"/>
</svg>
