<svg version="1.1"
  xmlns="http://www.w3.org/2000/svg"
  xmlns:xlink="http://www.w3.org/1999/xlink" x="0px" y="0px" viewBox="0 0 22 26" xml:space="preserve">
  <path d="M10.9,14h0.2c1.4,0,2.8-0.6,3.8-1.6c2.1-2.3,1.7-6.3,1.7-6.7c-0.1-2.9-1.5-4.2-2.6-4.9C13.1,0.3,12.1,0,11.1,0	H11c-1,0-2,0.3-2.9,0.7C7,1.4,5.6,2.8,5.5,5.7c0,0.4-0.4,4.4,1.7,6.7C8.1,13.4,9.5,14,10.9,14z M6.9,5.8L6.9,5.8	C7.1,1.9,9.8,1.5,11,1.5H11c1.4,0,3.9,0.6,4.1,4.3l0,0c0,0,0.4,3.7-1.3,5.6c-0.7,0.8-1.7,1.2-2.8,1.1H11c-1,0-2.1-0.4-2.8-1.1	C6.6,9.5,6.9,5.8,6.9,5.8L6.9,5.8z"/>
  <path d="M22,20.7L22,20.7c0,0,0-0.1,0-0.1c0-1.1-0.1-3.6-2.4-4.4h-0.1c-1.6-0.4-3.1-1.1-4.4-2c-0.3-0.2-0.8-0.1-1,0.2	c-0.2,0.3-0.1,0.8,0.2,1c1.5,1,3.1,1.8,4.9,2.3c1.3,0.4,1.4,1.8,1.4,3c0,0,0,0.1,0,0.1c0,0.6,0,1.1-0.1,1.7c-6,2.9-12.9,2.9-18.9,0	c-0.1-0.5-0.1-1.1-0.1-1.7c0,0,0-0.1,0-0.1c0-1.2,0.2-2.6,1.4-3c1.7-0.5,3.4-1.2,4.9-2.3c0.3-0.2,0.4-0.7,0.2-1	c-0.2-0.3-0.7-0.4-1-0.2c-1.4,0.9-2.9,1.6-4.4,2H2.4C0.1,17,0,19.5,0,20.5c0,0,0,0.1,0,0.1l0,0c0,0.8,0.1,1.6,0.3,2.4	c0.1,0.1,0.2,0.3,0.3,0.3c6.5,3.4,14.4,3.4,20.9,0c0.1-0.1,0.2-0.2,0.3-0.3C21.9,22.3,22,21.5,22,20.7z"/>
</svg>
