<svg
  xmlns="http://www.w3.org/2000/svg" viewBox="0 0 271.75 51.79">
  <path d="M275.85,124.15l-1.69,6.34q-.23,1,1.14,1h3.58c.95,0,1.53-.35,1.73-1l1.68-6.34h3.59l-2,7.39a3.21,3.21,0,0,1-1.45,2.12,5.55,5.55,0,0,1-2.84.52h-6.44a4,4,0,0,1-2.56-.61c-.47-.4-.57-1.08-.32-2l2-7.39Zm-21.05,2.46-.38,1.42,0,.14h0l-1.6,6h3.58L258,128a1.84,1.84,0,0,1,1.79-1.28h3.57q1.42,0,1.14,1a1.58,1.58,0,0,1-1.71,1.06H259.2v0h0l1.31,5.36h3.62l-.7-2.75h.07a4.52,4.52,0,0,0,2.85-.63,3.48,3.48,0,0,0,1.44-2l.56-2.11a1.81,1.81,0,0,0-.37-1.93,3.88,3.88,0,0,0-2.49-.72H259a5.59,5.59,0,0,0-2.89.77,3.19,3.19,0,0,0-1.35,1.74ZM14.12,164.67H23l4-15.2c.62-2.32,1.13-3.18,4.44-3.18h8.87c2.37.09,3.37,1,2.86,2.63s-2,2.62-4.26,2.62H34.22c-3.72,0-4.92,3-5.41,4.76l-.48,1.81H40.79a11.16,11.16,0,0,0,7.08-1.58,8.5,8.5,0,0,0,3.57-5l1.4-5.25c.57-2.1.26-3.69-.93-4.79s-3.22-1.77-6.18-1.77h-16a13.63,13.63,0,0,0-7.18,1.9,7.85,7.85,0,0,0-3.45,4.66l-.36,1.36Zm81.44-18.38a8.81,8.81,0,0,1,3.66-4.92,13,13,0,0,1,7-1.64h16c2.94.08,5,.72,6.16,1.9a4.51,4.51,0,0,1,.95,4.66l-3.14,11.82c-.7,2.53-1.9,4.24-3.62,5.11a16.69,16.69,0,0,1-7,1.45h-16c-3,0-5-.55-6.17-1.64s-1.47-2.73-1-4.92l3.15-11.82Zm18,12.7c2.26,0,3.8-.93,4.26-2.63L120,148c.46-1.72-.59-2.62-2.85-2.62h-8.9c-2.26,0-3.79.84-4.26,2.62l-2.22,8.33c-.46,1.73.61,2.63,2.86,2.63ZM57,146l-.95,3.53-.09.36h0l-4,14.83h8.9l4.49-17c.5-1.71,2-2.24,4.23-2.24h8.88c2.25.08,3.22.89,2.91,2.4,0,.07-.75,2.82-.78,2.9-.58,1.75-2,2.58-4.28,2.59l-5.54,0c-1,0-3.35.72-2.78,2.45l7.64,20.11h9l-6.7-16h.18a11.25,11.25,0,0,0,7.08-1.57,8.57,8.57,0,0,0,3.57-5l1.88-7.05c.57-2.1.25-3.69-.93-4.79s-3.25-1.69-6.18-1.77h-16a13.63,13.63,0,0,0-7.18,1.9A7.86,7.86,0,0,0,57,146Z" transform="translate(-14.12 -124.1)"/>
  <path d="M239.31,146.29a8.9,8.9,0,0,1,3.63-4.85,12.74,12.74,0,0,1,7.06-1.71h23.14c3.09,0,5.18.57,6.3,1.71s1.38,2.75.81,4.85l-4.89,18.38h-3.21c-2.45,0-5.69,0-4.08-6.06L270.89,148c.46-1.74-.49-2.62-2.87-2.62h-3.56l-5.12,19.26H255c-3.48,0-4.08-2-3.36-4.69l3.89-14.57H252c-2.38,0-3.87,1.14-4.26,2.62l-4.43,16.64h-4.44c-4.81,0-3.65-3.07-3-5.41l3.45-13Zm-19.11,13c-.54,2.05-1.38,5.42,3.49,5.42h3.82l7.33-24.94h-8.9l-5.74,19.52Zm-25.75-12.71.4,13.84c.12,4.74,4.46,4.43,6.54,4.43h5.8l12.7-25.22h-9.3l-8.21,16.95c-.62-.09-.57-.58-.58-2l-.11-14.94H196c-5.15,0-6.48,2.22-7.66,4.68l-6,11.31,1-16h-9.23l-.64,19.82c-.1,2.53,1.17,5.4,5.89,5.4h4.8l10.33-18.27Zm-59.56-.25-.69,2.63c-.6,2.18-.3,3.83.9,4.92s3.28,1.64,6.25,1.64h14.24c.71,0,.91.77.74,1.58s-.83,1.89-1.72,1.93H131.47l-.39,1.45c-.52,1.95.06,4.23,4,4.23h19.79c3.11,0,5.49-.43,7.21-1.57a8.22,8.22,0,0,0,3.44-5l.74-2.63c.68-2.1.4-3.71-.84-4.85s-3.34-1.71-6.32-1.71H144.88c-1.8,0-.83-3.5.93-3.51H169l.31-1.15c.39-1.46,1-4.53-4.23-4.53H145.54a13.49,13.49,0,0,0-7,1.64A7.94,7.94,0,0,0,134.89,146.29ZM234,126.54c-2.66,0-5.27,1.67-5.83,3.74S229.37,134,232,134s5.27-1.67,5.83-3.73-1.16-3.74-3.83-3.74Z" transform="translate(-14.12 -124.1)"/>
</svg>
