<svg xmlns="http://www.w3.org/2000/svg" xmlns:xlink="http://www.w3.org/1999/xlink" x="0px" y="0px"
	 viewBox="0 0 31.4 20" style="enable-background:new 0 0 31.4 20;" xml:space="preserve">
<path d="M21.4,0c-2,0-4,0.6-5.7,1.8c1,0.7,1.8,1.5,2.5,2.5h-5c0.7-1,1.5-1.8,2.5-2.5C11.2-1.4,5-0.3,1.8,4.3
	S-0.3,15,4.3,18.2c3.4,2.4,8,2.4,11.4,0c-1-0.7-1.8-1.5-2.5-2.5h5c-0.7,1-1.5,1.8-2.5,2.5c4.5,3.2,10.8,2.1,13.9-2.5
	S31.7,5,27.2,1.8C25.5,0.6,23.5,0,21.4,0z M19.6,7.1c0.1,0.5,0.3,0.9,0.3,1.4h-8.4c0.1-0.5,0.2-1,0.3-1.4H19.6z M11.9,12.9
	c-0.1-0.5-0.3-0.9-0.3-1.4h8.4c-0.1,0.5-0.2,1-0.3,1.4H11.9z"/>
</svg>
