<svg
  xmlns="http://www.w3.org/2000/svg" viewBox="0 0 74 62">
  <path class="cls-1" d="M57.35,38.06l-6.9,10-4.87-4a1.23,1.23,0,0,0-1.74.17A1.24,1.24,0,0,0,44,45.93l5.9,4.87a1.23,1.23,0,0,0,.78.28h0.17a1.24,1.24,0,0,0,.84-0.52l7.66-11.07a1.24,1.24,0,0,0-.31-1.73A1.23,1.23,0,0,0,57.35,38.06Z" transform="translate(7 1)"/>
  <path class="cls-1" d="M64.53,36.33V0.21A1.25,1.25,0,0,0,64.45-.2v0L64.39-.31a1.2,1.2,0,0,0-.18-0.27l-0.1-.1a1.15,1.15,0,0,0-.25-0.17L63.73-.91A1.18,1.18,0,0,0,63.3-1H-5.77a1.21,1.21,0,0,0-.43.09l-0.12.06a1.2,1.2,0,0,0-.25.17l-0.1.1a1.22,1.22,0,0,0-.18.27l-0.05.09v0A1.22,1.22,0,0,0-7,.21V48.6h0a1.25,1.25,0,0,0,.07.4l0,0a1.12,1.12,0,0,0,.06.12,1.27,1.27,0,0,0,.17.25l0.1,0.1a1.25,1.25,0,0,0,.25.17l0.12,0.06a1.28,1.28,0,0,0,.44.09H35.72A16,16,0,1,0,64.53,36.33Zm-3.45-3.94c-0.29-.24-0.59-0.46-0.89-0.67l-0.35-.25c-0.3-.2-0.61-0.38-0.92-0.56l-0.41-.24c-0.3-.16-0.6-0.3-0.91-0.44L57.11,30c-0.29-.12-0.58-0.22-0.88-0.32l-0.6-.21c-0.28-.09-0.58-0.15-0.87-0.22l-0.65-.16c-0.32-.06-0.64-0.1-1-0.15l-0.6-.09C52,28.79,51.5,28.76,51,28.76a15.87,15.87,0,0,0-7.56,1.91L36.9,25.33,62.07,3V33.25c-0.21-.2-0.43-0.38-0.65-0.57ZM60,1.48l-26,23-0.05,0h0L31.6,26.73a4.35,4.35,0,0,1-5.68,0l-2.44-2.17,0,0a1,1,0,0,0-.1-0.08l-25.87-23H60ZM20.67,25.37C13.82,31.39.51,42-4.53,46V3Zm14.46,22H-2.22C3.39,42.89,16,32.75,22.54,27l1.75,1.56a6.86,6.86,0,0,0,9,0L35,27l6.2,5.09-0.12.1c-0.36.28-.7,0.58-1,0.89l-0.34.31c-0.3.3-.59,0.61-0.86,0.94S38.31,35,38,35.38c-0.13.18-.28,0.36-0.4,0.55s-0.36.59-.54,0.89-0.21.36-.31,0.55-0.3.6-.44,0.91-0.19.43-.28,0.65-0.22.59-.32,0.89-0.16.53-.24,0.8-0.15.54-.21,0.82-0.13.68-.18,1-0.08.44-.1,0.66a16.21,16.21,0,0,0-.1,1.76c0,0.46,0,.93.07,1.4,0,0.27.06,0.54,0.1,0.8C35.11,47.17,35.12,47.27,35.13,47.36ZM51,58.52A13.59,13.59,0,0,1,37.85,48.29a14.51,14.51,0,0,1-.32-1.64l0-.12a12.94,12.94,0,0,1-.11-1.65,13.79,13.79,0,0,1,.1-1.6c0-.18.05-0.35,0.08-0.53,0.05-.34.12-0.68,0.2-1s0.1-.41.16-0.61,0.19-.61.3-0.91,0.13-.4.21-0.59a13.62,13.62,0,0,1,.61-1.27c0.11-.2.23-0.38,0.35-0.57s0.31-.5.48-0.75l0.39-.52q0.33-.42.7-0.82l0.29-.32a13.38,13.38,0,0,1,1.21-1.11h0a13.88,13.88,0,0,1,1.4-1,13.2,13.2,0,0,1,8.65-1.94L53,31.41c0.36,0.05.72,0.12,1.07,0.2l0.52,0.13c0.33,0.09.66,0.2,1,.31L56,32.24c0.37,0.15.72,0.32,1.08,0.5l0.3,0.15a13.58,13.58,0,0,1,1.23.76L59.11,34c0.25,0.19.49,0.38,0.72,0.58L60.3,35c0.24,0.23.46,0.47,0.69,0.71s0.24,0.25.35,0.39A13.64,13.64,0,0,1,51,58.52Z" transform="translate(7 1)"/>
</svg>
