<svg
  xmlns="http://www.w3.org/2000/svg" viewBox="0 0 14 22">
  <path class="cls-1" d="M46.59,52.24a9.41,9.41,0,0,1-4.83-1.63c-0.17-.13-0.35-0.25-0.51-0.39a1.24,1.24,0,0,1-.19-1.84A1.43,1.43,0,0,1,42.89,48a2.87,2.87,0,0,1,.4.22,8.32,8.32,0,0,0,8.78.08,2.43,2.43,0,0,1,.86-0.42,1.38,1.38,0,0,1,1.54.58,1.18,1.18,0,0,1-.09,1.62,7.15,7.15,0,0,1-2.55,1.56,12.6,12.6,0,0,1-2.9.61l0.31,0.32,4,3.82a1.21,1.21,0,0,1,.3,1.48,1.6,1.6,0,0,1-1.49.88,1.48,1.48,0,0,1-.94-0.46c-1-1-2-1.91-3-2.89-0.29-.29-0.43-0.23-0.68,0-1,1-2.06,2-3.1,2.93a1.35,1.35,0,0,1-1.57.26,1.49,1.49,0,0,1-.92-1.38,1.35,1.35,0,0,1,.49-0.92l4-3.76Z" transform="translate(-40.74 -36.74)"/>
  <path class="cls-1" d="M47.69,47.88a5.58,5.58,0,1,1,5.94-5.5A5.74,5.74,0,0,1,47.69,47.88Zm2.93-5.57A2.89,2.89,0,1,0,47.76,45,2.8,2.8,0,0,0,50.62,42.3Z" transform="translate(-40.74 -36.74)"/>
</svg>
