<svg
  xmlns="http://www.w3.org/2000/svg"
  xmlns:xlink="http://www.w3.org/1999/xlink" viewBox="0 0 23.85 23.88">
  <g>
    <path d="M18.86,14.85a2.35,2.35,0,0,0-1.7-.78,2.43,2.43,0,0,0-1.72.78l-1.59,1.59-0.39-.2C13.27,16.14,13.1,16.06,13,16A17.31,17.31,0,0,1,8.8,12.18,10.22,10.22,0,0,1,7.44,10c0.41-.38.8-0.77,1.17-1.15L9,8.46A2.31,2.31,0,0,0,9,5L7.66,3.59,7.19,3.12C6.89,2.8,6.57,2.48,6.24,2.18a2.39,2.39,0,0,0-1.69-.74,2.47,2.47,0,0,0-1.71.74h0L1.11,3.92A3.69,3.69,0,0,0,0,6.26,8.84,8.84,0,0,0,.67,10a21.7,21.7,0,0,0,3.86,6.43,23.72,23.72,0,0,0,7.9,6.19,12.31,12.31,0,0,0,4.44,1.31h0.32a3.8,3.8,0,0,0,2.91-1.25l0,0A11.42,11.42,0,0,1,21,21.75c0.22-.21.44-0.42,0.66-0.65a2.51,2.51,0,0,0,.76-1.74,2.42,2.42,0,0,0-.78-1.73Zm1.8,5.31h0c-0.2.21-.4,0.4-0.62,0.62a13.25,13.25,0,0,0-1,1,2.43,2.43,0,0,1-1.9.8H16.95A10.94,10.94,0,0,1,13,21.4a22.39,22.39,0,0,1-7.44-5.83,20.47,20.47,0,0,1-3.63-6,7.2,7.2,0,0,1-.56-3.16,2.31,2.31,0,0,1,.7-1.5L3.8,3.16A1.15,1.15,0,0,1,4.56,2.8a1.08,1.08,0,0,1,.74.35v0c0.31,0.29.6,0.58,0.91,0.9L6.7,4.56,8.08,5.93a1,1,0,0,1,0,1.56l-0.43.43c-0.42.43-.83,0.84-1.27,1.23l0,0a1,1,0,0,0-.26,1.14l0,0A11,11,0,0,0,7.73,13h0a18.5,18.5,0,0,0,4.48,4.07,6.81,6.81,0,0,0,.62.34c0.18,0.09.35,0.18,0.5,0.27l0.06,0a1.09,1.09,0,0,0,.5.13,1.08,1.08,0,0,0,.77-0.35l1.72-1.72a1.14,1.14,0,0,1,.76-0.38,1,1,0,0,1,.73.37l2.79,2.79a1,1,0,0,1,0,1.58h0Zm0,0" transform="translate(0 -0.06)"/>
    <path d="M12.89,5.74A6.49,6.49,0,0,1,18.17,11a0.68,0.68,0,0,0,.67.56H19a0.68,0.68,0,0,0,.56-0.79A7.84,7.84,0,0,0,13.13,4.4a0.68,0.68,0,0,0-.79.55,0.67,0.67,0,0,0,.55.79h0Zm0,0" transform="translate(0 -0.06)"/>
    <path d="M23.84,10.59A12.92,12.92,0,0,0,13.31.07a0.68,0.68,0,1,0-.22,1.34,11.54,11.54,0,0,1,9.41,9.41,0.68,0.68,0,0,0,.67.56h0.12a0.67,0.67,0,0,0,.55-0.78h0Zm0,0" transform="translate(0 -0.06)"/>
  </g>
</svg>
