<svg
  xmlns="http://www.w3.org/2000/svg" viewBox="0 0 18 18">
  <path d="M356.48,793.55a1.77,1.77,0,0,0-1.29-.59,1.83,1.83,0,0,0-1.3.59l-1.2,1.2-0.29-.15-0.38-.2a13.06,13.06,0,0,1-3.13-2.85,7.7,7.7,0,0,1-1-1.62c0.31-.28.6-0.58,0.88-0.87l0.32-.32a1.74,1.74,0,0,0,0-2.63l-1-1-0.35-.36c-0.23-.24-0.47-0.48-0.72-0.71a1.8,1.8,0,0,0-1.27-.56,1.86,1.86,0,0,0-1.29.56h0l-1.29,1.3a2.78,2.78,0,0,0-.83,1.77,6.65,6.65,0,0,0,.49,2.82,16.35,16.35,0,0,0,2.91,4.85,17.9,17.9,0,0,0,6,4.66,9.3,9.3,0,0,0,3.35,1h0.24a2.87,2.87,0,0,0,2.2-.94l0,0a8.61,8.61,0,0,1,.67-0.69l0.49-.49a1.89,1.89,0,0,0,.57-1.31,1.83,1.83,0,0,0-.59-1.3Zm1.36,4h0c-0.15.16-.3,0.3-0.46,0.46a10,10,0,0,0-.73.76,1.84,1.84,0,0,1-1.43.6H355a8.26,8.26,0,0,1-3-.89,16.9,16.9,0,0,1-5.62-4.39,15.42,15.42,0,0,1-2.74-4.56,5.42,5.42,0,0,1-.43-2.38,1.74,1.74,0,0,1,.52-1.13l1.3-1.3a0.87,0.87,0,0,1,.58-0.27,0.82,0.82,0,0,1,.56.27h0c0.23,0.22.45,0.44,0.68,0.68l0.36,0.37,1,1a0.72,0.72,0,0,1,0,1.18l-0.33.33c-0.32.33-.62,0.63-1,0.93l0,0a0.77,0.77,0,0,0-.2.86v0a8.33,8.33,0,0,0,1.23,2h0a14,14,0,0,0,3.38,3.07,5.14,5.14,0,0,0,.47.25l0.38,0.2,0,0a0.83,0.83,0,0,0,.38.09,0.81,0.81,0,0,0,.58-0.26l1.3-1.3a0.86,0.86,0,0,1,.57-0.28,0.77,0.77,0,0,1,.55.28l2.1,2.1a0.75,0.75,0,0,1,0,1.19h0Zm0,0" transform="translate(-342.25 -782.4)"/>
  <path d="M352,786.68a4.89,4.89,0,0,1,4,4,0.51,0.51,0,0,0,.51.43h0.09a0.51,0.51,0,0,0,.42-0.59,5.92,5.92,0,0,0-4.82-4.82,0.52,0.52,0,0,0-.59.42,0.51,0.51,0,0,0,.41.59h0Zm0,0" transform="translate(-342.25 -782.4)"/>
  <path d="M360.24,790.34a9.74,9.74,0,0,0-7.94-7.93,0.51,0.51,0,1,0-.17,1,8.7,8.7,0,0,1,7.1,7.09,0.51,0.51,0,0,0,.51.43h0.09a0.5,0.5,0,0,0,.42-0.59h0Zm0,0" transform="translate(-342.25 -782.4)"/>
</svg>
