<svg xmlns="http://www.w3.org/2000/svg" viewBox="0 0 73.98 61.98"><title>phonecall</title><path d="M48.68,38.89A5.92,5.92,0,0,0,44.52,37a6.09,6.09,0,0,0-4.29,1.88l-4.36,4.36-.1-.06c-.32-.18-.65-.35-1-.51l-.17-.08c-.45-.23-.92-.47-1.33-.72a45.24,45.24,0,0,1-10.93-10A25.3,25.3,0,0,1,18.67,26v-.1l.08-.07c1.12-1,2.18-2.09,3.16-3.09L23,21.64a6.14,6.14,0,0,0,2-4.32A6.13,6.13,0,0,0,23,13L17.87,7.91c-.7-.72-1.43-1.46-2.14-2.11a5.8,5.8,0,0,0-8.19-.26l-.25.26L2.78,10.32A9.26,9.26,0,0,0,0,16.22,22.31,22.31,0,0,0,1.7,25.84a56.35,56.35,0,0,0,10,16.71,61.74,61.74,0,0,0,20.55,16A31.86,31.86,0,0,0,43.78,62h.76a9.62,9.62,0,0,0,7.34-3.17,28.83,28.83,0,0,1,2.37-2.45h0c.57-.54,1.15-1.1,1.68-1.67,2.58-2.7,2.57-6,0-8.58Zm-4.12,20.3h-.63A29.14,29.14,0,0,1,33.5,56.08,58.48,58.48,0,0,1,13.89,40.7,53.4,53.4,0,0,1,4.36,24.82a19.27,19.27,0,0,1-1.51-8.41,6.34,6.34,0,0,1,1.94-4.14L9.27,7.79a3.26,3.26,0,0,1,2.26-1,3.27,3.27,0,0,1,2.25,1c.79.74,1.55,1.52,2.37,2.34.43.44.85.88,1.28,1.29L21,15a3.37,3.37,0,0,1,1.15,2.29A3.39,3.39,0,0,1,21,19.64l-1.13,1.14-.29.29c-1,1-2,2-3.06,3A2.29,2.29,0,0,0,16,26.7a28.75,28.75,0,0,0,4.25,6.94A48.16,48.16,0,0,0,31.8,44.22a15.26,15.26,0,0,0,1.59.87l1.83.94a2.28,2.28,0,0,0,2.5-.66l4.52-4.52a3,3,0,0,1,2.25-1.07,3.19,3.19,0,0,1,2.2,1.08L54,48.12c1.47,1.47,1.46,3.08,0,4.65-.4.42-.81.83-1.28,1.29l-.38.26a32.53,32.53,0,0,0-2.52,2.6A6.74,6.74,0,0,1,44.56,59.19Z"/><path d="M58,0a16,16,0,1,0,.1,0Zm0,29.52a13.6,13.6,0,1,1,.05,0Z"/><path d="M64.42,9.17l-6.9,9.92-4.87-4A1.23,1.23,0,1,0,51.09,17h0L57,21.84a1.22,1.22,0,0,0,.78.28H58a1.26,1.26,0,0,0,.84-.52l7.66-11a1.25,1.25,0,0,0-2.06-1.43Z"/></svg>