<svg xmlns:cc="http://creativecommons.org/ns#" xmlns:dc="http://purl.org/dc/elements/1.1/" xmlns:rdf="http://www.w3.org/1999/02/22-rdf-syntax-ns#" xmlns:svg="http://www.w3.org/2000/svg"
	 xmlns="http://www.w3.org/2000/svg" xmlns:xlink="http://www.w3.org/1999/xlink" x="0px" y="0px" viewBox="0 0 41.2 20"
	 style="enable-background:new 0 0 41.2 20;" xml:space="preserve">
<g>
	<g>
		<path d="M6.7,5.4c-0.2,0-0.3,0.1-0.4,0.4C6.2,6.1,6.1,6.5,6.1,6.9c0,0.4,0,0.8,0.2,1.1c0.1,0.3,0.2,0.4,0.4,0.4
			C6.9,8.4,7,8.3,7.1,8c0.1-0.3,0.2-0.7,0.2-1.1c0-0.5,0-0.8-0.1-1.1C7.1,5.6,6.9,5.4,6.7,5.4z"/>
		<path d="M5.4,11.5c-0.2,0-0.3,0.1-0.4,0.4c-0.1,0.3-0.1,0.6-0.1,1.1c0,0.4,0,0.8,0.1,1.1c0.1,0.3,0.2,0.4,0.4,0.4
			c0.2,0,0.3-0.1,0.4-0.4c0.1-0.3,0.1-0.7,0.1-1.1c0-0.5,0-0.8-0.1-1.1C5.7,11.7,5.6,11.5,5.4,11.5z"/>
		<path d="M2.5,11.6C2.5,11.6,2.5,11.6,2.5,11.6c0,0.1,0,1.2,0,1.2c0,0.2,0,0.3,0.1,0.4c0,0.1,0.1,0.1,0.2,0.1
			c0.1,0,0.1-0.1,0.2-0.2C3,13.1,3,12.9,3,12.7c0-0.4,0-0.7-0.1-0.9C2.8,11.7,2.7,11.6,2.5,11.6z"/>
		<path d="M0,0v20h20V0H0z M1.8,4.8h2.5V9H3.6c0,0,0-3.4,0-3.5h-1c0,0.1,0,3.5,0,3.5H1.8V4.8z M3.5,13.7
			c-0.1,0.2-0.3,0.3-0.6,0.3c-0.2,0-0.3-0.1-0.4-0.2c0,0.1,0,1.2,0,1.2H1.8V11h0.7c0.5,0,0.8,0.2,1,0.7c0.1,0.3,0.2,0.6,0.2,0.9
			C3.8,13.1,3.7,13.5,3.5,13.7z M6.3,14.6c-0.2,0.4-0.5,0.6-0.9,0.6c-0.4,0-0.7-0.2-0.9-0.6c-0.2-0.4-0.3-0.9-0.3-1.6
			c0-0.6,0.1-1.2,0.3-1.6c0.2-0.4,0.5-0.6,0.9-0.6c0.4,0,0.7,0.2,0.9,0.6c0.2,0.4,0.3,0.9,0.3,1.6C6.6,13.7,6.5,14.2,6.3,14.6z
			 M5.7,8.5C5.5,8.1,5.4,7.6,5.4,6.9c0-0.6,0.1-1.2,0.3-1.6c0.2-0.4,0.6-0.6,1-0.6c0.4,0,0.8,0.2,1,0.6c0.2,0.4,0.4,0.9,0.4,1.6
			c0,0.6-0.1,1.2-0.3,1.6h0c-0.2,0.4-0.6,0.6-1,0.6C6.3,9.1,5.9,8.9,5.7,8.5z M9.2,15.2L9.2,15.2c-0.7,0-1.2-0.2-1.6-0.6
			c-0.3-0.4-0.5-0.9-0.5-1.6c0-0.7,0.2-1.2,0.5-1.6c0.3-0.4,0.9-0.6,1.6-0.6h0v0.7h0c-0.4,0-0.8,0.1-1,0.4c-0.2,0.3-0.3,0.6-0.3,1
			c0,0.4,0.1,0.8,0.3,1c0.2,0.3,0.6,0.4,1,0.4h0V15.2z M8.9,6V4.8h0.8V6c0,0.1,0,0.2,0.1,0.2c0.1,0.1,0.2,0.1,0.4,0.1
			c0,0,0.3,0,0.4,0c0-0.1,0-1.5,0-1.5h0.8V9h-0.8c0,0,0-1.9,0-2C10.5,7,10,7,10,7C9.7,7,9.5,6.9,9.2,6.7C9,6.5,8.9,6.3,8.9,6z
			 M11.8,15.2L11.8,15.2c-0.7,0-1.2-0.2-1.6-0.6c-0.3-0.4-0.5-0.9-0.5-1.6c0-0.7,0.2-1.2,0.5-1.6c0.4-0.4,0.9-0.6,1.6-0.6h0v0.7h0
			c-0.4,0-0.8,0.1-1,0.4c-0.2,0.3-0.3,0.6-0.3,1c0,0.4,0.1,0.8,0.3,1c0.2,0.3,0.6,0.4,1,0.4h0V15.2z M12.3,4.8h2.1v0.7
			c0,0-0.6,0-0.6,0c0,0.1,0,3.5,0,3.5h-0.8c0,0,0-3.4,0-3.5c-0.1,0-0.6,0-0.6,0V4.8z M14.2,15.1c0,0-0.1-2.6-0.1-2.7
			c-0.1,0.1-1,1-1,1c0,0,0,1.7,0,1.7h-0.7V11h0.7c0,0,0,1.3,0,1.5c0.1-0.1,1.5-1.6,1.5-1.6l0,0l0.2,4.4H14.2z M15.3,4.8h1.1
			c0.3,0,0.6,0.1,0.8,0.2c0.2,0.2,0.4,0.5,0.4,0.9L18,9h-0.8c0,0-0.2-2-0.2-2c-0.1,0-0.9,0-1,0C16,7.1,16,9,16,9h-0.8L15.3,4.8z
			 M17.4,15.1c0,0-0.1-2.6-0.1-2.7c-0.1,0.1-1,1-1,1c0,0,0,1.7,0,1.7h-0.7V11h0.7c0,0,0,1.3,0,1.5c0.1-0.1,1.5-1.6,1.5-1.6l0,0
			l0.2,4.4H17.4z"/>
		<path d="M16.8,5.7c-0.1-0.1-0.2-0.2-0.4-0.2c0,0-0.2,0-0.3,0c0,0.1,0,0.7,0,0.8h0.9C16.9,6,16.8,5.8,16.8,5.7z"/>
	</g>
	<g>
		<path d="M40.6,0H21.2v20h20V0H40.6z M40,18.8c-1.1,0-16.5,0-17.6,0c0-1.1,0-16.5,0-17.6c1.1,0,16.5,0,17.6,0
			C40,2.3,40,17.7,40,18.8z"/>
		<path d="M27.6,7.6c0.2,0.1,0.3,0.3,0.3,0.3c-0.4-0.3-0.7-0.1-0.7-0.1c0.1,0.5,0.5,0.6,0.5,0.6c-0.4,0-0.6,0.2-0.6,0.2
			c0.1,0.3,0.6,0.4,0.6,0.4c-0.4,0.3-0.3,0.5-0.3,0.5c0.4,0.1,0.6-0.1,0.6-0.1c-0.3,0.4-0.1,0.7-0.1,0.7c0.4,0,0.5-0.4,0.5-0.4
			c0,0.4,0.1,0.4,0.1,0.4c0.2-0.1,0.3-0.3,0.3-0.3c0.1,0.2,0.4,0.3,0.4,0.3c0.1-0.2,0-0.4,0-0.4c0.2,0.1,0.3-0.1,0.3-0.1
			c-0.1-0.2-0.2-0.4-0.2-0.4c-0.4,0.2-0.9,0.1-1-0.1c-0.1-0.2,0.1-0.6,0.2-0.9c0.1-0.3,0-0.5-0.2-0.6c-0.7-0.4-0.9-0.8-1.1-1.1
			C27.2,7.1,27.4,7.5,27.6,7.6z"/>
		<path d="M28.9,11.2c-0.1-0.1-0.1-0.2-0.1-0.2c0.1,0.6,0.1,1,0.4,1.3c0,0,0.2-0.2,0.1-0.8c0,0-0.1,0-0.2-0.1
			c0,0,0.1,0.2,0,0.5C29.1,11.8,29,11.7,28.9,11.2z"/>
		<path d="M28.2,10.9c0,0.3-0.1,1.2,0.2,1.5c0,0,0.2-0.1,0.3-1.4c0,0.1-0.1,0.1-0.1,0.2c0,0,0,0.4-0.1,0.7
			c0,0-0.1-0.1,0-0.7C28.3,11.1,28.3,11,28.2,10.9z"/>
		<path d="M27.9,11.9c0.2-0.3,0.2-0.8,0.2-1.3c0,0,0-0.1,0-0.1c0,0,0,0,0,0c0,0-0.1,0-0.1,0.1c0,0-0.1,0.9-0.3,1.2h0
			c-0.1-0.3,0.1-0.7,0.2-1.1c0,0-0.1,0-0.1,0c-0.3,0.5-0.6,1.1-0.3,1.6C27.5,12.3,27.7,12.2,27.9,11.9z"/>
		<path d="M27,10.4C27,10.4,27,10.4,27,10.4c0,0,0-0.1,0-0.2c-0.7,0.7-1,0.8-1,0.8c0.2-0.5,0.8-0.8,1.1-0.9
			c0,0,0-0.1,0.1-0.1c0,0,0,0,0,0c-0.1,0-0.2,0-0.3,0c-0.3,0.2-0.6,0.5-0.9,0.8c-0.3,0.3-0.4,0.6-0.4,1c0,0,0.5,0,0.9-0.5
			C26.6,10.9,26.8,10.6,27,10.4z"/>
		<path d="M26.7,9.9C26.6,9.9,26.6,9.9,26.7,9.9c0,0-0.7,0.5-1.3,0.7c0,0,0.1-0.2,0.4-0.4c0.3-0.2,0.5-0.3,0.8-0.4l0,0
			c0,0,0,0,0,0c-0.2,0.1-1,0.4-1.3,0.5c-0.3,0.1-0.6,0.4-0.8,1.1c0,0,0.5,0,1-0.3C25.9,10.6,26.4,10.1,26.7,9.9z"/>
		<path d="M26.4,9.7c-0.1,0-0.2,0-0.3-0.1c-0.3,0.2-0.8,0.3-1.3,0.4c0,0,0.2-0.2,0.5-0.3c0.3-0.1,0.5-0.2,0.8-0.3
			c0,0,0,0,0-0.1c-0.3,0.1-0.9,0.1-1.2,0.2c-0.3,0.1-0.8,0.3-1.1,0.9c0,0,0.5,0.1,1.3-0.3C26,9.8,26.3,9.7,26.4,9.7z"/>
		<path d="M24.5,9.5c0.9-0.1,1.4-0.2,1.7-0.2c0.1-0.1,0.1-0.1,0.2-0.2c-0.1,0-0.2,0-0.3-0.1h0c-0.8,0.2-1.5,0.2-1.5,0.2
			C25,9,25.7,8.9,26,8.9c-0.1,0-0.1-0.1-0.1-0.1c-0.4,0-1.2,0-1.6,0.1C24,9,23.5,9.2,23.2,9.4C23.2,9.4,23.7,9.5,24.5,9.5z"/>
		<path d="M22.9,8c0,0,0.6,0.4,1.3,0.6c0.7,0.1,1.3,0,1.7,0.1c0,0,0.1-0.1,0.1-0.1c-0.5,0-1.3-0.1-1.6-0.2
			c0,0,0.7-0.1,1.7,0.1c0,0,0.1,0,0.2-0.1c-0.4-0.1-1-0.3-2-0.4C23.6,7.9,23.1,8,22.9,8z"/>
		<path d="M23.9,7.7c0.7,0.3,1.9,0.4,2.5,0.7C26.1,8.2,26.1,8,26.1,8c-0.3-0.1-0.5-0.1-1-0.2c-0.4-0.1-0.7-0.3-0.7-0.3
			c0.2,0,0.4,0,0.7,0.1c0.4,0.1,0.6,0.2,1,0.3c0.1-0.1,0.2-0.1,0.3-0.1c-0.3-0.1-1.2-0.4-1.7-0.6c-0.5-0.1-1.1-0.3-1.9-0.3
			C22.9,6.8,23,7.3,23.9,7.7z"/>
		<path d="M26.1,7.5c0,0-0.1-0.1-0.1-0.2c-0.4-0.2-0.4-0.2-0.6-0.3c-0.2-0.1-0.4-0.3-0.7-0.5C24.5,6.3,24.3,6,24.3,6
			c0.3,0.1,0.6,0.3,0.7,0.4c0.2,0.2,0.6,0.5,1,0.7l-0.1-0.3c-0.4-0.3-0.9-0.8-1.1-1C24.6,5.6,23.8,5,23.5,5c0,0-0.1,0.7,0.2,1.1
			C24.1,6.6,25.2,7.3,26.1,7.5z"/>
		<path d="M28.8,10L28.8,10c0,0.2,0,0.4,0,0.5c0,0.2,0.1,0.4,0.3,0.6c0.2,0.2,0.4,0.2,0.4,0.2c0-0.1-0.1-0.3-0.2-0.5
			c0-0.1-0.1-0.3-0.1-0.5C29,10.2,28.9,10,28.8,10C28.8,10,28.8,10,28.8,10z"/>
		<path d="M28.6,10.1C28.6,10.1,28.6,10.1,28.6,10.1l-0.1,0l0,0c0,0,0,0-0.1-0.1c0,0-0.1,0.1-0.1,0.2
			c-0.1,0.2,0,0.3,0,0.5c0,0.1,0.2,0.3,0.2,0.3c0.1-0.1,0.2-0.2,0.2-0.3c0-0.1,0-0.3,0-0.4C28.7,10.2,28.7,10.2,28.6,10.1z"/>
		<path d="M27.9,10.1L27.9,10.1c-0.5,0.4-0.4,0.6-0.4,0.6c0.2,0,0.5-0.1,0.6-0.2c0.1-0.1,0.2-0.2,0.2-0.3
			c0-0.1,0-0.2,0-0.2C28.1,10,28,10,27.9,10.1z"/>
		<path d="M27.3,10c-0.3,0.2-0.2,0.4-0.2,0.4c0.4,0,0.6-0.3,0.7-0.4c0,0-0.1-0.1-0.1-0.3C27.5,9.8,27.5,9.8,27.3,10z"/>
		<path d="M27.3,9.5L27.3,9.5L27.3,9.5c-0.3,0.1-0.5,0.1-0.6,0.3c0,0,0.1,0.2,0.4,0.2c0.3,0,0.5-0.2,0.6-0.3
			c0,0,0-0.1,0-0.1C27.6,9.5,27.5,9.5,27.3,9.5z"/>
		<path d="M26.8,9c-0.2,0-0.5,0.1-0.6,0.5c0,0,0.2,0.1,0.5,0.1c0.3,0,0.5-0.2,0.6-0.3c0-0.1,0.1-0.1,0.1-0.2
			C27.2,9,27,9,26.8,9z"/>
		<path d="M25.9,8.7c0,0,0.3,0.2,0.5,0.2c0.3,0,0.6-0.1,0.7-0.2h0C27.1,8.7,27,8.7,27,8.6l0,0c-0.2-0.1-0.5-0.1-0.7,0
			C26,8.6,26,8.7,25.9,8.7z"/>
		<path d="M26.6,8.3c0.3,0.1,0.5,0.1,0.6,0c0,0,0.1,0,0.1,0c-0.1-0.1-0.2-0.2-0.2-0.4c-0.1,0-0.3,0-0.4,0
			c-0.1,0-0.3,0-0.5,0.1C26.1,7.9,26.2,8.2,26.6,8.3z"/>
		<path d="M27.1,7.8L27.1,7.8c0,0,0.1-0.1,0.3-0.1c-0.1-0.1-0.4-0.3-0.6-0.4C26.5,7.1,26.2,7,26,6.9
			c0,0,0.2,0.5,0.4,0.6C26.6,7.8,26.7,7.8,27.1,7.8z"/>
		<path d="M27.4,7.6c-0.1-0.1-0.2-0.3-0.2-0.5c0-0.1-0.1-0.5-0.2-0.6c0-0.1-0.3-0.4-0.7-0.5c0,0-0.1,0.4,0.1,0.8
			C26.6,7,27,7.4,27.4,7.6z"/>
		<path d="M29.3,10.2L29.3,10.2c-0.1,0-0.1,0-0.2-0.1c0.1,0.1,0.2,0.2,0.2,0.5c0.1,0.5,0.2,0.5,0.2,0.5
			c0.1-0.2,0.2-0.5,0.3-0.8c0.2-0.3,0-0.5,0-0.5c-0.1,0-0.1-0.1-0.2-0.1l0,0c0,0,0,0,0,0c0,0-0.1,0.1-0.2,0.1c0,0,0,0,0,0.1
			C29.4,9.9,29.4,10,29.3,10.2L29.3,10.2z"/>
		<path d="M26.3,7L26.3,7c0.2,0.1,0.2,0.1,0.3,0.1c-0.1-0.1-0.2-0.2-0.2-0.3c0-0.1-0.1-0.1-0.1-0.2l0-0.1
			C26,6.3,25.7,6,25.5,5.8c-0.2-0.2-0.4-0.5-0.6-0.9c0.2,0.1,0.3,0.2,0.5,0.5c0.3,0.3,0.5,0.7,0.8,1V6.3c0,0,0-0.1,0-0.1v0
			c-0.2-0.4-0.5-0.9-0.8-1.3c-0.2-0.3-0.7-0.8-1-1.1c-0.1,0.3-0.2,1,0.1,1.5C24.9,5.8,25.6,6.6,26.3,7z"/>
		<path d="M38.1,8c-0.9,0-1.5,0.3-2,0.4c0.1,0,0.1,0,0.2,0.1c1-0.3,1.7-0.1,1.7-0.1c-0.3,0.1-1.1,0.2-1.6,0.2
			c0,0,0.1,0.1,0.1,0.1c0.4,0,1,0.1,1.7-0.1C38.9,8.5,39.5,8,39.5,8C39.3,8,38.8,7.9,38.1,8z"/>
		<polygon points="36.4,8.5 36.4,8.5 36.4,8.5 		"/>
		<path d="M36,7.8c0.1,0,0.2,0,0.3,0.1c0.4-0.2,0.6-0.2,1-0.3c0.3-0.1,0.5-0.1,0.7-0.1c0,0-0.3,0.2-0.7,0.3
			c-0.4,0.1-0.6,0.1-1,0.2c0,0,0,0.3-0.3,0.4c0.6-0.3,1.8-0.4,2.5-0.7c0.9-0.4,1-0.8,1-0.8c-0.8,0-1.4,0.2-1.9,0.3
			C37.1,7.3,36.3,7.6,36,7.8z"/>
		<path d="M36.6,6.8l-0.1,0.3c0.3-0.3,0.7-0.5,0.9-0.7c0.2-0.1,0.5-0.3,0.7-0.4c0,0-0.2,0.3-0.4,0.5
			C37.5,6.7,37.2,6.9,37,7c-0.2,0.1-0.3,0.1-0.6,0.3c0,0-0.1,0.1-0.1,0.2c1-0.2,2-0.9,2.4-1.4C39,5.7,38.9,5,38.9,5
			c-0.3,0.1-1,0.7-1.2,0.8C37.5,6,37,6.5,36.6,6.8z"/>
		<path d="M35.8,7.1C35.9,7.1,36,7,36,7l0.1,0c0.7-0.4,1.4-1.2,1.7-1.7C38.1,4.7,38,4,37.9,3.7c-0.3,0.3-0.8,0.8-1,1.1
			c-0.2,0.4-0.6,0.9-0.8,1.3v0c0,0,0,0.1,0,0.1l0,0.1c0.2-0.3,0.5-0.7,0.8-1c0.2-0.2,0.3-0.4,0.5-0.5c-0.1,0.4-0.4,0.8-0.6,0.9
			c-0.2,0.2-0.4,0.4-0.7,0.6l0,0.1c0,0.1,0,0.2-0.1,0.2C36,6.9,35.9,7,35.8,7.1z"/>
		<path d="M27.4,10.5C27.4,10.5,27.4,10.5,27.4,10.5c0-0.1-0.1-0.1-0.2-0.1h0c-0.3,0.3-0.9,1-0.9,1.7
			c0,0,0.6-0.2,0.8-0.6c0.2-0.4,0.4-0.7,0.5-0.8c-0.1,0-0.1,0-0.2,0l0,0c-0.1,0.3-0.4,0.7-0.7,0.9C26.7,11.6,26.6,11.3,27.4,10.5z"
			/>
		<path d="M34.1,7.6c-0.1,0.1-0.3,0.3-0.2,0.6c0.1,0.3,0.4,0.7,0.2,0.9c-0.1,0.2-0.6,0.2-1,0.1c0,0-0.1,0.3-0.2,0.4
			c0,0,0.1,0.1,0.3,0.1c0,0-0.1,0.2,0,0.4c0,0,0.3,0,0.4-0.3c0,0,0.1,0.2,0.3,0.3c0,0,0.2-0.1,0.1-0.4c0,0,0.1,0.3,0.5,0.4
			c0,0,0.2-0.3-0.1-0.7c0,0,0.2,0.2,0.6,0.1c0,0,0.1-0.2-0.3-0.5c0,0,0.4,0,0.6-0.4c0,0-0.2-0.2-0.6-0.2c0,0,0.4-0.1,0.5-0.6
			c0,0-0.3-0.2-0.7,0.1c0,0,0.1-0.1,0.3-0.3c0.2-0.1,0.4-0.6,0.3-1.2C35,6.8,34.8,7.1,34.1,7.6z"/>
		<path d="M33.2,11.4c-0.1,0.6,0.1,0.8,0.1,0.8c0.3-0.4,0.3-0.7,0.4-1.3c0,0.1-0.1,0.2-0.1,0.2
			c-0.1,0.6-0.2,0.6-0.2,0.6c0-0.2,0-0.5,0-0.5C33.3,11.4,33.2,11.4,33.2,11.4z"/>
		<path d="M33.7,11c0.1,1.3,0.3,1.4,0.3,1.4c0.3-0.3,0.2-1.1,0.2-1.5c0,0.1-0.1,0.2-0.1,0.2c0.1,0.6,0,0.7,0,0.7
			c-0.1-0.3-0.1-0.7-0.1-0.7C33.9,11.1,33.8,11,33.7,11z"/>
		<path d="M34.4,10.6C34.4,10.6,34.4,10.6,34.4,10.6c-0.1-0.1-0.1-0.1-0.1-0.1c0,0,0,0.1,0,0.1c0,0.5,0.1,1.1,0.2,1.3
			c0.2,0.3,0.4,0.4,0.4,0.4c0.3-0.5,0-1.2-0.3-1.6c0,0-0.1,0-0.1,0c0.1,0.3,0.3,0.8,0.2,1.1C34.5,11.5,34.4,10.6,34.4,10.6z"/>
		<path d="M35.6,10c-0.1,0-0.2,0.1-0.3,0c0,0,0,0,0,0c0,0,0.1,0.1,0.1,0.1c0.2,0.1,0.8,0.4,1.1,0.9c0,0-0.4-0.1-1-0.8h0
			c0,0.1,0,0.1,0,0.1c0,0,0,0,0,0c0.2,0.2,0.4,0.4,0.7,0.9c0.3,0.5,0.9,0.5,0.9,0.5c0-0.4-0.1-0.7-0.4-1
			C36.3,10.5,35.9,10.2,35.6,10z"/>
		<path d="M37.1,10.2c-0.3-0.1-1.1-0.4-1.3-0.5c0,0,0,0,0,0l0,0c0.3,0.1,0.5,0.2,0.8,0.4c0.3,0.2,0.4,0.4,0.4,0.4
			c-0.6-0.2-1.2-0.8-1.2-0.8c0,0,0,0,0,0c0.2,0.2,0.7,0.7,1.2,1.1c0.4,0.4,1,0.3,1,0.3C37.7,10.7,37.4,10.3,37.1,10.2z"/>
		<path d="M37.5,9.6c-0.3-0.1-0.9-0.2-1.2-0.2c0,0,0,0,0,0.1v0c0.2,0.1,0.5,0.2,0.8,0.3c0.2,0.1,0.5,0.3,0.5,0.3
			c-0.5,0-0.9-0.2-1.3-0.4c0,0-0.1,0.1-0.3,0.1c0.2,0,0.4,0.1,1.3,0.5c0.9,0.4,1.3,0.3,1.3,0.3C38.3,9.9,37.8,9.7,37.5,9.6z"/>
		<path d="M36.6,8.8c0,0,0,0-0.1,0.1c0.3,0,1,0.1,1.3,0.2c0,0-0.6,0.1-1.5-0.2C36.2,9,36.1,9,36,9c0,0,0.1,0.1,0.2,0.2
			c0.3,0.1,0.8,0.2,1.7,0.2c0.9,0.1,1.3-0.1,1.3-0.1c-0.3-0.2-0.8-0.4-1.1-0.4C37.8,8.9,36.9,8.9,36.6,8.8z"/>
		<path d="M33.6,9.9c0,0.1-0.2,0.2-0.3,0.4c-0.1,0.2-0.1,0.4-0.1,0.5c0,0.1-0.1,0.4-0.2,0.5c0,0,0.2,0,0.4-0.2
			c0.2-0.2,0.2-0.4,0.2-0.6C33.7,10.4,33.7,10.2,33.6,9.9L33.6,9.9C33.6,10,33.6,10,33.6,9.9z"/>
		<path d="M34,10C34,10.1,33.9,10.1,34,10l-0.1,0.1l0,0c0,0,0,0-0.1,0c0,0.1,0,0.1-0.1,0.2c0,0.1,0,0.3,0,0.4
			c0,0.2,0.1,0.3,0.2,0.3c0,0,0.2-0.2,0.2-0.3c0-0.1,0.1-0.3,0-0.5C34.1,10.2,34.1,10.1,34,10z"/>
		<path d="M34.6,10.1c-0.2,0-0.3-0.1-0.4-0.1c0,0.1,0,0.1,0,0.2c0,0.1,0.1,0.2,0.2,0.3c0.2,0.1,0.4,0.2,0.6,0.2
			C35,10.7,35,10.5,34.6,10.1L34.6,10.1z"/>
		<path d="M34.6,10c0.1,0.1,0.3,0.4,0.7,0.4c0,0,0.1-0.2-0.2-0.4c-0.2-0.1-0.3-0.1-0.4-0.2C34.7,9.9,34.7,10,34.6,10z"
			/>
		<path d="M34.7,9.5c0,0,0,0.1,0,0.1c0.1,0.2,0.4,0.3,0.6,0.3c0.3,0,0.4-0.2,0.4-0.2c-0.1-0.2-0.3-0.2-0.6-0.4l0,0l0,0
			C35,9.5,34.8,9.5,34.7,9.5z"/>
		<path d="M35.2,9.2c0.1,0.2,0.3,0.3,0.6,0.3c0.3,0.1,0.5-0.1,0.5-0.1C36.1,9.1,35.9,9,35.6,9c-0.2,0-0.4,0-0.6,0
			C35.1,9.1,35.1,9.2,35.2,9.2z"/>
		<path d="M36,9c0.3,0,0.5-0.2,0.5-0.2c0-0.1-0.1-0.2-0.3-0.3c-0.2-0.1-0.5,0-0.7,0l0,0c0,0.1-0.1,0.2-0.2,0.2
			C35.4,8.9,35.7,9,36,9z"/>
		<path d="M35.2,8.3L35.2,8.3c0.1,0,0.3,0.1,0.6,0c0.4-0.1,0.4-0.4,0.4-0.4c-0.2-0.1-0.4-0.1-0.5-0.1
			c-0.1,0-0.3,0-0.5,0c0,0.2-0.1,0.3-0.2,0.4C35.1,8.3,35.2,8.3,35.2,8.3z"/>
		<path d="M36.1,7.6c0.2-0.2,0.4-0.6,0.4-0.6c-0.2,0-0.5,0.2-0.8,0.3c-0.2,0.1-0.5,0.3-0.6,0.4c0.1,0,0.2,0.1,0.2,0.1
			l0,0C35.7,7.8,35.9,7.8,36.1,7.6z"/>
		<path d="M36,6.7c0.2-0.4,0.1-0.8,0.1-0.8c-0.4,0.1-0.6,0.5-0.7,0.5c-0.1,0.1-0.2,0.5-0.2,0.6c0,0.2-0.1,0.3-0.2,0.5
			C35.4,7.4,35.8,7,36,6.7z"/>
		<path d="M32.8,9.7C32.8,9.6,32.8,9.6,32.8,9.7L32.8,9.7c-0.1,0-0.1,0.1-0.2,0.1c0,0-0.1,0.2,0,0.5
			c0.2,0.3,0.3,0.6,0.3,0.8c0,0,0.1,0,0.2-0.5c0.1-0.3,0.1-0.4,0.2-0.5c-0.1,0-0.2,0.1-0.2,0.1h-0.1l0,0C33,10,33,9.9,33,9.8
			c0,0,0,0,0-0.1C32.9,9.8,32.8,9.7,32.8,9.7z"/>
		<path d="M35.2,10.5L35.2,10.5c-0.1,0-0.2,0-0.2,0c0,0,0,0.1,0,0.1c0.8,0.7,0.7,1.1,0.7,1.1c-0.3-0.2-0.5-0.6-0.7-0.9
			l0,0c-0.1,0-0.1,0-0.2,0c0.1,0.1,0.2,0.4,0.5,0.8c0.2,0.4,0.8,0.6,0.8,0.6C36.2,11.4,35.5,10.8,35.2,10.5z"/>
		<ellipse cx="31.2" cy="4.7" rx="0.5" ry="0.1"/>
		<path d="M29.2,5.2c0,0,0.1,0,0.3,0c0.2,0,0.3,0,0.3,0c0,0-0.1,0-0.3,0C29.3,5.2,29.2,5.2,29.2,5.2z"/>
		<circle cx="31.2" cy="4.9" r="0.1"/>
		<path d="M30.9,4.6c0-0.2-0.1-0.7-0.2-0.8c0,0-0.1,0-0.2,0c0,0-0.1,0-0.1,0.1c0,0.1,0.1,0.3,0.2,0.7
			C30.8,4.6,30.9,4.6,30.9,4.6z"/>
		<path d="M31,4.5c0,0,0.1,0,0.1,0C31.1,4.3,31,4,31,3.9c0-0.1-0.1-0.2-0.2-0.2c0,0,0.1,0.2,0.1,0.4
			C30.9,4.2,31,4.4,31,4.5z"/>
		<path d="M30.8,5.2C30.9,5.1,31,5,31,4.9c-0.1,0-0.3,0-0.5,0.1c-0.1,0.1-0.2,0.2-0.2,0.3C30.3,5.3,30.5,5.3,30.8,5.2z
			 M30.9,5c0,0-0.2,0.2-0.3,0.2C30.5,5.2,30.6,5,30.9,5z"/>
		<path d="M29.6,6c0,0,0-0.1,0-0.1C29.7,6,30,6.1,30,6.1c0-0.1,0-0.1,0-0.1C30.1,6,30.2,6,30.2,6c0-0.1-0.1-0.2-0.1-0.2
			c0.1,0.1,0.2,0.1,0.2,0.1c0,0,0-0.2,0-0.2c0,0,0.1,0.2,0.4,0.2C30.9,6,31,5.9,31,5.9c-0.2,0-0.4-0.2-0.4-0.2
			c0.1,0,0.2-0.1,0.2-0.1c-0.1-0.1-0.1-0.1-0.1-0.1c0.1-0.1,0.2-0.2,0.2-0.2c-0.2,0.1-0.7,0.1-1,0.1c-0.3,0-0.6-0.1-0.6-0.1
			C29.2,5.9,29.6,6,29.6,6z M29.9,5.5L29.9,5.5c0,0-0.4,0-0.4,0.2c-0.1,0-0.1-0.1-0.1-0.2C29.4,5.5,29.7,5.6,29.9,5.5z"/>
		<path d="M29,5.5c0,0.1,0.2,0.2,0.2,0.2c0-0.1-0.1-0.2-0.1-0.4C28.9,5.3,28.9,5.4,29,5.5z"/>
		<path d="M28.8,5.5c-0.1,0-0.3,0-0.4,0.1c-0.1,0.1,0,0.4,0.1,0.5c0,0,0.3-0.2,0.6,0c0,0,0.1,0,0.2-0.1
			c0,0-0.1-0.1-0.2-0.2C29.1,5.7,28.8,5.7,28.8,5.5z M28.7,5.9C28.7,5.9,28.7,5.8,28.7,5.9c-0.1-0.1,0-0.1,0-0.1
			C28.8,5.7,28.8,5.8,28.7,5.9C28.8,5.8,28.8,5.9,28.7,5.9z"/>
		<path d="M29.6,6.2C29.5,6.2,29.4,6,29.4,6c-0.1,0-0.3,0-0.4,0.2c-0.1,0.2,0,0.4,0,0.4C29.2,6.2,29.6,6.2,29.6,6.2z"/>
		<path d="M30.5,6.5c-0.1-0.1-0.3-0.4-0.3-0.4c0,0-0.1,0-0.1,0c0,0,0,0.1,0,0.1c0,0-0.2-0.1-0.2-0.1
			c0.2,0.1,0.2,0.2,0.3,0.2c0.1,0.1,0.2,0.3,0.2,0.3C30.5,6.6,30.5,6.5,30.5,6.5z"/>
		<polygon points="29.9,6.1 29.9,6.1 29.9,6.1 		"/>
		<path d="M30.1,6.6c0-0.2-0.1-0.3-0.2-0.4C29.8,6.1,29.6,6,29.5,6c0.1,0.1,0.3,0.3,0.4,0.3C30,6.5,30.1,6.6,30.1,6.6z"
			/>
		<path d="M29.7,4.7c0-0.1-0.1-0.1-0.1-0.1h0h0c0,0-0.1,0-0.1,0.1c0,0.1,0.1,0.2,0.1,0.3h0C29.5,4.9,29.7,4.7,29.7,4.7z
			"/>
		<path d="M29.3,5.1c0,0,0,0,0.1,0v0c0-0.1-0.1-0.3-0.1-0.4c-0.1,0-0.1-0.1-0.2,0c0,0-0.1,0-0.1,0.1
			C29.1,4.8,29.3,5.1,29.3,5.1z"/>
		<path d="M29.6,5.1L29.6,5.1c0.1,0,0.1,0,0.1,0c0,0,0.2-0.3,0.2-0.4c0-0.1,0-0.1-0.1-0.1c0,0-0.1,0-0.2,0
			C29.7,4.8,29.6,5,29.6,5.1z"/>
		<polygon points="29.5,4.5 29.6,4.5 29.6,4.4 29.7,4.4 29.7,4.3 29.6,4.3 29.6,4.1 29.5,4.1 29.5,4.3 29.3,4.3
			29.3,4.4 29.5,4.4 		"/>
		<path d="M28,5.3C28,5.2,28,5.2,28,5.3C28,5.1,28,5,28,5c-0.1,0-0.2,0.1-0.3,0.3C27.7,5.3,27.9,5.1,28,5.3z"/>
		<path d="M28.1,5.2c0,0.1,0,0.3,0.1,0.4c0-0.1,0-0.2,0.1-0.4c0-0.2,0-0.4,0-0.5c-0.1-0.1-0.1-0.3-0.1-0.4
			c0,0-0.1,0-0.2,0.1c0,0.2,0.1,0.3,0.1,0.4C28.1,5,28.1,5.1,28.1,5.2z"/>
		<path d="M28.3,4.4c0.1,0,0.2-0.1,0.3-0.2c0.1-0.1,0.2-0.1,0.2-0.1c0,0-0.1-0.1-0.2,0c-0.2,0-0.4,0.2-0.4,0.2
			c0,0,0,0.1,0,0.1C28.2,4.4,28.2,4.4,28.3,4.4z"/>
		<path d="M28.8,4.3c0,0.1-0.1,0.2-0.2,0.3c0,0.1-0.1,0.2-0.1,0.3c0,0.2,0.3,0.2,0.3,0.2c0,0-0.1-0.1-0.1-0.2
			c0-0.1,0-0.2,0.1-0.3c0-0.1,0.1-0.3,0.1-0.3c0-0.1-0.1-0.1-0.1-0.2v0C28.8,4.2,28.8,4.3,28.8,4.3z"/>
		<path d="M30.3,6c0,0.2,0.1,0.4,0.2,0.5c0.1,0.1,0.1,0.3,0.1,0.4c0,0,0.1-0.3,0-0.4C30.7,6.3,30.6,6,30.3,6z"/>
		<path d="M30.9,6.1C30.8,6,30.6,6,30.6,6c0,0.1,0.2,0.3,0.2,0.3s0.3,0.1,0.3,0.1C31.1,6.3,31,6.1,30.9,6.1z"/>
		<path d="M29.8,6.5c0.1,0.1,0.1,0.1,0.1,0.3c0,0.2,0.1,0.4,0.2,0.5h0c0-0.1,0.1-0.4,0.1-0.4c0,0-0.1-0.1-0.2-0.2
			c0,0-0.1-0.1-0.3-0.3c0,0-0.1,0-0.2,0C29.5,6.4,29.7,6.4,29.8,6.5z"/>
		<path d="M30.6,7.2c0.1-0.2-0.1-0.4-0.1-0.5c-0.1,0.1-0.2,0.2-0.2,0.4c0,0.2,0,0.5,0,0.5C30.4,7.5,30.5,7.4,30.6,7.2z"
			/>
		<path d="M30.6,7.3c0,0.1,0,0.3,0,0.3c0,0.1,0.1,0.2,0.1,0.2c0.1-0.2,0.2-0.3,0.2-0.3C31,7.5,31.1,7.4,31,7.2
			c0-0.1-0.2-0.5-0.2-0.5C30.7,7,30.6,7.3,30.6,7.3z"/>
		<path d="M30.6,8.2c0,0.1-0.1,0.2,0,0.3c0.1,0.1,0.2,0.2,0.3,0.3c0,0-0.1-0.2-0.1-0.4c0-0.1,0.1-0.2,0.1-0.3
			c0-0.1,0-0.2,0-0.3C30.9,7.9,30.7,8.1,30.6,8.2z"/>
		<path d="M30.2,8.5c0,0.1,0.1,0.3,0.1,0.3c0-0.1,0.2-0.3,0.2-0.5c0.1-0.1,0.1-0.2,0.1-0.3c0-0.1-0.1-0.2-0.1-0.2
			c0,0.1-0.1,0.3-0.1,0.5C30.3,8.3,30.2,8.5,30.2,8.5z"/>
		<path d="M29.6,8.8c0.1,0,0.3-0.1,0.5-0.3c0.3-0.4,0.3-0.9,0.3-0.9c-0.3,0.5-0.6,0.7-0.8,0.7c-0.2,0-0.3-0.3-0.3-0.3
			c-0.1,0.1-0.1,0.3-0.1,0.5C29.3,8.7,29.5,8.8,29.6,8.8z"/>
		<path d="M30,8.1c0.1-0.1,0.2-0.2,0.2-0.3c0-0.1,0-0.3,0-0.3C30,8,29.6,7.9,29.6,7.9C29.7,8.1,29.9,8.1,30,8.1z"/>
		<path d="M30.7,10c0,0.2,0.3,0.4,0.3,0.4c0-0.1,0.2-0.3,0.2-0.6c0-0.1-0.2-0.3-0.3-0.4C30.7,9.6,30.7,9.9,30.7,10z"/>
		<path d="M30.3,9.1c0,0.2,0.2,0.3,0.3,0.5c0-0.1,0.1-0.3,0.2-0.4c0,0,0.1-0.4-0.3-0.6C30.5,8.6,30.4,8.9,30.3,9.1z"/>
		<path d="M29.8,8.9c0,0,0,0.2,0,0.3c0,0.2,0.1,0.3,0.2,0.5c0,0,0.2-0.2,0.2-0.4c0-0.1,0-0.3,0-0.3c0,0-0.1-0.2-0.2-0.3
			C30,8.7,29.9,8.8,29.8,8.9z"/>
		<path d="M29.7,9.3c0-0.1,0-0.4,0-0.4c-0.2,0.1-0.4,0-0.4,0c0,0.2,0.2,0.5,0.2,0.6C29.7,9.4,29.7,9.4,29.7,9.3z"/>
		<path d="M29.6,9.5c0.1,0.1,0.1,0.1,0.2,0.1c0.1,0,0.1,0,0.1,0c0-0.1-0.2-0.3-0.2-0.3C29.8,9.4,29.7,9.5,29.6,9.5z"/>
		<polygon points="30.3,9.4 30.3,9.4 30.3,9.4 		"/>
		<path d="M30,9.8c0,0,0,0.1,0.1,0.3c0.1,0.2,0.2,0.3,0.3,0.3c0,0,0.1-0.2,0.2-0.3c0-0.1,0-0.2,0-0.3
			c0-0.1-0.2-0.2-0.3-0.4C30.3,9.4,30,9.8,30,9.8z"/>
		<path d="M30.4,10.5c0,0.1-0.1,0.2,0,0.3c0,0.1,0.2,0.3,0.2,0.3c0.1-0.1,0.1-0.2,0.2-0.3c0-0.1,0-0.1,0-0.2
			c0-0.1-0.2-0.3-0.2-0.4v0C30.6,10.3,30.5,10.4,30.4,10.5z"/>
		<path d="M30.1,11.1c0-0.1,0.1-0.1,0.1-0.3c0.1-0.1,0-0.2,0-0.3c0-0.1-0.1-0.2-0.2-0.3h0c0,0.1-0.1,0.2-0.1,0.3
			c0,0.1,0,0.2,0,0.3C29.9,10.9,30.1,11.1,30.1,11.1z"/>
		<path d="M31.1,11.4c0-0.1,0-0.2-0.2-0.4h0c0,0-0.3,0.3-0.3,0.5c0,0.2,0.2,0.4,0.2,0.5c0,0,0.1-0.2,0.2-0.3
			C31,11.6,31.1,11.5,31.1,11.4z"/>
		<path d="M30.1,11.5c0,0.1,0.1,0.3,0.1,0.3c0-0.1,0.2-0.3,0.2-0.4c0-0.1-0.1-0.4-0.1-0.4
			C30.1,11.2,30.1,11.3,30.1,11.5z"/>
		<path d="M32.6,5.2c0,0,0.1,0,0.3,0c0.2,0,0.3,0,0.3,0c0,0-0.1,0-0.3,0S32.6,5.2,32.6,5.2z"/>
		<path d="M31.4,3.8c0-0.1-0.1-0.2-0.2-0.2c-0.1,0-0.2,0.1-0.2,0.2c0,0.1,0.2,0.4,0.2,0.5h0C31.2,4.2,31.4,3.9,31.4,3.8
			z"/>
		<path d="M31.7,4.6C31.9,4.3,32,4,31.9,3.9c0-0.1-0.1-0.1-0.1-0.1c-0.1,0-0.1,0-0.1,0c-0.1,0.1-0.1,0.5-0.2,0.8
			C31.6,4.6,31.6,4.6,31.7,4.6z"/>
		<path d="M31.4,4.5c0-0.2,0-0.3,0.1-0.5c0-0.2,0.1-0.4,0.1-0.4c-0.1,0-0.1,0.1-0.2,0.2c0,0.1-0.1,0.4-0.1,0.6
			C31.3,4.5,31.4,4.5,31.4,4.5z"/>
		<path d="M31.4,4.9c0,0.1,0.1,0.2,0.2,0.3c0.2,0.1,0.5,0.1,0.5,0.1c0-0.1-0.1-0.2-0.2-0.3C31.8,4.9,31.5,4.9,31.4,4.9z
			 M31.6,5c0.3,0,0.3,0.2,0.3,0.2C31.7,5.1,31.6,5,31.6,5z"/>
		<path d="M31.4,5.9c0,0,0.1,0.1,0.4,0.1c0.2,0,0.3-0.2,0.3-0.2c0,0,0,0.1,0,0.2c0,0,0.1,0,0.2-0.1c0,0-0.1,0.1-0.1,0.2
			c0,0,0.1,0,0.2-0.1c0,0,0,0.1,0,0.1c0,0,0.3-0.1,0.4-0.2c0,0,0,0.1,0,0.1c0,0,0.4,0,0.5-0.7c0,0-0.3,0.1-0.6,0.1
			c-0.3,0-0.8,0-1-0.1c0,0,0,0.1,0.2,0.2c0,0-0.1,0-0.1,0.1c0,0,0,0.1,0.2,0.1C31.9,5.7,31.7,5.9,31.4,5.9z M32.5,5.5
			c0.2,0,0.5,0,0.5,0c0,0.1,0,0.1-0.1,0.2C32.9,5.5,32.5,5.5,32.5,5.5L32.5,5.5z"/>
		<path d="M33.2,5.7c0,0,0.2-0.1,0.2-0.2c0-0.1,0-0.2-0.1-0.1C33.3,5.5,33.3,5.6,33.2,5.7z"/>
		<path d="M33.9,6c0.2-0.1,0.2-0.3,0.1-0.5c-0.1-0.1-0.3-0.1-0.4-0.1c-0.1,0.2-0.3,0.2-0.4,0.3C33.1,5.8,33,6,33,6
			C33.2,6,33.3,6,33.3,6C33.6,5.8,33.9,6,33.9,6z M33.7,5.7C33.7,5.7,33.8,5.8,33.7,5.7c0.1,0.1,0,0.1,0,0.1
			C33.6,5.9,33.6,5.8,33.7,5.7C33.6,5.8,33.6,5.7,33.7,5.7z"/>
		<path d="M33.4,6.6c0,0,0.2-0.2,0-0.4C33.3,6.1,33.2,6,33,6c0,0-0.1,0.1-0.2,0.2C32.8,6.2,33.2,6.2,33.4,6.6z"/>
		<polygon points="32.5,6.1 32.5,6.1 32.5,6.1 		"/>
		<path d="M32.2,6.1c0,0-0.1,0.3-0.2,0.4c0,0,0,0.1,0,0.2c0,0,0.1-0.2,0.2-0.3c0.1-0.1,0.1-0.1,0.3-0.2
			c0,0-0.1,0-0.2,0.1c0,0,0-0.1,0-0.1C32.3,6,32.2,6.1,32.2,6.1z"/>
		<path d="M32.9,6c0,0-0.3,0.1-0.4,0.2c-0.1,0.1-0.2,0.2-0.2,0.4c0,0,0.1-0.1,0.2-0.2C32.6,6.3,32.8,6.2,32.9,6L32.9,6z
			"/>
		<path d="M32.9,4.6L32.9,4.6L32.9,4.6c-0.1,0-0.1,0-0.1,0.1c0,0.1,0.1,0.2,0.1,0.3c0-0.1,0.1-0.2,0.1-0.3
			C33,4.6,33,4.6,32.9,4.6z"/>
		<path d="M33,5.1L33,5.1c0.1,0,0.1,0,0.1,0c0,0,0.2-0.3,0.2-0.4c0-0.1,0-0.1-0.1-0.1c0,0-0.1,0-0.2,0
			C33,4.8,33,5,33,5.1z"/>
		<path d="M32.7,5.1c0,0,0,0,0.1,0v0c0-0.1,0-0.3-0.1-0.4c0,0-0.1-0.1-0.2,0c0,0-0.1,0-0.1,0.1
			C32.5,4.8,32.7,5.1,32.7,5.1z"/>
		<polygon points="32.9,4.5 33,4.5 33,4.4 33.1,4.4 33.1,4.3 33,4.3 33,4.1 32.9,4.1 32.9,4.3 32.7,4.3 32.7,4.4
			32.9,4.4 		"/>
		<polygon points="31.1,3.6 31.2,3.6 31.2,3.4 31.4,3.4 31.4,3.3 31.2,3.3 31.2,3.1 31.1,3.1 31.1,3.3 31,3.3 31,3.4
			31.1,3.4 		"/>
		<path d="M34.4,5.2C34.5,5.2,34.5,5.2,34.4,5.2c0.1,0,0.3,0.1,0.3,0.1C34.6,5,34.5,5,34.4,5C34.4,5,34.4,5.1,34.4,5.2z
			"/>
		<path d="M34.2,4.8c-0.1,0.1-0.1,0.4,0,0.5c0,0.1,0.1,0.3,0.1,0.4c0.1-0.1,0.1-0.3,0.1-0.4c0-0.1,0-0.2,0-0.3
			c0-0.1,0.1-0.2,0.1-0.4c-0.1,0-0.2-0.1-0.2-0.1C34.3,4.5,34.3,4.6,34.2,4.8z"/>
		<path d="M34.1,4.4c0.1,0,0.1,0,0.1,0c0,0,0-0.1,0-0.1c0,0-0.2-0.2-0.4-0.2c-0.1,0-0.2,0-0.2,0c0,0,0.1,0,0.1,0.1
			C33.9,4.3,34,4.4,34.1,4.4z"/>
		<path d="M33.7,5c0,0.1,0,0.1-0.1,0.2c0,0,0.2-0.1,0.3-0.2c0-0.1,0-0.2-0.1-0.3c0-0.1-0.2-0.2-0.2-0.3
			c0-0.1,0-0.1,0-0.2v0c-0.1,0.1-0.1,0.2-0.1,0.2c0,0.1,0.1,0.3,0.1,0.3C33.6,4.8,33.7,4.9,33.7,5z"/>
		<path d="M31.7,6.4c-0.1,0.2,0.1,0.4,0.1,0.4c0-0.1,0-0.3,0.1-0.4C32,6.3,32.1,6.1,32.1,6C31.9,6,31.7,6.3,31.7,6.4z"
			/>
		<path d="M31.6,6.4c0.1-0.1,0.2-0.2,0.2-0.3c0,0-0.2,0-0.3,0.1c-0.1,0.1-0.2,0.2-0.2,0.4C31.3,6.5,31.5,6.5,31.6,6.4z"
			/>
		<path d="M32.7,6.3c-0.2,0.1-0.3,0.2-0.3,0.3c0,0.1-0.2,0.2-0.2,0.2c0,0,0.1,0.3,0.1,0.4h0c0-0.1,0.1-0.3,0.2-0.5
			c0-0.1,0.1-0.2,0.1-0.3c0.1-0.1,0.2-0.1,0.2-0.1C32.8,6.4,32.8,6.3,32.7,6.3z"/>
		<path d="M31.9,6.8c0,0.1-0.2,0.3-0.1,0.5c0.1,0.2,0.2,0.3,0.3,0.4c0,0,0-0.3,0-0.5C32.1,6.9,32,6.8,31.9,6.8z"/>
		<path d="M31.2,6.5c0,0-0.2,0.1-0.2,0.3c0,0.1,0.2,0.4,0.2,0.5h0c0-0.1,0.3-0.4,0.2-0.5C31.5,6.6,31.3,6.5,31.2,6.5z"
			/>
		<polygon points="31.6,6.8 31.6,6.8 31.6,6.8 		"/>
		<path d="M31.4,7.5c0.1,0.1,0.2,0.2,0.3,0.3c0,0,0.1-0.1,0.1-0.2c0-0.1,0-0.3,0-0.3c0-0.1-0.1-0.3-0.2-0.6
			c0,0-0.2,0.3-0.2,0.5C31.4,7.4,31.4,7.5,31.4,7.5z"/>
		<path d="M31.2,8.1c0.1-0.1,0.2-0.2,0.2-0.2c0-0.1,0-0.2,0-0.2c-0.1-0.1-0.1-0.2-0.2-0.2c0,0.1-0.1,0.2-0.1,0.2
			c0,0.1,0,0.2,0,0.2C31.1,7.9,31.1,8,31.2,8.1z"/>
		<path d="M31.5,7.9c0,0.1-0.1,0.2,0,0.3c0,0.1,0.1,0.2,0.1,0.3c0,0.2-0.1,0.4-0.1,0.4c0.1-0.1,0.3-0.2,0.3-0.3
			c0.1-0.1,0-0.2,0-0.3C31.8,8.1,31.5,7.9,31.5,7.9z"/>
		<path d="M31.9,7.7c0,0-0.1,0.1-0.1,0.2c0,0.1,0,0.2,0.1,0.3c0.1,0.2,0.2,0.4,0.2,0.5c0,0,0.1-0.1,0.1-0.3
			c0,0-0.1-0.2-0.2-0.4C32,8,31.9,7.9,31.9,7.7z"/>
		<path d="M33.2,8.5c0-0.2,0-0.4-0.1-0.5c0,0-0.1,0.3-0.3,0.3c-0.2,0-0.5-0.2-0.8-0.7c0,0,0.1,0.5,0.4,0.9
			c0.2,0.2,0.3,0.3,0.4,0.3C32.9,8.8,33.1,8.7,33.2,8.5z"/>
		<path d="M32.2,7.4c0,0.1,0,0.2,0,0.3c0,0.1,0.1,0.2,0.2,0.3c0.1,0.1,0.3,0.1,0.4-0.1C32.8,7.9,32.4,8,32.2,7.4z"/>
		<path d="M31,8.7c0.1,0.1,0.1,0.1,0.2,0.1c0.1,0,0.1,0,0.2-0.1c0-0.1,0.1-0.2,0.1-0.3c0-0.1-0.1-0.2-0.1-0.3
			c0,0-0.1,0.1-0.1,0.1c0,0-0.1,0-0.1-0.1c0,0.1-0.1,0.1-0.1,0.3C30.9,8.5,31,8.6,31,8.7z"/>
		<path d="M31.2,8.9C31.1,9,31,9,30.9,9.2c0,0.1,0.2,0.4,0.3,0.5c0-0.1,0.3-0.4,0.3-0.5C31.4,9,31.3,9,31.2,8.9z"/>
		<path d="M31.3,9.9c0,0.3,0.1,0.5,0.2,0.6c0,0,0.2-0.2,0.3-0.4c0-0.1,0-0.5-0.2-0.6C31.5,9.6,31.3,9.7,31.3,9.9z"/>
		<path d="M31.9,8.6c-0.4,0.2-0.3,0.6-0.3,0.6c0.1,0.1,0.2,0.3,0.2,0.4c0.1-0.2,0.3-0.3,0.3-0.5
			C32.1,8.9,31.9,8.6,31.9,8.6z"/>
		<path d="M32.3,8.6c-0.1,0.1-0.2,0.3-0.2,0.3c0,0.1,0,0.2,0,0.3c0,0.1,0.2,0.4,0.2,0.4c0-0.1,0.1-0.3,0.2-0.5
			c0-0.1,0-0.3,0-0.3C32.5,8.8,32.4,8.7,32.3,8.6z"/>
		<path d="M32.7,8.9c0,0,0,0.3,0,0.4c0,0.1,0.1,0.1,0.1,0.2c0-0.1,0.2-0.4,0.2-0.6C33,8.9,32.8,9,32.7,8.9z"/>
		<path d="M32.8,9.5c0,0-0.1-0.1-0.1-0.1c0,0-0.1,0.3-0.2,0.3c0,0,0.1,0,0.1,0C32.7,9.6,32.7,9.6,32.8,9.5z"/>
		<path d="M32.4,9.8c0,0-0.3-0.3-0.3-0.4c-0.1,0.1-0.2,0.3-0.3,0.4c0,0,0,0.2,0,0.3c0,0.1,0.2,0.3,0.2,0.3
			c0.1,0,0.2-0.2,0.3-0.3C32.4,9.9,32.4,9.8,32.4,9.8z"/>
		<path d="M31,10.6c0,0.1,0,0.2,0,0.3c0,0.1,0.2,0.2,0.2,0.3c0-0.1,0.2-0.2,0.2-0.3c0-0.1,0-0.2,0-0.3
			c0-0.1-0.2-0.3-0.2-0.3C31.2,10.3,31,10.5,31,10.6z"/>
		<path d="M31.6,10.8c0,0.1,0.1,0.2,0.2,0.3c0,0,0.2-0.2,0.2-0.3c0-0.1,0-0.3,0-0.3c0-0.1-0.2-0.2-0.2-0.3v0
			c0,0.1-0.2,0.3-0.2,0.4C31.6,10.7,31.6,10.8,31.6,10.8z"/>
		<path d="M32.4,10.2c0,0.1-0.2,0.2-0.2,0.3c0,0.1,0,0.2,0,0.3c0,0.1,0.1,0.2,0.1,0.3c0,0,0.2-0.2,0.2-0.3
			c0-0.1,0-0.2,0-0.3C32.5,10.4,32.4,10.2,32.4,10.2z"/>
		<path d="M31.5,12.1c0-0.2-0.1-0.4-0.2-0.5c-0.1,0.1-0.2,0.4-0.2,0.5c0,0.3,0.2,0.7,0.2,0.8
			C31.2,12.8,31.4,12.5,31.5,12.1z"/>
		<path d="M31.8,11.5c0-0.2-0.3-0.5-0.3-0.5c-0.1,0.1-0.2,0.2-0.2,0.4c0,0.1,0,0.3,0.1,0.4c0.1,0.1,0.2,0.3,0.2,0.3
			C31.7,11.9,31.8,11.8,31.8,11.5z"/>
		<path d="M32.1,11c0,0.1-0.2,0.3-0.1,0.4c0,0.1,0.2,0.3,0.2,0.4c0,0,0.1-0.2,0.1-0.3C32.3,11.3,32.3,11.2,32.1,11z"/>
		<path d="M31.2,13.6c0,0,0,0.1,0.1,0.1c0.2,0.2,0.3,0.1,0.4,0.1c0,0-0.3-0.1-0.3-0.4c0-0.3,0.2-0.4,0.2-0.6
			c0-0.2,0-0.3-0.1-0.5c-0.1,0.3-0.2,0.6-0.3,0.7c0,0,0,0,0,0c0,0,0,0,0,0c-0.1-0.2-0.2-0.4-0.3-0.7c-0.1,0.2-0.1,0.3-0.1,0.5
			c0,0.1,0.2,0.3,0.2,0.6c0,0.3-0.3,0.4-0.3,0.4c0.1,0,0.2,0.1,0.4-0.1C31.2,13.7,31.2,13.6,31.2,13.6z"/>
		<path d="M30.4,12.4c0.2-0.1,0.2-0.3,0.2-0.4c0-0.1-0.1-0.2-0.1-0.3c0,0.1-0.2,0.2-0.2,0.3c0,0.1-0.1,0.1,0,0.2
			C30.3,12.3,30.4,12.4,30.4,12.4z"/>
		<path d="M30.2,12.6c-0.2,0-0.2,0.2-0.2,0.2c0.1,0,0.1,0.1,0.2,0.1c0.2,0,0.3-0.1,0.5-0.4c0.1-0.1,0.1-0.4,0.1-0.5
			C30.7,12.3,30.4,12.5,30.2,12.6z"/>
		<path d="M29.6,12.8c0,0,0.2,0,0.3,0c0,0,0-0.2,0.2-0.3c0,0,0.1,0,0.2-0.1c0,0-0.1,0-0.1-0.1c0,0-0.2,0.1-0.3,0.1
			C29.8,12.6,29.7,12.7,29.6,12.8z"/>
		<path d="M29.5,12.5c0,0,0.2,0,0.4-0.1c0.2-0.1,0.3-0.1,0.3-0.2c0,0-0.1-0.1-0.1-0.3c0,0-0.3,0.2-0.3,0.2
			C29.7,12.3,29.5,12.5,29.5,12.5z"/>
		<path d="M29.1,13.1c0,0,0.2-0.1,0.3-0.2c0.1,0,0.2-0.2,0.3-0.3c-0.1,0.1-0.5,0.1-0.6,0.1c-0.1,0-0.2,0.1-0.4,0.2
			C28.8,13,29,13,29.1,13.1z"/>
		<path d="M28.6,13.2C28.6,13.2,28.6,13.2,28.6,13.2c0.1,0.1,0.3,0,0.4,0.1c0,0,0,0.1,0,0.1c0,0,0.1-0.1,0.2,0
			c0.1,0,0.1,0.1,0.2,0.2c0,0,0.1-0.1,0-0.1c0-0.1-0.1-0.1-0.2-0.2c-0.1,0-0.4-0.1-0.5-0.2C28.7,13,28.7,13.1,28.6,13.2z"/>
		<path d="M29.5,13.1c0,0,0.1-0.2,0.2-0.2c0,0-0.1,0-0.1,0c0,0-0.1,0-0.2,0.1c-0.1,0-0.2,0.1-0.3,0.1
			C29.2,13.1,29.3,13.1,29.5,13.1C29.4,13.2,29.5,13.2,29.5,13.1z"/>
		<path d="M29.5,13.3c0,0.2,0.1,0.2,0.1,0.3c0,0,0.2,0.1,0.4-0.2c0,0-0.2,0.1-0.3,0c0-0.1,0-0.3,0.1-0.3
			C29.9,13,30,13,30.1,13c0,0-0.1-0.1-0.1-0.1c0,0-0.1,0-0.1,0C29.8,12.9,29.6,13.1,29.5,13.3z"/>
		<path d="M28.1,15.1c0-0.1,0.1-0.3,0.1-0.4c0.1-0.3,0.4-1,1.1-1.1c0.1,0-0.1-0.2-0.1-0.2c-0.1,0-0.2,0.1-0.2,0.1
			c0,0,0-0.1,0-0.2c0,0,0,0,0,0c0,0-0.2,0-0.2,0c-0.1,0.2-0.4,0.6-0.5,1c-0.1,0.3-0.2,0.4-0.4,0.4c-0.1-0.1-0.2-0.2-0.5-0.2
			c-0.1,0-0.2,0.1-0.3,0.2c0,0,0,0.1,0.2,0.1c0.1,0,0.4,0,0.5,0.1C27.8,15.1,27.9,15.1,28.1,15.1L28.1,15.1z"/>
		<path d="M30.2,13.9c-0.2,0.1-0.2,0.3-0.2,0.3c0.7-0.1,0.9-1,0.9-1c-0.1-0.1-0.1-0.2-0.1-0.3c-0.1,0-0.2,0.1-0.2,0.2
			c-0.1,0.1-0.3,0.3-0.4,0.4c-0.2,0.1-0.2,0.3-0.2,0.3c0.3,0,0.6-0.4,0.7-0.5c0.1-0.1,0.2-0.1,0.2-0.1
			C30.7,13.5,30.4,13.7,30.2,13.9z"/>
		<path d="M30.8,16.5c0-0.1-0.1-0.2-0.3-0.4l-0.1,0.2l0.4,0.6l0.3-0.6L31,16C31,16.2,30.9,16.4,30.8,16.5z"/>
		<path d="M29.1,14.4l1.1,1.5l0.1-0.2h0c-0.4-0.6-1-1.3-1-1.4l0.2-0.1L28.9,14l0,0.6L29.1,14.4z"/>
		<path d="M26.9,12.9c0.2,0.2,0.5,0.3,0.6,0.2c0.1-0.1,0-0.3-0.2-0.5c-0.2-0.2-0.4-0.3-0.6-0.2
			C26.5,12.5,26.7,12.7,26.9,12.9z"/>
		<path d="M27.5,15c0-0.1-0.1-0.1-0.1-0.1c0,0-0.3,0-0.4-0.1h0l0,0c-0.1-0.1-0.2-0.3-0.2-0.4c0-0.3,0.3-0.6,0.6-0.6
			c0.3,0,0.6,0.3,0.6,0.6c0,0,0,0.1,0,0.1c0,0,0.1-0.3,0.1-0.3c-0.1-0.3-0.4-0.6-0.7-0.6c-0.3,0-0.6,0.2-0.7,0.4
			c0-0.3,0.2-0.6,0.3-0.7c0.1-0.1,0.3-0.2,0.3-0.2c-0.1,0-0.3-0.1-0.5-0.3c-0.2-0.2-0.3-0.3-0.3-0.5c0,0.2,0,0.3,0,0.4
			c-0.1,0.2-0.3,0.6-0.2,1c0,0.2,0.2,0.6,0.5,0.9c0.1,0.1,0.1,0.2,0.1,0.2C26.9,15.1,27.3,15.1,27.5,15C27.4,15.1,27.5,15.1,27.5,15
			z"/>
		<path d="M28.6,15.2c-0.2,0-0.3,0-0.5,0c0,0,0,0.1,0,0.1c0,0,0,0,0,0.1c0.2,0,0.3,0,0.5,0c0.3,0,0.6-0.1,0.9-0.2
			L29.4,15C29.1,15.1,28.8,15.1,28.6,15.2z"/>
		<path d="M30.9,14L30.9,14c0-0.1-0.1-0.1-0.1-0.1s0,0,0,0c-0.3,0.4-0.6,0.7-1,0.9l0.1,0.1C30.2,14.8,30.6,14.5,30.9,14
			z"/>
		<path d="M27.4,15.1c-0.1,0-0.2,0-0.3,0c-0.1,0-0.2,0-0.2,0.1c0,0,0,0.1,0.1,0.2c0,0,0.1,0,0.1,0c0,0,0.3-0.1,0.3-0.2
			C27.5,15.2,27.5,15.1,27.4,15.1z"/>
		<path d="M27.7,15.3c0,0-0.1,0-0.2,0c-0.1,0-0.3,0.2-0.3,0.2c0,0.1,0,0.1,0,0.1c0,0,0.1,0,0.1,0c0.1,0,0.1,0,0.1-0.1
			C27.5,15.6,27.7,15.4,27.7,15.3C27.7,15.4,27.7,15.3,27.7,15.3z"/>
		<path d="M27.7,15.4c0,0-0.1,0.2-0.1,0.2c0,0,0,0,0,0c0,0,0.2,0,0.3-0.1c0.1-0.1,0.2-0.2,0.1-0.2
			C27.9,15.3,27.8,15.3,27.7,15.4z"/>
		<path d="M27.6,15.1c0,0,0,0.1,0.1,0.2c0.1,0,0.3,0.1,0.3,0c0,0,0-0.1-0.2-0.2v0C27.7,15.1,27.6,15,27.6,15.1z"/>
		<path d="M32,12.4c0,0,0.1-0.1,0.2-0.2c0-0.1,0-0.2,0-0.2c0,0-0.2-0.2-0.2-0.3c0,0.1-0.1,0.3-0.1,0.3
			C31.8,12.1,31.8,12.2,32,12.4z"/>
		<path d="M32.2,12.6c-0.2-0.1-0.5-0.3-0.6-0.5h0c0,0.1,0,0.4,0.1,0.5c0.1,0.2,0.3,0.4,0.4,0.4c0.1,0,0.2-0.1,0.2-0.1
			C32.4,12.8,32.4,12.6,32.2,12.6z"/>
		<path d="M32.8,12.8c-0.1-0.1-0.2-0.2-0.3-0.3c-0.1-0.1-0.3-0.1-0.3-0.1c0,0-0.1,0.1-0.1,0.1c0.1,0,0.2,0.1,0.2,0.1
			c0.1,0.1,0.2,0.3,0.2,0.3C32.6,12.8,32.8,12.8,32.8,12.8z"/>
		<path d="M32.7,12.3c-0.1-0.1-0.3-0.2-0.3-0.2c0,0.1,0,0.2-0.1,0.3c0.1,0,0.2,0.1,0.3,0.2c0.2,0,0.4,0.1,0.4,0.1
			C32.9,12.5,32.7,12.3,32.7,12.3z"/>
		<path d="M33,12.9c0.2,0.1,0.4,0.2,0.4,0.2c0.1,0,0.3-0.1,0.3-0.1c-0.1-0.1-0.2-0.2-0.4-0.2c-0.1,0-0.5-0.1-0.6-0.1
			C32.8,12.7,32.9,12.8,33,12.9z"/>
		<path d="M33.2,13.2c-0.1,0-0.2,0.1-0.2,0.2c0,0.1,0,0.1,0,0.1c0-0.1,0.1-0.2,0.2-0.2c0.1,0,0.2,0,0.2,0
			c0,0,0-0.1,0-0.1c0,0,0.3,0,0.4,0c0,0,0.1,0,0,0c0-0.1-0.1-0.1-0.1-0.1C33.6,13.1,33.3,13.2,33.2,13.2z"/>
		<path d="M33,13.2c0.1-0.1,0.2-0.1,0.3-0.1C33.2,13,33.1,13,33,12.9c-0.1,0-0.2-0.1-0.2-0.1c0,0-0.1,0-0.1,0
			C32.8,12.9,32.9,13.1,33,13.2C33,13.2,33,13.2,33,13.2z"/>
		<path d="M32.8,13.6c0,0,0.1-0.1,0.1-0.3c0-0.2-0.3-0.4-0.3-0.4c-0.1,0-0.1,0-0.1,0c-0.1,0-0.1,0.1-0.1,0.1
			c0.1,0,0.2,0,0.3,0.1c0.1,0,0.2,0.2,0.1,0.3c-0.1,0.1-0.3,0-0.3,0C32.5,13.7,32.7,13.6,32.8,13.6z"/>
		<path d="M35.4,14.7c-0.1-0.1-0.2-0.1-0.3-0.2c-0.3,0-0.4,0.1-0.5,0.2c-0.1,0-0.2-0.1-0.4-0.4c-0.1-0.3-0.4-0.8-0.5-1
			c0,0-0.2,0-0.2,0c0,0,0,0,0,0c0,0,0,0.2,0,0.2c0,0-0.2-0.1-0.2-0.1c0,0-0.2,0.1-0.1,0.2c0.7,0.1,1,0.8,1.1,1.1
			c0.1,0.1,0.1,0.3,0.1,0.4c0.2,0,0.3,0,0.4-0.1c0.1-0.1,0.4-0.1,0.5-0.1S35.4,14.8,35.4,14.7z"/>
		<path d="M31.9,13.3c0.1,0.1,0.3,0.5,0.7,0.5c0,0-0.1-0.2-0.2-0.3c-0.1-0.1-0.3-0.2-0.4-0.4c-0.1-0.1-0.2-0.2-0.2-0.2
			c0,0.1-0.1,0.2-0.1,0.3c0,0,0.2,0.9,0.9,1c0,0,0-0.2-0.2-0.3c-0.2-0.1-0.5-0.4-0.5-0.7C31.7,13.1,31.8,13.2,31.9,13.3z"/>
		<path d="M31.6,14.4c-0.1-0.1-0.4-0.5-0.4-0.6c0,0.1-0.3,0.5-0.4,0.6c-0.1,0.1-0.4,0.4-0.6,0.5c0,0,0.4-0.1,0.7-0.3
			c0,0,0.2,0.1,0.3,0.1h0c0.1,0,0.3-0.1,0.3-0.1c0.2,0.2,0.7,0.3,0.7,0.3C32.1,14.8,31.8,14.5,31.6,14.4z"/>
		<path d="M31.2,14.8c-0.1,0-0.2,0-0.2-0.1c0,0.1,0.1,0.3,0.2,0.3c0.1-0.1,0.2-0.2,0.2-0.3
			C31.4,14.8,31.3,14.8,31.2,14.8L31.2,14.8z"/>
		<path d="M33.5,14.6V14L33,14.2l0.2,0.1c-0.1,0.1-1.4,1.9-1.6,2.2L30.8,15l-0.1,0.1L30,16.2l-0.2-0.1v0.6l0.5-0.2
			l-0.2-0.1c0.1-0.1,0.5-0.7,0.6-0.9l0.8,1.4h0l1.7-2.4L33.5,14.6z"/>
		<polygon points="31.9,15.9 31.9,15.9 31.9,15.9 		"/>
		<path d="M31.7,15.2L31.6,15l-0.3,0.6l0.1,0.2c0.1-0.2,0.2-0.3,0.2-0.4c0.1,0.1,0.2,0.3,0.3,0.4l0.1-0.2L31.7,15.2z"/>
		<path d="M32.4,16.2l-0.1-0.2l-0.1,0.2c0,0,0.1,0.1,0.1,0.1L32,16.5l0.5,0.2l0-0.6L32.4,16.2z"/>
		<path d="M35.5,12.9c0.2-0.2,0.4-0.4,0.2-0.5c-0.1-0.1-0.3,0-0.6,0.2c-0.2,0.2-0.4,0.4-0.2,0.5
			C35.1,13.2,35.3,13.1,35.5,12.9z"/>
		<path d="M35.9,12.5c0,0.1-0.1,0.3-0.3,0.5c-0.2,0.2-0.4,0.3-0.5,0.3c0,0,0.2,0,0.3,0.2c0.1,0.1,0.3,0.4,0.3,0.7
			c-0.1-0.3-0.4-0.4-0.7-0.4c-0.3,0-0.6,0.2-0.7,0.6c0,0,0.1,0.3,0.1,0.3c0,0,0-0.1,0-0.1c0-0.3,0.3-0.6,0.6-0.6
			c0.3,0,0.6,0.3,0.6,0.6c0,0.2-0.1,0.3-0.2,0.4c0,0,0,0,0,0c-0.1,0.1-0.3,0.1-0.4,0.1c0,0-0.1,0-0.1,0.1c0,0.1,0.1,0.1,0.1,0.1
			c0.1,0,0.5,0,0.5,0c0,0,0-0.1,0.1-0.2c0.3-0.3,0.5-0.6,0.5-0.9c0.1-0.4-0.1-0.8-0.2-1C35.9,12.8,35.9,12.7,35.9,12.5z"/>
		<path d="M32.7,14.8c-0.3-0.2-0.7-0.5-1-0.9c0,0,0,0,0,0s-0.1,0-0.2,0l0.1,0.1c0.3,0.5,0.7,0.8,1,1L32.7,14.8z"/>
		<path d="M33.8,15.2c-0.3,0-0.5-0.1-0.8-0.2l-0.1,0.1c0.3,0.1,0.6,0.2,0.9,0.2c0.2,0,0.3,0,0.5,0c0,0,0-0.1,0-0.1
			c0,0,0-0.1,0-0.1C34.2,15.2,34,15.2,33.8,15.2z"/>
		<path d="M35.3,15.1c-0.1,0-0.3,0-0.3,0c-0.1,0-0.1,0.1,0,0.1c0,0,0.3,0.2,0.3,0.2c0,0,0.1,0,0.2,0
			c0-0.1,0.1-0.1,0.1-0.2C35.5,15.2,35.4,15.2,35.3,15.1z"/>
		<path d="M34.9,15.3c-0.1,0-0.1,0-0.1,0c0,0,0,0.1,0,0.1c0,0,0.1,0.2,0.2,0.2c0,0,0.1,0.1,0.1,0.1c0,0,0.1,0,0.1,0
			c0,0,0.1,0,0.1-0.1C35.2,15.4,35,15.3,34.9,15.3z"/>
		<path d="M34.7,15.4L34.7,15.4c-0.1-0.1-0.2-0.1-0.3-0.1c-0.1,0,0,0.2,0.1,0.2c0.1,0.1,0.3,0.1,0.3,0.1c0,0,0,0,0,0
			C34.8,15.6,34.7,15.5,34.7,15.4z"/>
		<path d="M34.7,15.1L34.7,15.1c-0.2,0-0.3,0.1-0.2,0.2c0,0,0.2,0,0.3,0c0.1,0,0.1-0.1,0.1-0.2
			C34.8,15,34.7,15.1,34.7,15.1z"/>
	</g>
</g>
</svg>
