<svg xmlns="http://www.w3.org/2000/svg" viewBox="0 0 35.9 20"><title>pony-express</title><path d="M2.5.1H4.3c1,0,1.5.6,1.3,1.4A2.21,2.21,0,0,1,3.4,2.9H2.7L2.4,4.1h-1Zm1.2,2a.91.91,0,0,0,.9-.6c.1-.4-.2-.6-.6-.6H3.2L2.9,2.1Z" fill="#008752"/><path d="M5.8,2.1A2.91,2.91,0,0,1,8.6,0c1.3,0,2.1.9,1.7,2.1A3.06,3.06,0,0,1,7.4,4.2,1.53,1.53,0,0,1,5.8,2.1m3.6,0A1,1,0,0,0,8.4.8,1.62,1.62,0,0,0,6.8,2.1a.9.9,0,0,0,.9,1.2A1.84,1.84,0,0,0,9.4,2.1" fill="#008752"/><polygon points="11.5 0.1 12.4 0.1 13.7 2.5 14.4 0.1 15.3 0.1 14.3 4.1 13.4 4.1 12 1.5 11.4 4.1 10.4 4.1 11.5 0.1" fill="#008752"/><polygon points="16.8 2.5 15.8 0.1 16.9 0.1 17.5 1.7 19 0.1 20.1 0.1 17.7 2.5 17.3 4.1 16.4 4.1 16.8 2.5" fill="#008752"/><polygon points="1.1 5.4 4.3 5.4 4.1 6.2 1.8 6.2 1.6 7 3.6 7 3.4 7.8 1.4 7.8 1.2 8.6 3.5 8.6 3.3 9.4 0 9.4 1.1 5.4" fill="#008752"/><polygon points="5.7 7.3 4.8 5.4 5.9 5.4 6.4 6.7 7.7 5.4 8.8 5.4 6.8 7.3 7.8 9.4 6.7 9.4 6.1 8 4.7 9.4 3.6 9.4 5.7 7.3" fill="#008752"/><path d="M9.4,5.4h1.8c1,0,1.5.6,1.3,1.4a2.08,2.08,0,0,1-2.1,1.4H9.6L9.3,9.4h-1Zm1.2,2a.91.91,0,0,0,.9-.6q.15-.6-.6-.6h-.7L9.8,7.4Z" fill="#008752"/><path d="M13.3,5.4h2a1.59,1.59,0,0,1,1.2.4c.2.2.2.5.1.9a1.75,1.75,0,0,1-1.3,1.2L16,9.4H14.9l-.6-1.3h-.7l-.3,1.3h-1Zm1.4,1.9a.8.8,0,0,0,.9-.6q.15-.6-.6-.6h-.9l-.3,1.1h.9Z" fill="#008752"/><polygon points="17.6 5.4 20.9 5.4 20.7 6.2 18.4 6.2 18.1 7 20.2 7 20 7.8 17.9 7.8 17.7 8.6 20.1 8.6 19.9 9.4 16.6 9.4 17.6 5.4" fill="#008752"/><path d="M20.4,8.8l.7-.6a1.66,1.66,0,0,0,1.2.5c.4,0,.7-.1.7-.4s-.1-.3-.7-.5c-.8-.2-1.3-.4-1.1-1.2A1.87,1.87,0,0,1,23,5.4a2.46,2.46,0,0,1,1.5.5l-.7.7a2.11,2.11,0,0,0-1-.4.84.84,0,0,0-.7.4c-.1.3.1.3.8.5s1.2.5,1.1,1.2a1.8,1.8,0,0,1-1.9,1.2,2.94,2.94,0,0,1-1.7-.7" fill="#008752"/><path d="M24.1,8.8l.7-.6a1.66,1.66,0,0,0,1.2.5c.4,0,.7-.1.7-.4s0-.4-.7-.5-1.3-.4-1.1-1.2a1.87,1.87,0,0,1,1.8-1.2,2.46,2.46,0,0,1,1.5.5l-.7.7a2.11,2.11,0,0,0-1-.4.84.84,0,0,0-.7.4c-.1.3.1.3.8.5s1.2.5,1.1,1.2a1.8,1.8,0,0,1-1.9,1.2,2.94,2.94,0,0,1-1.7-.7" fill="#008752"/><polygon points="18.1 12 17.4 14.7 29.5 14.7 26.1 18.1 28 20 35.9 12 18.1 12" fill="#7ac143"/></svg>