<svg
  xmlns="http://www.w3.org/2000/svg" viewBox="0 0 24 20.82">
  <path d="M24,13.68V2.75A2.75,2.75,0,0,0,21.25,0H2.75A2.75,2.75,0,0,0,0,2.75V13.68a2.75,2.75,0,0,0,2.75,2.75H3.53v3.29a1.1,1.1,0,0,0,1.11,1.1h0a1.11,1.11,0,0,0,.83-0.38l3.47-4H21.26A2.74,2.74,0,0,0,24,13.68ZM8.6,14.94a0.75,0.75,0,0,0-.57.26L5,18.67v-3a0.75,0.75,0,0,0-.75-0.75H2.75a1.26,1.26,0,0,1-1.26-1.26V2.75A1.26,1.26,0,0,1,2.75,1.49h18.5a1.26,1.26,0,0,1,1.26,1.26V13.68a1.26,1.26,0,0,1-1.26,1.26H8.6Z"/>
  <circle cx="12" cy="8.47" r="0.89"/>
  <circle cx="14.97" cy="8.47" r="0.89"/>
  <circle cx="9.03" cy="8.47" r="0.89"/>
</svg>
