<svg xmlns="http://www.w3.org/2000/svg" viewBox="0 0 14 14"><title>round-check</title><path d="M13.1,3.5h0A6.67,6.67,0,0,0,10.6,1,6.77,6.77,0,0,0,7,0,7,7,0,0,0,3.5.9,8.07,8.07,0,0,0,.9,3.5,7,7,0,0,0,0,7a7,7,0,0,0,.9,3.5A6.67,6.67,0,0,0,3.4,13,6.77,6.77,0,0,0,7,14a7,7,0,0,0,3.5-.9A6.67,6.67,0,0,0,13,10.6,7.19,7.19,0,0,0,14,7,7,7,0,0,0,13.1,3.5ZM11.4,5.6a.37.37,0,0,1-.1.3L6.5,10.7a.28.28,0,0,1-.5,0L2.7,7.4a.35.35,0,0,1-.1-.2.37.37,0,0,1,.1-.3l.8-.8A.37.37,0,0,1,3.8,6a.37.37,0,0,1,.3.1L6.2,8.2,10,4.5c.2-.2.4-.2.5,0l.8.8C11.3,5.4,11.4,5.5,11.4,5.6Z"/></svg>