<?xml version="1.0" encoding="utf-8"?>
<!-- Generator: Adobe Illustrator 19.2.1, SVG Export Plug-In . SVG Version: 6.00 Build 0)  -->
<svg version="1.1" id="Capa_1" xmlns="http://www.w3.org/2000/svg" xmlns:xlink="http://www.w3.org/1999/xlink" x="0px" y="0px"
	 viewBox="0 0 80 80" style="enable-background:new 0 0 80 80;" xml:space="preserve">
<g>
	<g>
		<g>
			<path d="M40,0C17.9,0,0,17.9,0,40s17.9,40,40,40c22.1,0,40-17.9,40-40S62.1,0,40,0z M40,76.5C19.9,76.5,3.5,60.1,3.5,40
				S19.9,3.5,40,3.5c20.1,0,36.5,16.4,36.5,36.5S60.1,76.5,40,76.5z"/>
			<path d="M31.3,33c0-2.9-2.3-5.2-5.2-5.2s-5.2,2.3-5.2,5.2c0,2.9,2.3,5.2,5.2,5.2S31.3,35.9,31.3,33z M24.3,33
				c0-1,0.8-1.7,1.7-1.7c1,0,1.7,0.8,1.7,1.7c0,1-0.8,1.7-1.7,1.7C25.1,34.8,24.3,34,24.3,33z"/>
			<path d="M53.9,27.8c-2.9,0-5.2,2.3-5.2,5.2c0,2.9,2.3,5.2,5.2,5.2c2.9,0,5.2-2.3,5.2-5.2C59.1,30.2,56.8,27.8,53.9,27.8z
				 M53.9,34.8c-1,0-1.7-0.8-1.7-1.7c0-1,0.8-1.7,1.7-1.7s1.7,0.8,1.7,1.7C55.7,34,54.9,34.8,53.9,34.8z"/>
			<path d="M40,48.7c-6.5,0-12.7,2.7-16.9,7.5c-0.6,0.7-0.6,1.8,0.1,2.5c0.7,0.6,1.8,0.6,2.5-0.1c3.6-4.1,8.9-6.4,14.4-6.4
				s10.7,2.3,14.4,6.4c0.3,0.4,0.8,0.6,1.3,0.6c0.4,0,0.8-0.1,1.2-0.4c0.7-0.6,0.8-1.7,0.1-2.5C52.7,51.4,46.5,48.7,40,48.7z"/>
		</g>
	</g>
</g>
</svg>
