<svg xmlns="http://www.w3.org/2000/svg" xmlns:xlink="http://www.w3.org/1999/xlink" x="0px" y="0px"
	 viewBox="0 0 100.2 20" style="enable-background:new 0 0 100.2 20;" xml:space="preserve">
<g>
	<path d="M16.7,1.3l0.9,0.8L6.3,8.6L0.9,5.4l0.5-1l5,2.8L16.7,1.3z M14.5,0l1.2,0.6L6.3,6L2,3.5l0.7-0.9l3.6,2.1L14.5,0
		z M18.4,3l0.7,0.9L6.3,11.2L0.2,7.7l0.3-1.1l5.9,3.4L18.4,3z"/>
	<path d="M20.3,6.3c0.4,1.1,0.6,2.2,0.6,3.3s-0.2,2.3-0.6,3.4L20,13.6c-0.5,1.2-1.3,2.3-2.2,3.3c-1,1-2.1,1.7-3.3,2.2
		c-1.3,0.6-2.7,0.8-4.1,0.8c-1.4,0-2.8-0.3-4.1-0.8C5.1,18.6,4,17.9,3,17c-1-1-1.7-2.1-2.2-3.3C0.3,12.3,0,11,0,9.6V8.9l6.3,3.6
		l13.4-7.7L20.3,6.3z"/>
	<g>
		<path d="M69.3,13h1.8l0.2-1.2l0.7-2.4h3.2l1.1,3.6H79c-0.3-0.7-0.7-1.5-1-2.6l-2.1-6c-0.2-0.5-0.3-1-0.4-1.5h-2.9v0.3
			c0.4,0.1,0.6,0.2,0.6,0.6c0,0.3-0.2,0.8-0.5,1.6L69.3,13z M73.7,4.6l1.4,4.1h-2.8L73.7,4.6z"/>
		<path d="M94,12.7c-0.2-0.1-0.4-0.2-0.5-0.3l-0.1-0.6V4l0.1-0.6c0.1-0.1,0.2-0.2,0.5-0.2V2.9h-3.3v0.3
			c0.2,0,0.4,0.1,0.5,0.2L91.3,4v7.8c0,0.3,0,0.5-0.1,0.6l-0.5,0.3V13H94V12.7z"/>
		<path d="M95.2,10c0.7,1,1.2,2,1.7,3h3.4c-1-1-2.2-2.5-3.6-4.4l-1.3-1.9l2.4-2.4c0.7-0.7,1.3-1.1,1.7-1.4h-2.4
			C96.9,3.4,96.2,4.5,95,6l-1.3,1.7L95.2,10z"/>
		<path d="M83.1,12.7c-0.2-0.1-0.4-0.2-0.5-0.3l-0.1-0.6V7.8h3.9v4.1l-0.1,0.6c-0.1,0.1-0.3,0.2-0.5,0.3V13h3.3v-0.3
			l-0.5-0.3l-0.1-0.6V4l0.1-0.6c0.1-0.1,0.2-0.2,0.5-0.2V2.9h-3.3v0.3c0.2,0,0.4,0.1,0.5,0.2L86.4,4v3.1h-3.9V4l0.1-0.6
			c0.1-0.1,0.2-0.2,0.5-0.2V2.9h-3.3v0.3c0.3,0,0.4,0.1,0.5,0.2L80.3,4v7.8l-0.1,0.6c-0.1,0.1-0.2,0.2-0.5,0.3V13h3.3V12.7z"/>
		<path d="M41.6,12.3c0.7-0.5,1.1-1.4,1.1-2.7c0-1.3-0.4-2.2-1.3-2.6c-0.6-0.3-1.8-0.5-3.4-0.5h-0.6V4.1
			c0-0.2,0-0.4,0.1-0.5c0.1-0.1,0.3-0.2,0.6-0.2h1.4l1.4,0.2c0.3,0.2,0.5,0.5,0.6,1l0.1,0.4h0.5V2.9h-7.5v0.3c0.3,0,0.4,0.1,0.5,0.2
			L35.2,4v7.8l-0.1,0.6c-0.1,0.1-0.2,0.2-0.5,0.3V13h4.1C40,13,41,12.8,41.6,12.3z M38.3,12.4c-0.4,0-0.6-0.1-0.7-0.2
			c-0.1-0.1-0.2-0.3-0.2-0.7V7.2h0.8c0.8,0,1.4,0.2,1.7,0.7c0.3,0.4,0.4,1,0.4,1.9c0,1.8-0.6,2.6-1.8,2.6H38.3z"/>
		<path d="M30.3,13.2c1.3,0,2.5-0.3,3.4-0.9l-0.3-0.6c-0.8,0.4-1.7,0.6-2.5,0.6c-1.2,0-2-0.4-2.5-1.3
			c-0.4-0.7-0.6-1.8-0.6-3.2s0.2-2.5,0.5-3.2c0.4-0.7,1.1-1.1,2.2-1.1c0.6,0,1.1,0.1,1.4,0.3c0.3,0.2,0.5,0.5,0.6,0.9l0.2,0.6h0.6
			V3.2c-0.7-0.3-1.7-0.5-2.9-0.5c-3.3,0-5,1.8-5,5.3C25.5,11.5,27.1,13.2,30.3,13.2z"/>
		<rect x="26.3" y="15.5" width="73.9" height="1"/>
		<path d="M51.1,10.7h-0.6L50.4,11c-0.1,0.6-0.3,1-0.6,1.1l-1.4,0.2h-0.3l-1.3-0.2c-0.2-0.1-0.3-0.3-0.3-0.6V7.8h1.3
			c0.9,0,1.5,0.1,1.8,0.3V6.8c-0.3,0.2-0.9,0.3-1.8,0.3h-1.3V4l0.1-0.4l0.4-0.1h1.1l1.4,0.2c0.3,0.2,0.5,0.5,0.6,1l0.1,0.4h0.5
			c0,0,0-2.2,0-2.2h-7v0.3c0.3,0,0.4,0.1,0.5,0.2L44.4,4v7.8l-0.1,0.6c-0.1,0.1-0.2,0.2-0.5,0.3V13h7.3V10.7z"/>
		<path d="M68,12.3c0.7-0.5,1.1-1.4,1.1-2.7c0-1.3-0.5-2.2-1.4-2.6c-0.6-0.3-1.8-0.5-3.4-0.5h-0.6V4.1
			c0-0.2,0-0.4,0.1-0.5c0.1-0.1,0.3-0.2,0.6-0.2h1.4l1.4,0.2c0.3,0.2,0.5,0.5,0.6,1L68,5.1h0.6V2.9H61v0.3c0.3,0,0.4,0.1,0.5,0.2
			L61.6,4v7.8l-0.1,0.6L61,12.7V13h4C66.4,13,67.3,12.8,68,12.3z M64.6,12.4c-0.3,0-0.6-0.1-0.7-0.2c-0.1-0.1-0.2-0.3-0.2-0.7V7.2
			h0.9c0.8,0,1.4,0.2,1.7,0.7c0.3,0.4,0.4,1,0.4,1.9c0,0.9-0.1,1.6-0.4,2c-0.3,0.4-0.8,0.7-1.4,0.7H64.6z"/>
		<path d="M55.7,12.7c-0.3-0.1-0.4-0.2-0.5-0.3l-0.1-0.6V9h1c1.3,0,2.2-0.2,2.9-0.7c0.7-0.5,1.1-1.4,1.1-2.5
			c0-1.1-0.3-1.9-1-2.4c-0.5-0.3-1.4-0.5-2.5-0.5h-4.2v0.3c0.2,0,0.4,0.1,0.5,0.2L53,4v7.8l-0.1,0.6l-0.5,0.3V13h3.3V12.7z
			 M55.1,4.1c0-0.2,0.1-0.4,0.2-0.5l0.5-0.1H56c1.2,0,1.8,0.7,1.8,2.2c0,0.9-0.1,1.5-0.3,1.9c-0.3,0.5-0.7,0.7-1.3,0.7h-1V4.1z"/>
	</g>
</g>
</svg>
