<svg id="Capa_1" data-name="Capa 1" xmlns="http://www.w3.org/2000/svg" viewBox="0 0 32 32"><defs><style>.cls-1{fill:#ffcc4d;}.cls-2{fill:#664500;}</style></defs><title>emoji8</title><path class="cls-1" d="M32,16A16,16,0,1,1,16,0,16,16,0,0,1,32,16"/><path class="cls-2" d="M9.35,21c0,0.16,1,3.89,6.65,3.89s6.61-3.73,6.65-3.89a0.44,0.44,0,0,0-.21-0.49,0.45,0.45,0,0,0-.53.07S20.17,22.22,16,22.22s-5.89-1.63-5.91-1.65a0.44,0.44,0,0,0-.74.42"/><path id="SVGCleanerId_0" data-name="SVGCleanerId 0" class="cls-2" d="M12.89,12c0,1.72-1,3.11-2.22,3.11S8.44,13.72,8.44,12s1-3.11,2.22-3.11,2.22,1.39,2.22,3.11"/><path id="SVGCleanerId_0-2" data-name="SVGCleanerId 0" class="cls-2" d="M24.49,12c0,1.72-1,3.11-2.22,3.11S20,13.72,20,12s1-3.11,2.22-3.11,2.22,1.39,2.22,3.11"/></svg>