<?xml version="1.0" encoding="utf-8"?>
<!-- Generator: Adobe Illustrator 19.2.1, SVG Export Plug-In . SVG Version: 6.00 Build 0)  -->
<svg version="1.1" id="Capa_1" xmlns="http://www.w3.org/2000/svg" xmlns:xlink="http://www.w3.org/1999/xlink" x="0px" y="0px"
	 viewBox="0 0 80 80" style="enable-background:new 0 0 80 80;" xml:space="preserve">
<g>
	<g>
		<g>
			<path d="M40,0C17.9,0,0,17.9,0,40s17.9,40,40,40s40-17.9,40-40S62.1,0,40,0z M40,76.5C19.9,76.5,3.5,60.1,3.5,40S19.9,3.5,40,3.5
				S76.5,19.9,76.5,40S60.1,76.5,40,76.5z"/>
			<path d="M31.3,33c0-2.9-2.3-5.2-5.2-5.2s-5.2,2.3-5.2,5.2c0,2.9,2.3,5.2,5.2,5.2S31.3,35.9,31.3,33z M24.3,33
				c0-1,0.8-1.7,1.7-1.7c1,0,1.7,0.8,1.7,1.7c0,1-0.8,1.7-1.7,1.7C25.1,34.8,24.3,34,24.3,33z"/>
			<path d="M53.9,27.8c-2.9,0-5.2,2.3-5.2,5.2c0,2.9,2.3,5.2,5.2,5.2c2.9,0,5.2-2.3,5.2-5.2C59.1,30.2,56.8,27.8,53.9,27.8z
				 M53.9,34.8c-1,0-1.7-0.8-1.7-1.7c0-1,0.8-1.7,1.7-1.7c1,0,1.7,0.8,1.7,1.7C55.7,34,54.9,34.8,53.9,34.8z"/>
			<path d="M56.8,49.1c-0.7-0.6-1.8-0.6-2.5,0.1c-3.6,4.1-8.9,6.4-14.4,6.4c-5.5,0-10.7-2.3-14.4-6.4c-0.6-0.7-1.7-0.8-2.5-0.1
				c-0.7,0.6-0.8,1.7-0.1,2.5c4.3,4.8,10.5,7.5,16.9,7.5c6.5,0,12.7-2.7,16.9-7.5C57.6,50.9,57.5,49.8,56.8,49.1z"/>
		</g>
	</g>
</g>
</svg>
