<svg
    class="social-button__icon"
    xmlns="http://www.w3.org/2000/svg" viewBox="0 0 20 20">
    <defs>
        <linearGradient id="instagramGradient" x1="78.801%" x2="0%" y1="0%" y2="61.566%">
        <stop offset="0%" stop-color="rgb(84,41,164)" stop-opacity="1" />
        <stop offset="50%" stop-color="rgb(248,121,176)" stop-opacity="1" />
        <stop offset="74%" stop-color="rgb(252,115,88)" stop-opacity="1" />
        <stop offset="100%" stop-color="rgb(255,109,0)" stop-opacity="1" />
        </linearGradient>
    </defs>

    <g fill="url(#instagramGradient)" class="instagram-icon-1">
        <path d="M14.48,0h-9A5.53,5.53,0,0,0,0,5.52v9A5.53,5.53,0,0,0,5.52,20h9A5.53,5.53,0,0,0,20,14.48v-9A5.53,5.53,0,0,0,14.48,0Zm3.75,14.48a3.75,3.75,0,0,1-3.74,3.74h-9a3.75,3.75,0,0,1-3.74-3.74v-9A3.75,3.75,0,0,1,5.52,1.77h9a3.75,3.75,0,0,1,3.74,3.74v9h0Z"/>
        <path d="M10,4.85A5.15,5.15,0,1,0,15.15,10,5.16,5.16,0,0,0,10,4.85Zm0,8.53A3.38,3.38,0,1,1,13.38,10,3.38,3.38,0,0,1,10,13.38Z"/>
        <path d="M15.37,3.34a1.3,1.3,0,1,0,.92.38A1.31,1.31,0,0,0,15.37,3.34Z"/>
    </g>

  <g fill="white" class="instagram-icon-2">
    <path d="M14.48,0h-9A5.53,5.53,0,0,0,0,5.52v9A5.53,5.53,0,0,0,5.52,20h9A5.53,5.53,0,0,0,20,14.48v-9A5.53,5.53,0,0,0,14.48,0Zm3.75,14.48a3.75,3.75,0,0,1-3.74,3.74h-9a3.75,3.75,0,0,1-3.74-3.74v-9A3.75,3.75,0,0,1,5.52,1.77h9a3.75,3.75,0,0,1,3.74,3.74v9h0Z"/>
    <path d="M10,4.85A5.15,5.15,0,1,0,15.15,10,5.16,5.16,0,0,0,10,4.85Zm0,8.53A3.38,3.38,0,1,1,13.38,10,3.38,3.38,0,0,1,10,13.38Z"/>
    <path d="M15.37,3.34a1.3,1.3,0,1,0,.92.38A1.31,1.31,0,0,0,15.37,3.34Z"/>
  </g>
</svg>
