<svg id="Capa_1" data-name="Capa 1" xmlns="http://www.w3.org/2000/svg" viewBox="0 0 14.34 15.05"><defs><style>.cls-1{fill:#000002;}</style></defs><title>sorting_icon_mobile</title><path class="cls-1" d="M2.38,14.55V12a1.89,1.89,0,0,0,0-3.66V0.5a0.5,0.5,0,0,0-1,0V8.38a1.89,1.89,0,0,0,0,3.65v2.52a0.48,0.48,0,1,0,1,0h0ZM1,10.21a0.93,0.93,0,1,1,.93.93A0.93,0.93,0,0,1,1,10.21H1Z"/><path class="cls-1" d="M6.67,0.51v3.2a1.89,1.89,0,0,0,0,3.66v7.18a0.5,0.5,0,0,0,1,0V7.37a1.89,1.89,0,0,0,0-3.66V0.51A0.5,0.5,0,0,0,7.17,0a0.49,0.49,0,0,0-.49.49h0Zm1.41,5a0.93,0.93,0,1,1-.93-0.93,0.93,0.93,0,0,1,.93.93s0,0,0,0v0Z"/><path class="cls-1" d="M11.92,0.51V8.38a1.89,1.89,0,0,0,0,3.66v2.51a0.5,0.5,0,0,0,1,0V12a1.89,1.89,0,0,0,0-3.66V0.5A0.5,0.5,0,0,0,11.92.51Zm1.41,9.7a0.93,0.93,0,1,1-.93-0.93,0.93,0.93,0,0,1,.93.93h0Z"/></svg>