<svg id="Capa_1" data-name="Capa 1" xmlns="http://www.w3.org/2000/svg" viewBox="0 0 12 12"><defs><style>.cls-1{fill:#fac917;}</style></defs><title>star</title><path class="cls-1" d="M30.71,24.41a0.92,0.92,0,0,0,.22-0.92,0.87,0.87,0,0,0-.69-0.61l-2.91-.44A0.38,0.38,0,0,1,27,22.22l-1.3-2.75a0.85,0.85,0,0,0-1.54,0l-1.3,2.75a0.38,0.38,0,0,1-.29.22l-2.91.44a0.87,0.87,0,0,0-.69.61,0.92,0.92,0,0,0,.22.92l2.1,2.14a0.41,0.41,0,0,1,.11.35l-0.5,3a0.91,0.91,0,0,0,.19.73,0.84,0.84,0,0,0,1.06.22l2.6-1.43a0.37,0.37,0,0,1,.35,0l2.6,1.43a0.82,0.82,0,0,0,.4.1,0.85,0.85,0,0,0,.66-0.32A0.91,0.91,0,0,0,29,29.92l-0.5-3a0.41,0.41,0,0,1,.11-0.35Z" transform="translate(-18.97 -18.97)"/></svg>