<svg xmlns="http://www.w3.org/2000/svg" viewBox="0 0 11.9 16"><title>trash</title><path d="M1.4,15.2a.86.86,0,0,0,.8.8H9.7a.79.79,0,0,0,.8-.8L11,3.9H.9ZM7.7,6.7A.27.27,0,0,1,8,6.4h.5a.27.27,0,0,1,.3.3v6.5a.27.27,0,0,1-.3.3H8a.27.27,0,0,1-.3-.3Zm-2.3,0a.27.27,0,0,1,.3-.3h.5a.27.27,0,0,1,.3.3v6.5a.27.27,0,0,1-.3.3H5.7a.27.27,0,0,1-.3-.3V6.7Zm-2.3,0a.27.27,0,0,1,.3-.3h.5a.27.27,0,0,1,.3.3v6.5a.27.27,0,0,1-.3.3H3.4a.27.27,0,0,1-.3-.3Z"/><path d="M11.4.8H8V.2A.22.22,0,0,0,7.8,0H4.1C4,0,4,.1,4,.2V.9H.5a.4.4,0,0,0-.5.4V2.9H11.9V1.3A.54.54,0,0,0,11.4.8Z"/></svg>