<svg
    xmlns="http://www.w3.org/2000/svg" viewBox="0 0 16 10">
    <path d="M272.35,265.35l0.54-.78q1.44-2.1,1.25-2.68l-0.05-.09a0.48,0.48,0,0,0-.26-0.15,1.21,1.21,0,0,0-.53,0l-2.4,0h-0.17l-0.11,0,0,0,0,0a0.38,0.38,0,0,0-.09.1,0.64,0.64,0,0,0-.08.16,15.56,15.56,0,0,1-.89,2.05q-0.31.57-.57,1a4.65,4.65,0,0,1-.43.61,3.12,3.12,0,0,1-.32.31,0.29,0.29,0,0,1-.22.1l-0.14,0a0.59,0.59,0,0,1-.19-0.22,1.07,1.07,0,0,1-.1-0.36c0-.14,0-0.27,0-0.37s0-.25,0-0.44,0-.32,0-0.38q0-.35,0-0.75t0-.64q0-.24,0-0.5a2.29,2.29,0,0,0,0-.42,1.55,1.55,0,0,0-.09-0.29,0.48,0.48,0,0,0-.17-0.22,0.92,0.92,0,0,0-.28-0.12,5.08,5.08,0,0,0-1.12-.12,5,5,0,0,0-2,.22,1.15,1.15,0,0,0-.32.27q-0.15.2,0,.22a1,1,0,0,1,.71.39l0.05,0.11a1.89,1.89,0,0,1,.12.42,4.64,4.64,0,0,1,.08.67,7.76,7.76,0,0,1,0,1.14q0,0.47-.08.74a1.59,1.59,0,0,1-.11.43l-0.1.2,0,0a0.58,0.58,0,0,1-.22,0,0.5,0.5,0,0,1-.28-0.13,2.05,2.05,0,0,1-.35-0.35,4.69,4.69,0,0,1-.4-0.63q-0.22-.4-0.47-0.95l-0.13-.26q-0.12-.26-0.34-0.74t-0.38-.94a0.6,0.6,0,0,0-.2-0.29l0,0-0.13-.08-0.19-.06-2.28,0a0.55,0.55,0,0,0-.47.17l0,0.05a0.32,0.32,0,0,0,0,.15,0.79,0.79,0,0,0,.05.25q0.5,1.29,1.09,2.48t1,1.93q0.43,0.73.88,1.38t0.6,0.83l0.23,0.27,0.21,0.22a5.09,5.09,0,0,0,.59.52,9.82,9.82,0,0,0,.86.6,4.43,4.43,0,0,0,1.1.48,3.46,3.46,0,0,0,1.22.15h1a0.63,0.63,0,0,0,.44-0.2l0,0a0.65,0.65,0,0,0,.06-0.17,1,1,0,0,0,0-.25,3.28,3.28,0,0,1,.05-0.71,2,2,0,0,1,.14-0.47,1.17,1.17,0,0,1,.18-0.27,0.74,0.74,0,0,1,.14-0.13l0.07,0a0.5,0.5,0,0,1,.47.14,2.9,2.9,0,0,1,.51.53q0.24,0.31.57,0.71a4.05,4.05,0,0,0,.58.58l0.17,0.11a2,2,0,0,0,.43.2,0.86,0.86,0,0,0,.47,0l2.13,0a0.9,0.9,0,0,0,.49-0.11,0.44,0.44,0,0,0,.21-0.25,0.77,0.77,0,0,0,0-.31,1.22,1.22,0,0,0-.06-0.24l-0.05-.11a8.93,8.93,0,0,0-1.59-2l0,0h0q-0.53-.56-0.67-0.75a0.75,0.75,0,0,1-.12-0.74A6.89,6.89,0,0,1,272.35,265.35Z" transform="translate(-258.17 -261.17)"/>
</svg>
