<svg
  xmlns="http://www.w3.org/2000/svg" viewBox="0 0 16.54 20">
  <path d="M16.25,10.33a2.1,2.1,0,0,0-1.79-1.63q-2.05-.22-6.19-0.22t-6.18.22a2,2,0,0,0-1.15.52,2.12,2.12,0,0,0-.65,1.1A19.34,19.34,0,0,0,0,14.24a18.94,18.94,0,0,0,.29,3.91,2,2,0,0,0,.64,1.1,2,2,0,0,0,1.14.51A59.68,59.68,0,0,0,8.27,20a59.67,59.67,0,0,0,6.19-.23,2,2,0,0,0,1.14-.51,2.12,2.12,0,0,0,.65-1.1,19.34,19.34,0,0,0,.29-3.91A19,19,0,0,0,16.25,10.33ZM4.72,11.46H3.53v6.35H2.41V11.46H1.24v-1H4.72v1h0Zm3,6.35h-1v-0.6a1.63,1.63,0,0,1-1.14.68A0.6,0.6,0,0,1,5,17.48a2.76,2.76,0,0,1-.09-0.81V12.3h1v4.06a3.08,3.08,0,0,0,0,.39,0.23,0.23,0,0,0,.23.23,0.89,0.89,0,0,0,.64-0.47V12.3h1v5.51h0Zm3.79-1.65a4.12,4.12,0,0,1-.1,1.12,0.77,0.77,0,0,1-.79.61,1.39,1.39,0,0,1-1-.61v0.54h-1v-7.4h1v2.42a1.34,1.34,0,0,1,1-.6,0.78,0.78,0,0,1,.79.62,4,4,0,0,1,.1,1.1v2.2Zm3.77-.92h-2v1q0,0.77.51,0.77a0.43,0.43,0,0,0,.45-0.4,5.56,5.56,0,0,0,0-.68h1V16a4.94,4.94,0,0,1,0,.65,1.38,1.38,0,0,1-1.44,1.19,1.43,1.43,0,0,1-1.21-.57A2.1,2.1,0,0,1,12.31,16V14.1a2.15,2.15,0,0,1,.31-1.29,1.53,1.53,0,0,1,2.38,0,2.21,2.21,0,0,1,.3,1.29v1.15h0Z"/>
  <path d="M10.1,13.14a0.72,0.72,0,0,0-.5.25v3.36a0.72,0.72,0,0,0,.5.25q0.44,0,.44-0.75V13.88Q10.54,13.14,10.1,13.14Z"/>
  <path d="M13.81,13.14q-0.5,0-.5.76v0.51h1V13.89Q14.31,13.14,13.81,13.14Z"/>
  <path d="M4.07,4.45v3H5.19v-3L6.54,0H5.4L4.64,2.94,3.85,0H2.67Q3,0.94,3.39,2.09A18.92,18.92,0,0,1,4.07,4.45Z"/>
  <path d="M8,7.56A1.37,1.37,0,0,0,9.22,7a2.2,2.2,0,0,0,.31-1.32v-2a2.18,2.18,0,0,0-.31-1.31A1.37,1.37,0,0,0,8,1.84a1.38,1.38,0,0,0-1.17.57,2.18,2.18,0,0,0-.31,1.31v2A2.23,2.23,0,0,0,6.86,7,1.38,1.38,0,0,0,8,7.56Zm-0.48-4q0-.77.48-0.77T8.52,3.52V5.86q0,0.78-.48.78T7.56,5.86V3.52Z"/>
  <path d="M11.11,7.56a1.61,1.61,0,0,0,1.15-.69V7.48h1V1.91h-1V6.16a0.89,0.89,0,0,1-.64.48,0.23,0.23,0,0,1-.23-0.25,2.91,2.91,0,0,1,0-.39V1.91h-1v4.4a2.87,2.87,0,0,0,.09.84A0.62,0.62,0,0,0,11.11,7.56Z"/>
</svg>
