<svg
  xmlns="http://www.w3.org/2000/svg" viewBox="0 0 18 19">
  <path d="M508.19,509l-4.72-5a7.64,7.64,0,0,0,1.9-5.07,7.49,7.49,0,1,0-7.49,7.62,7.41,7.41,0,0,0,4.46-1.51l4.75,5a0.74,0.74,0,0,0,.55.24,0.75,0.75,0,0,0,.53-0.22A0.78,0.78,0,0,0,508.19,509Zm-10.3-16.15a6.08,6.08,0,1,1-6,6.08A6,6,0,0,1,497.89,492.81Z" transform="translate(-490.4 -491.27)"/>
  <path d="M501.6,498.09h-3V495h0a0.63,0.63,0,0,0-1.25,0h0v0.05h0v3h-2.95a0.64,0.64,0,0,0,0,1.28h2.95v2.94h0s0,0,0,.06a0.63,0.63,0,1,0,1.26,0s0,0,0-.06h0v-2.94h3A0.64,0.64,0,0,0,501.6,498.09Z" transform="translate(-490.4 -491.27)"/>
</svg>
