<svg id="Capa_1" data-name="Capa 1" xmlns="http://www.w3.org/2000/svg" viewBox="0 0 32 32"><defs><style>.cls-1{fill:#ffcc4d}.cls-2{fill:#f5f8fa}.cls-3{fill:#664500}</style></defs><title>emoji9</title><path class="cls-1" d="M32 16A16 16 0 1 1 16 0a16 16 0 0 1 16 16"/><path id="SVGCleanerId_0" data-name="SVGCleanerId 0" class="cls-2" d="M26.67 12a4.89 4.89 0 1 1-4.89-4.89A4.89 4.89 0 0 1 26.67 12"/><path id="SVGCleanerId_0-2" data-name="SVGCleanerId 0" class="cls-2" d="M14.1 12a4.89 4.89 0 1 1-4.89-4.89A4.89 4.89 0 0 1 14.1 12"/><path id="SVGCleanerId_1" data-name="SVGCleanerId 1" class="cls-3" d="M12.44 9.33a2.22 2.22 0 1 1-2.22-2.22 2.22 2.22 0 0 1 2.22 2.22"/><path id="SVGCleanerId_1-2" data-name="SVGCleanerId 1" class="cls-3" d="M25 9.33a2.22 2.22 0 1 1-2.22-2.22A2.22 2.22 0 0 1 25 9.33"/><path class="cls-3" d="M20.44 24h-8.88a.89.89 0 1 1 0-1.78h8.89a.89.89 0 0 1 0 1.78"/></svg>