<svg xmlns="http://www.w3.org/2000/svg"><symbol id="icon_arrow-location" viewBox="0 0 8 4.56"><path d="M3.6 4.62L.16 1.18A.56.56 0 0 1 1 .39l3 3 3-3a.56.56 0 0 1 .79.79L4.4 4.62a.56.56 0 0 1-.8 0z" transform="translate(0 -.23)"/></symbol><symbol id="icon_arrow-menu-button" viewBox="0 0 6.2 11"><path d="M6.06 5.08L1.17.18a.72.72 0 0 0-.95 0A.66.66 0 0 0 0 .65a.63.63 0 0 0 .25.51L4.59 5.5.22 9.87a.66.66 0 0 0-.22.47.59.59 0 0 0 .24.49.68.68 0 0 0 .45.17.74.74 0 0 0 .47-.18L6 5.92a.69.69 0 0 0 .06-.84z"/></symbol><symbol id="icon_arrow_back_menu" viewBox="0 0 14 9.6"><path d="M.2 5.3l4.2 4.2c.3.3.7.3.9 0s.3-.7 0-.9L2.2 5.5h11.1c.4 0 .7-.3.7-.7s-.3-.7-.7-.7H2.2l3-3c.3-.3.3-.7 0-.9s-.7-.3-.9 0L.2 4.4c-.3.2-.3.6 0 .9z"/></symbol><symbol id="icon_burger-menu" viewBox="0 0 24.16 18.01"><rect y="8" width="24.16" height="2" rx="1" ry="1"/><rect y="16.01" width="24.16" height="2" rx="1" ry="1"/><rect width="24.16" height="2" rx="1" ry="1"/></symbol><symbol id="icon_cart-button" viewBox="0 0 24.2 26"><path d="M6.9 17.1h14.3c1.6 0 2.9-1.3 3-2.9V7.7L5.4 4.9v-3L1 .1C.6-.1.2.1.1.5s0 .8.4.9L4 2.9v15.8c0 1.5 1.1 2.7 2.6 2.9-.8 1.4-.4 3.2 1 4s3.2.4 4-1c.3-.4.4-1 .4-1.5s-.1-1-.4-1.5H18c-.3.4-.4 1-.4 1.5 0 1.6 1.3 2.9 2.9 2.9s2.9-1.3 2.9-2.9-1.3-2.9-2.9-2.9H6.9c-.8 0-1.5-.7-1.5-1.5v-2c.4.3 1 .4 1.5.4zm3.6 6c0 .8-.7 1.5-1.5 1.4-.8 0-1.5-.7-1.4-1.5 0-.8.7-1.4 1.5-1.4.7 0 1.4.7 1.4 1.5zm11.5 0c0 .8-.7 1.5-1.5 1.5s-1.5-.7-1.5-1.5.7-1.5 1.5-1.5 1.5.7 1.5 1.5zm-.8-7.4H6.9c-.8 0-1.5-.7-1.5-1.5V6.4l17.3 2.4v5.4c0 .8-.6 1.5-1.5 1.5z"/></symbol><symbol id="icon_close-menu" viewBox="0 0 16.82 16.82"><path class="cls-1" d="M16.55 15.2L9.76 8.41l6.78-6.78A1 1 0 0 0 15.2.28L8.41 7.06 1.63.28A1 1 0 0 0 .28 1.63l6.79 6.78L.28 15.2a1 1 0 1 0 1.35 1.35l6.78-6.79 6.79 6.79a1 1 0 1 0 1.35-1.35z"/></symbol><symbol id="icon_location-icon" viewBox="0 0 12 18"><path d="M6.1 3.8c-1.3-.1-2.5 1-2.5 2.3-.1 1.3 1 2.5 2.3 2.5 1.3.1 2.5-1 2.5-2.3v-.1c0-1.3-1-2.4-2.3-2.4zm1.3 2.4C7.3 7 6.7 7.5 6 7.5s-1.3-.7-1.3-1.4.6-1.3 1.3-1.3c.8 0 1.4.7 1.4 1.4z"/><path d="M10.2 1.8C8.1-.5 4.4-.6 2 1.5c-.1.1-.2.2-.2.3-2.1 2.5-2.3 6.1-.6 8.8L6 18l4.8-7.3c1.8-2.8 1.6-6.3-.6-8.9zm-.2 8.3l-4 6.1-4-6.1C.5 7.7.7 4.7 2.5 2.6 4.3.6 7.4.5 9.4 2.4l.2.2c1.8 2.1 1.9 5.2.4 7.5z"/></symbol><symbol id="icon_login-register-button" viewBox="0 0 22 26"><path d="M10.9 14h.2c1.4 0 2.8-.6 3.8-1.6 2.1-2.3 1.7-6.3 1.7-6.7-.1-2.9-1.5-4.2-2.6-4.9-.9-.5-1.9-.8-2.9-.8H11c-1 0-2 .3-2.9.7-1.1.7-2.5 2.1-2.6 5 0 .4-.4 4.4 1.7 6.7.9 1 2.3 1.6 3.7 1.6zm-4-8.2c.2-3.9 2.9-4.3 4.1-4.3 1.4 0 3.9.6 4.1 4.3 0 0 .4 3.7-1.3 5.6-.7.8-1.7 1.2-2.8 1.1-1 0-2.1-.4-2.8-1.1-1.6-1.9-1.3-5.6-1.3-5.6zM22 20.7v-.1c0-1.1-.1-3.6-2.4-4.4h-.1c-1.6-.4-3.1-1.1-4.4-2-.3-.2-.8-.1-1 .2-.2.3-.1.8.2 1 1.5 1 3.1 1.8 4.9 2.3 1.3.4 1.4 1.8 1.4 3v.1c0 .6 0 1.1-.1 1.7-6 2.9-12.9 2.9-18.9 0-.1-.5-.1-1.1-.1-1.7v-.1c0-1.2.2-2.6 1.4-3 1.7-.5 3.4-1.2 4.9-2.3.3-.2.4-.7.2-1-.2-.3-.7-.4-1-.2-1.4.9-2.9 1.6-4.4 2h-.2C.1 17 0 19.5 0 20.5v.1c0 .8.1 1.6.3 2.4.1.1.2.3.3.3 6.5 3.4 14.4 3.4 20.9 0l.3-.3c.1-.7.2-1.5.2-2.3z"/></symbol><symbol id="icon_phone-icon" viewBox="0 0 18 18"><path d="M356.48 793.55a1.77 1.77 0 0 0-1.29-.59 1.83 1.83 0 0 0-1.3.59l-1.2 1.2-.29-.15-.38-.2a13.06 13.06 0 0 1-3.13-2.85 7.7 7.7 0 0 1-1-1.62c.31-.28.6-.58.88-.87l.32-.32a1.74 1.74 0 0 0 0-2.63l-1-1-.35-.36c-.23-.24-.47-.48-.72-.71a1.8 1.8 0 0 0-1.27-.56 1.86 1.86 0 0 0-1.29.56l-1.29 1.3a2.78 2.78 0 0 0-.83 1.77 6.65 6.65 0 0 0 .49 2.82 16.35 16.35 0 0 0 2.91 4.85 17.9 17.9 0 0 0 6 4.66 9.3 9.3 0 0 0 3.35 1h.24a2.87 2.87 0 0 0 2.2-.94 8.61 8.61 0 0 1 .67-.69l.49-.49a1.89 1.89 0 0 0 .57-1.31 1.83 1.83 0 0 0-.59-1.3zm1.36 4c-.15.16-.3.3-.46.46a10 10 0 0 0-.73.76 1.84 1.84 0 0 1-1.43.6H355a8.26 8.26 0 0 1-3-.89 16.9 16.9 0 0 1-5.62-4.39 15.42 15.42 0 0 1-2.74-4.56 5.42 5.42 0 0 1-.43-2.38 1.74 1.74 0 0 1 .52-1.13l1.3-1.3a.87.87 0 0 1 .58-.27.82.82 0 0 1 .56.27c.23.22.45.44.68.68l.36.37 1 1a.72.72 0 0 1 0 1.18l-.33.33c-.32.33-.62.63-1 .93a.77.77 0 0 0-.2.86 8.33 8.33 0 0 0 1.23 2 14 14 0 0 0 3.38 3.07 5.14 5.14 0 0 0 .47.25l.38.2a.83.83 0 0 0 .38.09.81.81 0 0 0 .58-.26l1.3-1.3a.86.86 0 0 1 .57-.28.77.77 0 0 1 .55.28l2.1 2.1a.75.75 0 0 1 0 1.19zM352 786.68a4.89 4.89 0 0 1 4 4 .51.51 0 0 0 .51.43h.09a.51.51 0 0 0 .42-.59 5.92 5.92 0 0 0-4.82-4.82.52.52 0 0 0-.59.42.51.51 0 0 0 .41.59zm0 0" transform="translate(-342.25 -782.4)"/><path d="M360.24 790.34a9.74 9.74 0 0 0-7.94-7.93.51.51 0 1 0-.17 1 8.7 8.7 0 0 1 7.1 7.09.51.51 0 0 0 .51.43h.09a.5.5 0 0 0 .42-.59zm0 0" transform="translate(-342.25 -782.4)"/></symbol><symbol id="icon_refresh" viewBox="0 0 612.035 612.035"><path d="M323.128 56.236l5.646-9.57 40.17-40.169C271.247-13.921 165.482 13.786 89.65 89.646-16.421 195.717-28.355 360.261 53.875 479.49L10.98 522.386l137.7 19.667-19.667-137.7-34.968 34.967c-60.978-96.724-49.322-226.078 34.94-310.34 53.244-53.243 124.486-77.501 194.143-72.744zm258.264 13.743l-137.7-19.667 19.668 137.7 38.25-38.25c78.726 98.31 72.521 242.186-18.583 333.317-61.116 61.117-145.989 84.039-224.882 68.739l-45.65 45.649c105.654 33.799 226.05 8.791 309.895-75.054 112.858-112.858 119.146-291.979 18.805-412.209l40.197-40.225z"/></symbol><symbol id="icon_search-icon" viewBox="0 0 18 19"><path d="M508.19 509l-4.72-5a7.64 7.64 0 0 0 1.9-5.07 7.49 7.49 0 1 0-7.49 7.62 7.41 7.41 0 0 0 4.46-1.51l4.75 5a.74.74 0 0 0 .55.24.75.75 0 0 0 .53-.22.78.78 0 0 0 .02-1.06zm-10.3-16.15a6.08 6.08 0 1 1-6 6.08 6 6 0 0 1 6-6.12z" transform="translate(-490.4 -491.27)"/></symbol><symbol id="icon_star" viewBox="0 0 39 37"><path fill-rule="evenodd" d="M19.5 2.501l5.603 10.056 11.395 2.166-7.933 8.382 1.44 11.394L19.5 29.623 8.995 34.499l1.439-11.394-7.932-8.382 11.395-2.166L19.5 2.501"/></symbol></svg>