<svg xmlns="http://www.w3.org/2000/svg"><symbol id="icon_arrow-1" viewBox="0 0 10 19"><path class="cls-1" d="M476.85 388.67l-8.78-8.92a.63.63 0 0 0-.84 0 .62.62 0 0 0-.21.43.51.51 0 0 0 .21.43l8.36 8.49-8.36 8.49a.62.62 0 0 0-.21.43.51.51 0 0 0 .21.43.59.59 0 0 0 .42.14.75.75 0 0 0 .42-.14l8.78-8.92a.65.65 0 0 0 0-.86z" transform="translate(-467.02 -379.59)"/></symbol><symbol id="icon_arrow-location" viewBox="0 0 8 4.56"><path d="M3.6 4.62L.16 1.18A.56.56 0 0 1 1 .39l3 3 3-3a.56.56 0 0 1 .79.79L4.4 4.62a.56.56 0 0 1-.8 0z" transform="translate(0 -.23)"/></symbol><symbol id="icon_arrow-menu-button" viewBox="0 0 6.2 11"><path d="M6.06 5.08L1.17.18a.72.72 0 0 0-.95 0A.66.66 0 0 0 0 .65a.63.63 0 0 0 .25.51L4.59 5.5.22 9.87a.66.66 0 0 0-.22.47.59.59 0 0 0 .24.49.68.68 0 0 0 .45.17.74.74 0 0 0 .47-.18L6 5.92a.69.69 0 0 0 .06-.84z"/></symbol><symbol id="icon_arrow-subscribe-button" viewBox="0 0 7.33 13"><path d="M7.16 6L1.38.21a.85.85 0 0 0-1.12 0A.78.78 0 0 0 0 .77a.75.75 0 0 0 .29.6L5.42 6.5.26 11.66a.78.78 0 0 0-.26.56.7.7 0 0 0 .28.58.8.8 0 0 0 .54.2.87.87 0 0 0 .56-.21L7.14 7a.81.81 0 0 0 .02-1z"/></symbol><symbol id="icon_arrow" viewBox="0 0 7 13"><path d="M471.48 381.43l-6-6a.54.54 0 0 0-.72 0 .52.52 0 0 0-.17.36.46.46 0 0 0 .19.37l5.59 5.63-5.6 5.64a.52.52 0 0 0-.17.36.46.46 0 0 0 .19.37.52.52 0 0 0 .35.12.61.61 0 0 0 .36-.13l6-6a.55.55 0 0 0-.02-.72z" transform="translate(-464.61 -375.27)"/></symbol><symbol id="icon_arrow_back_menu" viewBox="0 0 14 9.6"><path d="M.2 5.3l4.2 4.2c.3.3.7.3.9 0s.3-.7 0-.9L2.2 5.5h11.1c.4 0 .7-.3.7-.7s-.3-.7-.7-.7H2.2l3-3c.3-.3.3-.7 0-.9s-.7-.3-.9 0L.2 4.4c-.3.2-.3.6 0 .9z"/></symbol><symbol id="icon_burger-menu" viewBox="0 0 24.16 18.01"><rect y="8" width="24.16" height="2" rx="1" ry="1"/><rect y="16.01" width="24.16" height="2" rx="1" ry="1"/><rect width="24.16" height="2" rx="1" ry="1"/></symbol><symbol id="icon_cart-button" viewBox="0 0 24.2 26"><path d="M6.9 17.1h14.3c1.6 0 2.9-1.3 3-2.9V7.7L5.4 4.9v-3L1 .1C.6-.1.2.1.1.5s0 .8.4.9L4 2.9v15.8c0 1.5 1.1 2.7 2.6 2.9-.8 1.4-.4 3.2 1 4s3.2.4 4-1c.3-.4.4-1 .4-1.5s-.1-1-.4-1.5H18c-.3.4-.4 1-.4 1.5 0 1.6 1.3 2.9 2.9 2.9s2.9-1.3 2.9-2.9-1.3-2.9-2.9-2.9H6.9c-.8 0-1.5-.7-1.5-1.5v-2c.4.3 1 .4 1.5.4zm3.6 6c0 .8-.7 1.5-1.5 1.4-.8 0-1.5-.7-1.4-1.5 0-.8.7-1.4 1.5-1.4.7 0 1.4.7 1.4 1.5zm11.5 0c0 .8-.7 1.5-1.5 1.5s-1.5-.7-1.5-1.5.7-1.5 1.5-1.5 1.5.7 1.5 1.5zm-.8-7.4H6.9c-.8 0-1.5-.7-1.5-1.5V6.4l17.3 2.4v5.4c0 .8-.6 1.5-1.5 1.5z"/></symbol><symbol id="icon_close-menu" viewBox="0 0 16.82 16.82"><path class="cls-1" d="M16.55 15.2L9.76 8.41l6.78-6.78A1 1 0 0 0 15.2.28L8.41 7.06 1.63.28A1 1 0 0 0 .28 1.63l6.79 6.78L.28 15.2a1 1 0 1 0 1.35 1.35l6.78-6.79 6.79 6.79a1 1 0 1 0 1.35-1.35z"/></symbol><symbol id="icon_email-icon" viewBox="0 0 15 11">&lt;<path d="M317.51 350.91a1.72 1.72 0 0 0-1.28-.51h-11.17a1.87 1.87 0 0 0-1.91 1.83v7.33a1.87 1.87 0 0 0 1.91 1.83h11.17a1.87 1.87 0 0 0 1.91-1.83v-7.33a3.1 3.1 0 0 0-.63-1.32zm-13.4 1.32a.9.9 0 0 1 .85-.81h11.17a.9.9 0 0 1 .85.81v7.33a.9.9 0 0 1-.85.81H305a.9.9 0 0 1-.85-.81v-7.33z" transform="translate(-303.15 -350.4)"/><path class="cls-1" d="M305 352.74l3.51 3.06-3.51 3.26a.47.47 0 0 0 0 .71.82.82 0 0 0 .43.2c.11 0 .32-.1.43-.1l3.62-3.26 1 .81a.53.53 0 0 0 .43.1c.11 0 .32-.1.43-.1l1-.81 3.62 3.36a.53.53 0 0 0 .43.1.82.82 0 0 0 .43-.2.3.3 0 0 0 .11-.41.76.76 0 0 0-.21-.41L313 355.8l3.51-3.06a.47.47 0 0 0 0-.71.53.53 0 0 0-.74 0l-5 4.18-.85-.71a.1.1 0 0 1-.11-.1l-3.89-3.4a.53.53 0 0 0-.43-.1.82.82 0 0 0-.43.2.34.34 0 0 0-.06.64z" transform="translate(-303.15 -350.4)"/></symbol><symbol id="icon_facebook-icon" viewBox="0 0 9 15"><path d="M52.22 40.56h-2.16c-2.43 0-4 1.45-4 3.69V46H43.9a.32.32 0 0 0-.34.31v2.47a.32.32 0 0 0 .34.31h2.17v6.22a.32.32 0 0 0 .34.31h2.83a.32.32 0 0 0 .34-.31V49h2.54a.32.32 0 0 0 .34-.31v-2.43a.29.29 0 0 0-.1-.22.36.36 0 0 0-.24-.04h-2.54v-1.49c0-.69.18-1 1.19-1h1.45a.32.32 0 0 0 .34-.31v-2.33a.32.32 0 0 0-.34-.31z" transform="translate(-43.56 -40.56)"/></symbol><symbol id="icon_instagram-icon" viewBox="0 0 15 15"><path d="M87.89 77h-6.72A4.14 4.14 0 0 0 77 81.17v6.72A4.14 4.14 0 0 0 81.17 92h6.72A4.14 4.14 0 0 0 92 87.89v-6.72A4.14 4.14 0 0 0 87.89 77zm2.81 10.89a2.81 2.81 0 0 1-2.81 2.81h-6.72a2.81 2.81 0 0 1-2.81-2.81v-6.72a2.81 2.81 0 0 1 2.81-2.81h6.72a2.81 2.81 0 0 1 2.81 2.81v6.72z" transform="translate(-77.03 -77.03)"/><path d="M84.53 80.67a3.87 3.87 0 1 0 3.87 3.87 3.87 3.87 0 0 0-3.87-3.87zm0 6.4a2.53 2.53 0 1 1 2.53-2.53 2.54 2.54 0 0 1-2.53 2.53zm4.03-7.53a1 1 0 1 0 .69.29 1 1 0 0 0-.69-.29z" transform="translate(-77.03 -77.03)"/></symbol><symbol id="icon_location-icon" viewBox="0 0 12 18"><path d="M6.1 3.8c-1.3-.1-2.5 1-2.5 2.3-.1 1.3 1 2.5 2.3 2.5 1.3.1 2.5-1 2.5-2.3v-.1c0-1.3-1-2.4-2.3-2.4zm1.3 2.4C7.3 7 6.7 7.5 6 7.5s-1.3-.7-1.3-1.4.6-1.3 1.3-1.3c.8 0 1.4.7 1.4 1.4z"/><path d="M10.2 1.8C8.1-.5 4.4-.6 2 1.5c-.1.1-.2.2-.2.3-2.1 2.5-2.3 6.1-.6 8.8L6 18l4.8-7.3c1.8-2.8 1.6-6.3-.6-8.9zm-.2 8.3l-4 6.1-4-6.1C.5 7.7.7 4.7 2.5 2.6 4.3.6 7.4.5 9.4 2.4l.2.2c1.8 2.1 1.9 5.2.4 7.5z"/></symbol><symbol id="icon_login-register-button" viewBox="0 0 22 26"><path d="M10.9 14h.2c1.4 0 2.8-.6 3.8-1.6 2.1-2.3 1.7-6.3 1.7-6.7-.1-2.9-1.5-4.2-2.6-4.9-.9-.5-1.9-.8-2.9-.8H11c-1 0-2 .3-2.9.7-1.1.7-2.5 2.1-2.6 5 0 .4-.4 4.4 1.7 6.7.9 1 2.3 1.6 3.7 1.6zm-4-8.2c.2-3.9 2.9-4.3 4.1-4.3 1.4 0 3.9.6 4.1 4.3 0 0 .4 3.7-1.3 5.6-.7.8-1.7 1.2-2.8 1.1-1 0-2.1-.4-2.8-1.1-1.6-1.9-1.3-5.6-1.3-5.6zM22 20.7v-.1c0-1.1-.1-3.6-2.4-4.4h-.1c-1.6-.4-3.1-1.1-4.4-2-.3-.2-.8-.1-1 .2-.2.3-.1.8.2 1 1.5 1 3.1 1.8 4.9 2.3 1.3.4 1.4 1.8 1.4 3v.1c0 .6 0 1.1-.1 1.7-6 2.9-12.9 2.9-18.9 0-.1-.5-.1-1.1-.1-1.7v-.1c0-1.2.2-2.6 1.4-3 1.7-.5 3.4-1.2 4.9-2.3.3-.2.4-.7.2-1-.2-.3-.7-.4-1-.2-1.4.9-2.9 1.6-4.4 2h-.2C.1 17 0 19.5 0 20.5v.1c0 .8.1 1.6.3 2.4.1.1.2.3.3.3 6.5 3.4 14.4 3.4 20.9 0l.3-.3c.1-.7.2-1.5.2-2.3z"/></symbol><symbol id="icon_metro-icon" viewBox="0 0 14 9.86"><path d="M7 9.86l2.28-3.95.94 2.68h-.76v1.17H14V8.59h-.87L9.87 0 7 5.29 4.13 0 .87 8.59H0v1.17h4.54V8.59h-.76l.94-2.68L7 9.86z"/></symbol><symbol id="icon_phone-icon" viewBox="0 0 18 18"><path d="M356.48 793.55a1.77 1.77 0 0 0-1.29-.59 1.83 1.83 0 0 0-1.3.59l-1.2 1.2-.29-.15-.38-.2a13.06 13.06 0 0 1-3.13-2.85 7.7 7.7 0 0 1-1-1.62c.31-.28.6-.58.88-.87l.32-.32a1.74 1.74 0 0 0 0-2.63l-1-1-.35-.36c-.23-.24-.47-.48-.72-.71a1.8 1.8 0 0 0-1.27-.56 1.86 1.86 0 0 0-1.29.56l-1.29 1.3a2.78 2.78 0 0 0-.83 1.77 6.65 6.65 0 0 0 .49 2.82 16.35 16.35 0 0 0 2.91 4.85 17.9 17.9 0 0 0 6 4.66 9.3 9.3 0 0 0 3.35 1h.24a2.87 2.87 0 0 0 2.2-.94 8.61 8.61 0 0 1 .67-.69l.49-.49a1.89 1.89 0 0 0 .57-1.31 1.83 1.83 0 0 0-.59-1.3zm1.36 4c-.15.16-.3.3-.46.46a10 10 0 0 0-.73.76 1.84 1.84 0 0 1-1.43.6H355a8.26 8.26 0 0 1-3-.89 16.9 16.9 0 0 1-5.62-4.39 15.42 15.42 0 0 1-2.74-4.56 5.42 5.42 0 0 1-.43-2.38 1.74 1.74 0 0 1 .52-1.13l1.3-1.3a.87.87 0 0 1 .58-.27.82.82 0 0 1 .56.27c.23.22.45.44.68.68l.36.37 1 1a.72.72 0 0 1 0 1.18l-.33.33c-.32.33-.62.63-1 .93a.77.77 0 0 0-.2.86 8.33 8.33 0 0 0 1.23 2 14 14 0 0 0 3.38 3.07 5.14 5.14 0 0 0 .47.25l.38.2a.83.83 0 0 0 .38.09.81.81 0 0 0 .58-.26l1.3-1.3a.86.86 0 0 1 .57-.28.77.77 0 0 1 .55.28l2.1 2.1a.75.75 0 0 1 0 1.19zM352 786.68a4.89 4.89 0 0 1 4 4 .51.51 0 0 0 .51.43h.09a.51.51 0 0 0 .42-.59 5.92 5.92 0 0 0-4.82-4.82.52.52 0 0 0-.59.42.51.51 0 0 0 .41.59zm0 0" transform="translate(-342.25 -782.4)"/><path d="M360.24 790.34a9.74 9.74 0 0 0-7.94-7.93.51.51 0 1 0-.17 1 8.7 8.7 0 0 1 7.1 7.09.51.51 0 0 0 .51.43h.09a.5.5 0 0 0 .42-.59zm0 0" transform="translate(-342.25 -782.4)"/></symbol><symbol id="icon_refresh" viewBox="0 0 612.035 612.035"><path d="M323.128 56.236l5.646-9.57 40.17-40.169C271.247-13.921 165.482 13.786 89.65 89.646-16.421 195.717-28.355 360.261 53.875 479.49L10.98 522.386l137.7 19.667-19.667-137.7-34.968 34.967c-60.978-96.724-49.322-226.078 34.94-310.34 53.244-53.243 124.486-77.501 194.143-72.744zm258.264 13.743l-137.7-19.667 19.668 137.7 38.25-38.25c78.726 98.31 72.521 242.186-18.583 333.317-61.116 61.117-145.989 84.039-224.882 68.739l-45.65 45.649c105.654 33.799 226.05 8.791 309.895-75.054 112.858-112.858 119.146-291.979 18.805-412.209l40.197-40.225z"/></symbol><symbol id="icon_rouble-bold" viewBox="0 0 22 24"><path transform="translate(-1124 -392)" d="M1125 411v-3h3v-2h-3v-3h3v-9.33h8.49c2.45 0 4.38.63 5.78 1.88a6.29 6.29 0 0 1 2.11 4.93c0 2.04-.7 2.68-2.1 3.92-1.41 1.24-3.34 1.86-5.8 1.86h-4.21V408H1143v3h-10.73v4h-4.28v-4zm7.27-8.03h4.22c2.77-.1 3.63-1.77 3.63-2.46 0-1.02-.3-1.87-.91-2.54-.62-.67-1.52-1-2.72-1h-4.22z"/></symbol><symbol id="icon_rouble" viewBox="0 0 22 24"><path transform="translate(-1260 -392)" d="M1262 409v-2h3.64v-2H1262v-2h3.64v-9.33h8.16c2.27 0 4.04.59 5.3 1.76a6.03 6.03 0 0 1 1.89 4.63 5.14 5.14 0 0 1-1.9 3.65c-1.25 1.16-3.02 1.73-5.3 1.73h-5.27V407H1279v2h-10.48v6h-2.88v-6zm11-6v.17h.8c2.89 0 4.3-2.06 4.3-3.09 0-1.18-.36-2.16-1.07-2.95-.72-.8-1.8-1.19-3.23-1.19h-5.28V403z"/></symbol><symbol id="icon_search-icon" viewBox="0 0 18 19"><path d="M508.19 509l-4.72-5a7.64 7.64 0 0 0 1.9-5.07 7.49 7.49 0 1 0-7.49 7.62 7.41 7.41 0 0 0 4.46-1.51l4.75 5a.74.74 0 0 0 .55.24.75.75 0 0 0 .53-.22.78.78 0 0 0 .02-1.06zm-10.3-16.15a6.08 6.08 0 1 1-6 6.08 6 6 0 0 1 6-6.12z" transform="translate(-490.4 -491.27)"/></symbol><symbol id="icon_star" viewBox="0 0 39 37"><path fill-rule="evenodd" d="M19.5 2.501l5.603 10.056 11.395 2.166-7.933 8.382 1.44 11.394L19.5 29.623 8.995 34.499l1.439-11.394-7.932-8.382 11.395-2.166L19.5 2.501"/></symbol><symbol id="icon_vk-icon" viewBox="0 0 16 10"><path d="M272.35 265.35l.54-.78q1.44-2.1 1.25-2.68l-.05-.09a.48.48 0 0 0-.26-.15 1.21 1.21 0 0 0-.53 0h-2.68a.38.38 0 0 0-.09.1.64.64 0 0 0-.08.16 15.56 15.56 0 0 1-.89 2.05q-.31.57-.57 1a4.65 4.65 0 0 1-.43.61 3.12 3.12 0 0 1-.32.31.29.29 0 0 1-.22.1h-.14a.59.59 0 0 1-.19-.22 1.07 1.07 0 0 1-.1-.36v-3.08a2.29 2.29 0 0 0 0-.42 1.55 1.55 0 0 0-.09-.29.48.48 0 0 0-.17-.22.92.92 0 0 0-.28-.12 5.08 5.08 0 0 0-1.12-.12 5 5 0 0 0-2 .22 1.15 1.15 0 0 0-.32.27q-.15.2 0 .22a1 1 0 0 1 .71.39l.05.11a1.89 1.89 0 0 1 .12.42 4.64 4.64 0 0 1 .08.67 7.76 7.76 0 0 1 0 1.14q0 .47-.08.74a1.59 1.59 0 0 1-.11.43l-.1.2a.58.58 0 0 1-.22 0 .5.5 0 0 1-.28-.13 2.05 2.05 0 0 1-.35-.35 4.69 4.69 0 0 1-.4-.63q-.22-.4-.47-.95l-.13-.26-.34-.74q-.22-.48-.38-.94a.6.6 0 0 0-.2-.29l-.13-.08-.19-.06h-2.28a.55.55 0 0 0-.47.17v.05a.32.32 0 0 0 0 .15.79.79 0 0 0 .05.25q.5 1.29 1.09 2.48t1 1.93q.43.73.88 1.38t.6.83l.23.27.21.22a5.09 5.09 0 0 0 .59.52 9.82 9.82 0 0 0 .86.6 4.43 4.43 0 0 0 1.1.48 3.46 3.46 0 0 0 1.22.15h1a.63.63 0 0 0 .44-.2.65.65 0 0 0 .06-.17 1 1 0 0 0 0-.25 3.28 3.28 0 0 1 .05-.71 2 2 0 0 1 .14-.47 1.17 1.17 0 0 1 .18-.27.74.74 0 0 1 .14-.13h.07a.5.5 0 0 1 .47.14 2.9 2.9 0 0 1 .51.53q.24.31.57.71a4.05 4.05 0 0 0 .58.58l.17.11a2 2 0 0 0 .43.2.86.86 0 0 0 .47 0h2.13a.9.9 0 0 0 .49-.11.44.44 0 0 0 .21-.25.77.77 0 0 0 0-.31 1.22 1.22 0 0 0-.06-.24l-.05-.11a8.93 8.93 0 0 0-1.59-2q-.53-.56-.67-.75a.75.75 0 0 1-.12-.74 6.89 6.89 0 0 1 .46-1.22z" transform="translate(-258.17 -261.17)"/></symbol></svg>