<svg xmlns="http://www.w3.org/2000/svg"><symbol id="icon_arrow-1" viewBox="0 0 10 19"><path class="cls-1" d="M476.85 388.67l-8.78-8.92a.63.63 0 0 0-.84 0 .62.62 0 0 0-.21.43.51.51 0 0 0 .21.43l8.36 8.49-8.36 8.49a.62.62 0 0 0-.21.43.51.51 0 0 0 .21.43.59.59 0 0 0 .42.14.75.75 0 0 0 .42-.14l8.78-8.92a.65.65 0 0 0 0-.86z" transform="translate(-467.02 -379.59)"/></symbol><symbol id="icon_arrow-icon-bread-crumbs" viewBox="0 0 9 7"><path class="cls-1" d="M17.31 12.35a.3.3 0 0 0-.45 0 .38.38 0 0 0 0 .5l2.3 2.54h-7.6a.33.33 0 0 0-.32.35.34.34 0 0 0 .32.36h7.59l-2.3 2.54a.39.39 0 0 0 0 .5.3.3 0 0 0 .45 0L20.15 16a.37.37 0 0 0 0-.5z" transform="translate(-11.24 -12.25)"/></symbol><symbol id="icon_arrow-icon-navigation" viewBox="0 0 13 25"><path class="cls-1" d="M244.89 238.09l-11.61-11.79a.69.69 0 0 0-1 0 .71.71 0 0 0 0 1l11.11 11.29-11.11 11.29a.71.71 0 0 0 0 1 .7.7 0 0 0 .49.21.67.67 0 0 0 .49-.21l11.61-11.79a.71.71 0 0 0 .02-1z" transform="translate(-232.09 -226.09)"/></symbol><symbol id="icon_arrow-location" viewBox="0 0 8 4.56"><path d="M3.6 4.62L.16 1.18A.56.56 0 0 1 1 .39l3 3 3-3a.56.56 0 0 1 .79.79L4.4 4.62a.56.56 0 0 1-.8 0z" transform="translate(0 -.23)"/></symbol><symbol id="icon_arrow-menu-button" viewBox="0 0 6.2 11"><path d="M6.06 5.08L1.17.18a.72.72 0 0 0-.95 0A.66.66 0 0 0 0 .65a.63.63 0 0 0 .25.51L4.59 5.5.22 9.87a.66.66 0 0 0-.22.47.59.59 0 0 0 .24.49.68.68 0 0 0 .45.17.74.74 0 0 0 .47-.18L6 5.92a.69.69 0 0 0 .06-.84z"/></symbol><symbol id="icon_arrow-subscribe-button" viewBox="0 0 7.33 13"><path d="M7.16 6L1.38.21a.85.85 0 0 0-1.12 0A.78.78 0 0 0 0 .77a.75.75 0 0 0 .29.6L5.42 6.5.26 11.66a.78.78 0 0 0-.26.56.7.7 0 0 0 .28.58.8.8 0 0 0 .54.2.87.87 0 0 0 .56-.21L7.14 7a.81.81 0 0 0 .02-1z"/></symbol><symbol id="icon_arrow" viewBox="0 0 7 13"><path d="M471.48 381.43l-6-6a.54.54 0 0 0-.72 0 .52.52 0 0 0-.17.36.46.46 0 0 0 .19.37l5.59 5.63-5.6 5.64a.52.52 0 0 0-.17.36.46.46 0 0 0 .19.37.52.52 0 0 0 .35.12.61.61 0 0 0 .36-.13l6-6a.55.55 0 0 0-.02-.72z" transform="translate(-464.61 -375.27)"/></symbol><symbol id="icon_arrow_back_menu" viewBox="0 0 14 9.6"><path d="M.2 5.3l4.2 4.2c.3.3.7.3.9 0s.3-.7 0-.9L2.2 5.5h11.1c.4 0 .7-.3.7-.7s-.3-.7-.7-.7H2.2l3-3c.3-.3.3-.7 0-.9s-.7-.3-.9 0L.2 4.4c-.3.2-.3.6 0 .9z"/></symbol><symbol id="icon_boxberry" viewBox="0 0 97.35 20"><circle cx="10" cy="2.44" r="2.44"/><circle cx="10" cy="17.56" r="2.44"/><circle cx="10" cy="10" r="2.44"/><circle cx="2.44" cy="10" r="2.44"/><circle cx="17.56" cy="10" r="2.44"/><circle cx="10" cy="10" r="2.44"/><circle cx="5.74" cy="14.26" r="2.44" transform="rotate(-45 5.73 14.267)"/><circle cx="14.26" cy="5.74" r="2.44" transform="rotate(-45 14.268 5.74)"/><circle cx="10" cy="10" r="2.44" transform="rotate(-45 10.001 9.997)"/><circle cx="5.74" cy="5.74" r="2.44" transform="rotate(-45 5.739 5.743)"/><circle cx="14.26" cy="14.26" r="2.44" transform="rotate(-45 14.258 14.264)"/><circle cx="10" cy="10" r="2.44" transform="rotate(-45 10.001 9.997)"/><path d="M30.21 6.82A2.86 2.86 0 0 1 32.66 8a5.6 5.6 0 0 1 .88 3.35 5.51 5.51 0 0 1-.91 3.39 3.19 3.19 0 0 1-4.93.07h-.16l-.4 1h-1.85V3.53h2.41v2.86q0 .55-.09 1.75h.09a2.79 2.79 0 0 1 2.51-1.32zm-.78 1.93a1.52 1.52 0 0 0-1.3.55 3.14 3.14 0 0 0-.43 1.81v.26a3.72 3.72 0 0 0 .42 2 1.51 1.51 0 0 0 1.34.62 1.34 1.34 0 0 0 1.18-.68 3.69 3.69 0 0 0 .44-2 3.52 3.52 0 0 0-.44-2 1.39 1.39 0 0 0-1.21-.56zm14.13 2.64a4.75 4.75 0 0 1-1.14 3.37A4.13 4.13 0 0 1 39.26 16a4.42 4.42 0 0 1-2.26-.58 3.71 3.71 0 0 1-1.49-1.6 5.38 5.38 0 0 1-.51-2.43A4.72 4.72 0 0 1 36.13 8a4.15 4.15 0 0 1 3.18-1.2 4.46 4.46 0 0 1 2.24.55A3.7 3.7 0 0 1 43 9a5.33 5.33 0 0 1 .56 2.39zm-6.11 0a3.71 3.71 0 0 0 .43 2 1.54 1.54 0 0 0 1.4.67 1.52 1.52 0 0 0 1.39-.67 3.76 3.76 0 0 0 .42-2 3.65 3.65 0 0 0-.43-2 1.81 1.81 0 0 0-2.79 0 3.65 3.65 0 0 0-.42 2zm9.91-.08L44.52 7h2.73L49 9.8 50.7 7h2.73l-2.88 4.32 3 4.51h-2.73L49 12.8l-1.86 3h-2.77zm12.46-4.49A2.86 2.86 0 0 1 62.27 8a5.6 5.6 0 0 1 .88 3.35 5.51 5.51 0 0 1-.91 3.39 3.19 3.19 0 0 1-4.93.07h-.16l-.4 1h-1.84V3.53h2.41v2.86q0 .55-.09 1.75h.09a2.79 2.79 0 0 1 2.5-1.32zM59 8.75a1.52 1.52 0 0 0-1.3.55 3.14 3.14 0 0 0-.43 1.81v.26a3.72 3.72 0 0 0 .42 2 1.51 1.51 0 0 0 1.34.62 1.34 1.34 0 0 0 1.18-.68 3.69 3.69 0 0 0 .44-2 3.52 3.52 0 0 0-.44-2A1.39 1.39 0 0 0 59 8.75zM69.15 16a4.56 4.56 0 0 1-3.33-1.18 4.46 4.46 0 0 1-1.2-3.33A4.9 4.9 0 0 1 65.72 8a4 4 0 0 1 3.07-1.21 3.89 3.89 0 0 1 2.91 1.07 4 4 0 0 1 1 2.95V12H67a2.32 2.32 0 0 0 .61 1.6 2.14 2.14 0 0 0 1.6.58 6.68 6.68 0 0 0 1.56-.18 7.62 7.62 0 0 0 1.49-.53v1.86a5.68 5.68 0 0 1-1.35.47 8.63 8.63 0 0 1-1.76.2zm-.34-7.46A1.53 1.53 0 0 0 67.6 9a2.25 2.25 0 0 0-.5 1.38h3.38A2 2 0 0 0 70 9a1.58 1.58 0 0 0-1.19-.46zm10.83-1.72a3.88 3.88 0 0 1 .81.07l-.18 2.26a2.76 2.76 0 0 0-.71-.08 2.55 2.55 0 0 0-1.8.59 2.14 2.14 0 0 0-.64 1.66v4.5h-2.41V7h1.82l.36 1.49H77a3.33 3.33 0 0 1 1.11-1.2 2.74 2.74 0 0 1 1.53-.47zm7.36 0a3.88 3.88 0 0 1 .81.07l-.19 2.26a2.76 2.76 0 0 0-.71-.08 2.55 2.55 0 0 0-1.8.59 2.14 2.14 0 0 0-.64 1.66v4.5h-2.41V7h1.82l.36 1.49h.12a3.33 3.33 0 0 1 1.11-1.2A2.74 2.74 0 0 1 87 6.82zm1.14.18h2.64l1.67 5a7 7 0 0 1 .29 1.53 6.77 6.77 0 0 1 .39-1.53l1.64-5h2.58l-3.74 10a4.33 4.33 0 0 1-1.47 2 3.71 3.71 0 0 1-2.22.69 5.66 5.66 0 0 1-1.23-.13v-1.9a4.12 4.12 0 0 0 .95.1 1.72 1.72 0 0 0 1.12-.39 2.54 2.54 0 0 0 .75-1.18l.14-.43z"/></symbol><symbol id="icon_burger-menu" viewBox="0 0 24.16 18.01"><rect y="8" width="24.16" height="2" rx="1" ry="1"/><rect y="16.01" width="24.16" height="2" rx="1" ry="1"/><rect width="24.16" height="2" rx="1" ry="1"/></symbol><symbol id="icon_cancel-copy" viewBox="0 0 14 14"><path d="M11.95 2.05a7 7 0 1 0-9.9 9.9 7 7 0 1 0 9.9-9.9zm-.56 9.34a6.2 6.2 0 0 1-8.78-8.78 6.2 6.2 0 0 1 8.77 8.77zm0 0"/><path d="M10.08 3.92a.4.4 0 0 0-.56 0L7 6.44 4.48 3.92a.4.4 0 1 0-.56.56L6.44 7 3.92 9.52a.4.4 0 0 0 .28.68.39.39 0 0 0 .28-.12L7 7.56l2.52 2.52a.4.4 0 0 0 .28.12.38.38 0 0 0 .28-.12.4.4 0 0 0 0-.56L7.56 7l2.52-2.52a.4.4 0 0 0 0-.56zm0 0"/></symbol><symbol id="icon_cart-button" viewBox="0 0 24.2 26"><path d="M6.9 17.1h14.3c1.6 0 2.9-1.3 3-2.9V7.7L5.4 4.9v-3L1 .1C.6-.1.2.1.1.5s0 .8.4.9L4 2.9v15.8c0 1.5 1.1 2.7 2.6 2.9-.8 1.4-.4 3.2 1 4s3.2.4 4-1c.3-.4.4-1 .4-1.5s-.1-1-.4-1.5H18c-.3.4-.4 1-.4 1.5 0 1.6 1.3 2.9 2.9 2.9s2.9-1.3 2.9-2.9-1.3-2.9-2.9-2.9H6.9c-.8 0-1.5-.7-1.5-1.5v-2c.4.3 1 .4 1.5.4zm3.6 6c0 .8-.7 1.5-1.5 1.4-.8 0-1.5-.7-1.4-1.5 0-.8.7-1.4 1.5-1.4.7 0 1.4.7 1.4 1.5zm11.5 0c0 .8-.7 1.5-1.5 1.5s-1.5-.7-1.5-1.5.7-1.5 1.5-1.5 1.5.7 1.5 1.5zm-.8-7.4H6.9c-.8 0-1.5-.7-1.5-1.5V6.4l17.3 2.4v5.4c0 .8-.6 1.5-1.5 1.5z"/></symbol><symbol id="icon_checked" viewBox="0 0 9 7"><path class="cls-1" d="M17.93 7.85l-.47-.47a.47.47 0 0 0-.63 0L12.25 12l-1.84-2a.48.48 0 0 0-.7 0l-.47.47a.56.56 0 0 0-.13.37.59.59 0 0 0 .13.33l.07.1 2.6 2.81a.46.46 0 0 0 .37.13.42.42 0 0 0 .37-.17L18 8.52a.48.48 0 0 0-.07-.67z" transform="translate(-9.08 -7.24)"/></symbol><symbol id="icon_close-menu" viewBox="0 0 16.82 16.82"><path class="cls-1" d="M16.55 15.2L9.76 8.41l6.78-6.78A1 1 0 0 0 15.2.28L8.41 7.06 1.63.28A1 1 0 0 0 .28 1.63l6.79 6.78L.28 15.2a1 1 0 1 0 1.35 1.35l6.78-6.79 6.79 6.79a1 1 0 1 0 1.35-1.35z"/></symbol><symbol id="icon_close" viewBox="0 0 10 10"><path d="M24.87 24l3.93-3.93a.63.63 0 1 0-.88-.88L24 23.1l-3.93-3.93a.63.63 0 0 0-.88.88L23.1 24l-3.93 3.93a.63.63 0 1 0 .88.88L24 24.87l3.93 3.93a.63.63 0 0 0 .88-.88z" transform="translate(-18.99 -18.99)"/></symbol><symbol id="icon_delete-icon" viewBox="0 0 8 8"><path d="M7.85.15a.5.5 0 0 0-.7 0L4 3.3.85.15a.5.5 0 1 0-.7.7L3.3 4 .15 7.15a.5.5 0 0 0 0 .7A.5.5 0 0 0 .5 8a.48.48 0 0 0 .35-.15L4 4.7l3.15 3.15A.5.5 0 0 0 7.5 8a.48.48 0 0 0 .35-.15.5.5 0 0 0 0-.7L4.7 4 7.85.85a.5.5 0 0 0 0-.7zm0 0"/></symbol><symbol id="icon_dpd" viewBox="0 0 44.1 20"><path d="M27.7 16c-.9.2-2 .3-3 .3-2.6 0-4.2-1.3-4.2-3.8 0-2.3 1.6-3.8 3.9-3.8.5 0 1.1.1 1.4.2V5.7h2V16zm-2-5.2c-.3-.1-.7-.2-1.2-.2-1.2 0-2 .7-2 2 0 1.4.9 2.2 2.3 2.2.2 0 .6 0 1-.1v-3.9zM44.1 16c-.9.2-2 .3-3 .3-2.5 0-4.2-1.3-4.2-3.8 0-2.3 1.6-3.8 3.9-3.8.5 0 1.1.1 1.4.2V5.7h2V16zm-2-5.2c-.3-.1-.7-.2-1.2-.2-1.2 0-2 .7-2 2 0 1.4.9 2.2 2.3 2.2.2 0 .6 0 .9-.1v-3.9zm-11.2 0c.3-.1.8-.2 1.2-.2 1.2 0 2.1.7 2.1 1.9 0 1.5-.9 2.2-2.2 2.2v1.7c2.6 0 4.1-1.4 4.1-3.9 0-2.3-1.6-3.6-4.1-3.6-1.2 0-2.4.3-3.2.6v9.7h2l.1-8.4zM17 4.3zm-.4-.2l.3.4.2-.1-.5-.3z"/><path d="M16.1 3.8l.6.7.2-.1-.2-.3-.6-.3z"/><path d="M15.6 3.5l1 1.1.2-.1-.6-.7c0 .1-.6-.3-.6-.3zm-.5-.2l1.3 1.5.2-.1-.9-1-.6-.4zm2.4 2.6l-.1.1.1.2v-.3z"/><path d="M14.6 3l1.6 1.8.2-.1-1.2-1.4-.6-.3zm2.8 2.9l-.2.1.3.4V6l-.1-.1z"/><path d="M14.1 2.7L16 5l.2-.1-1.5-1.8-.6-.4zM17.2 6l-.2.2.5.6v-.4l-.3-.4z"/><path d="M13.6 2.5l2.2 2.6.2-.2-1.8-2.1-.6-.3zM17 6.1l-.2.1.7.8v-.3l-.5-.6z"/><path d="M13.1 2.2l2.5 3 .2-.2-2.2-2.5c.1 0-.5-.3-.5-.3zm3.8 4l-.2.1.9 1V7c-.1 0-.7-.8-.7-.8z"/><path d="M12.6 1.9l2.9 3.3.2-.1-2.5-2.9c0 .1-.6-.3-.6-.3zm4.1 4.5l-.2.1 1 1.2v-.4l-.8-.9z"/><path d="M12.1 1.7l3.2 3.7.2-.1L12.7 2l-.6-.3zm4.4 4.8l-.2.1L17.5 8v-.4l-1-1.1z"/><path d="M11.6 1.4l3.5 4.1.2-.1-3.1-3.6-.6-.4zm4.7 5.2l-.2.1 1.4 1.6v-.4l-1.2-1.3z"/><path d="M11.1 1.1l3.8 4.4.2-.1-3.4-4-.6-.3zm5 5.6l-.2.1 1.6 1.9v-.5l-1.4-1.5z"/><path d="M10.6.9l4.1 4.8.2-.1-3.7-4.3c0-.1-.6-.4-.6-.4zM16 6.8l-.2.1L17.5 9v-.4L16 6.8z"/><path d="M10.1.6l4.5 5.2.2-.1L10.7 1l-.6-.4zm5.7 6.3l-.2.1 1.9 2.3v-.4l-1.7-2z"/><path d="M9.6.3l4.8 5.6.2-.1L10.2.7 9.6.3zm6 6.7l-.2.1 2.1 2.5v-.4L15.6 7z"/><path d="M9.1.1L14.2 6l.2-.1L9.7.4 9.1.1zm6.3 7l-.2.1 2.3 2.7v-.4l-2.1-2.4z"/><path d="M8.8 0L14 6.1l.2-.1-5-5.8-.1-.1C9 0 8.9 0 8.8 0zm6.4 7.2l-.2.1 2.5 2.9v-.4l-2.3-2.6z"/><path d="M8.8 0h-.3l5.3 6.2.2-.1L8.8 0zm6.3 7.3l-.2.1 2.7 3.1v-.4c-.1 0-2.5-2.8-2.5-2.8z"/><path d="M8.6 0s-.1 0-.1.1h-.2l5.3 6.2.2-.1c.1 0-5.2-6.2-5.2-6.2zm6.3 7.4l-.2.1 2.8 3.3v-.4l-2.6-3z"/><path d="M8.4.1l-.3.1 5.3 6.2.2-.1c.1 0-5.2-6.2-5.2-6.2zm6.3 7.4l-.2.1 3 3.5v-.4c0 .1-2.8-3.2-2.8-3.2z"/><path d="M8.2.2L8 .3l5.3 6.2.2-.1L8.2.2zm6.3 7.4l-.2.1 3.2 3.7V11c0 .1-3-3.4-3-3.4z"/><path d="M8 .3l-.2.1 5.3 6.2.2-.1L8 .3zm6.3 7.4l-.2.1 3.4 4v-.4l-3.2-3.7z"/><path d="M7.8.4l-.2.1 5.3 6.2.2-.1L7.8.4zm6.3 7.4l-.2.1 3.6 4.2v-.4l-3.4-3.9z"/><path d="M7.6.5l-.2.1 5.3 6.2.2-.1L7.6.5zM14 7.9l-.3.1 3.7 4.4V12c.1 0-3.4-4.1-3.4-4.1z"/><path d="M7.4.6l-.2.1 5.3 6.2.2-.1c.1 0-5.3-6.2-5.3-6.2zM13.8 8l-.2.1 3.9 4.6v-.4L13.8 8z"/><path d="M7.3.7L7 .8 12.4 7l.2-.1L7.3.7zm6.3 7.4l-.2.1 4.1 4.8v-.4l-3.9-4.5z"/><path d="M7.1.8l-.3.1 5.3 6.2.3-.1L7.1.8zm6.3 7.4l-.2.1 4.3 5V13l-4.1-4.8z"/><path d="M6.9.9l-.2.1L12 7.3l.2-.1L6.9.9zm6.3 7.4l-.2.1 4.5 5.2v-.4c0 .1-4.3-4.9-4.3-4.9z"/><path d="M6.7 1l-.2.1 5.3 6.2.2-.1L6.7 1zm6.4 7.4l-.2.1 4.7 5.5v-.4c-.1 0-4.5-5.2-4.5-5.2z"/><path d="M6.5 1.1l-.2.1 5.3 6.2.2-.1-5.3-6.2zm6.4 7.4l-.2.1 4.8 5.7v-.4l-4.6-5.4z"/><path d="M6.3 1.2l-.2.1 5.4 6.2.2-.1-5.4-6.2zm6.4 7.4l-.2.1 5 5.9v-.4l-4.8-5.6z"/><path d="M6.1 1.3l-.2.1 5.4 6.3s0-.1.1-.1l.1-.1-5.4-6.2zm6.4 7.4l-.2.1 5.2 6v-.4l-5-5.7z"/><path d="M6 1.4l-.3.1 5.5 6.4v-.1c0-.1 0-.1.1-.2L6 1.4zm6.3 7.4l-.2.1H12l5.2 6.1c.1-.1.1-.2.1-.2l-5-6z"/><path d="M5.8 1.5l-.3.1 5.7 6.6v-.4L5.8 1.5zm6 7.4l5.5 6.4c.1 0 .1-.1.2-.2L12.3 9H12l-.2-.1z"/><path d="M5.6 1.6l-.3.1L17 15.3l.2-.1.1-.1-5.4-6.2-.5-.3-.1-.1c0-.1 0-.1-.1-.1v-.2L5.6 1.6z"/><path d="M5.4 1.7l-.2.1 11.7 13.6.2-.1L5.4 1.7z"/><path d="M5.2 1.8l-.2.1 11.7 13.6.2-.1L5.2 1.8z"/><path d="M5 1.9l-.2.1 11.7 13.6.2-.1L5 1.9z"/><path d="M4.9 2l-.3.1 11.7 13.6.2-.1L4.9 2z"/><path d="M4.7 2.1l-.3.1 11.7 13.6.2-.1L4.7 2.1z"/><path d="M4.5 2.2l-.3.1L15.9 16l.2-.1L4.5 2.2z"/><path d="M4.3 2.3l-.2.1L15.8 16l.2-.1L4.3 2.3zm-.2.1l-.2.1 11.7 13.7.2-.1L4.1 2.4z"/><path d="M3.9 2.5l-.2.1 11.7 13.7.2-.1L3.9 2.5z"/><path d="M3.7 2.6l-.2.1 5.7 6.6.2.1c.1 0 .2.1.2.2l5.7 6.6.2-.1L3.7 2.6zm-.2.1l-.2.1 5.3 6.3.7.4-5.8-6.8zm6 7v.4l5.5 6.4.2-.1c.1 0-5.7-6.7-5.7-6.7z"/><path d="M3.4 2.8l-.3.1 5 5.8.7.4-5.4-6.3zM9.5 10v.4l5.3 6.2.2-.1L9.5 10z"/><path d="M3.2 2.9L3 3l4.7 5.4.7.4-5.2-5.9zm6.3 7.4v.4l5.1 6 .2-.1-5.3-6.3z"/><path d="M3 3l-.2.1 4.3 5 .7.4L3 3zm6.5 7.6v.4l5 5.8.2-.1-5.2-6.1z"/><path d="M2.8 3.1l-.2.1 4 4.6.7.4c-.1 0-4.5-5.1-4.5-5.1zm6.7 7.8v.4l4.8 5.6.2-.1-5-5.9z"/><path d="M2.6 3.2l-.2.1L6 7.5l.7.4-4.1-4.7zm6.9 8v.4l4.6 5.4.2-.1c.1 0-4.8-5.7-4.8-5.7z"/><path d="M2.4 3.3l-.2.1 3.3 3.8.7.4c-.1 0-3.8-4.3-3.8-4.3zm7.1 8.3v.4l4.4 5.2.2-.1c.1-.1-4.6-5.5-4.6-5.5z"/><path d="M2.3 3.4l-.3.1 3 3.4.7.4c-.1 0-3.4-3.9-3.4-3.9zm7.2 8.5v.4l4.2 5 .2-.1c.1-.1-4.4-5.3-4.4-5.3z"/><path d="M2.1 3.5l-.3.1 2.6 3 .7.4-3-3.5zm5.3 6.6l.6.6v-.2s0-.1-.1-.1l-.5-.3zm2.1 2.1v.4l4.1 4.7.2-.1-4.3-5z"/><path d="M1.9 3.6l-.2.1 2.2 2.6.7.4-2.7-3.1zm5 6.2L8 11v-.4l-.4-.5c0 .1-.7-.3-.7-.3zm2.6 2.7v.4l3.9 4.5.2-.1-4.1-4.8z"/><path d="M1.7 3.7l-.2.1L3.4 6l.6.4-2.3-2.7zm4.7 5.8L8 11.4V11L7 9.9l-.6-.4zm3.1 3.3v.4l3.7 4.3.2-.1c.1 0-3.9-4.6-3.9-4.6z"/><path d="M1.5 3.8l-.2.1 1.6 1.8.7.4c-.1 0-2.1-2.3-2.1-2.3zm4.4 5.4L8 11.7v-.4L6.5 9.6l-.6-.4zm3.6 3.9v.4l3.5 4.1.2-.1-3.7-4.4z"/><path d="M1.3 3.9l-.2.1 1.2 1.4.7.4-1.7-1.9zm4 5L8 12v-.4L6 9.3l-.7-.4zm4.2 4.5v.4l3.3 3.9.2-.1c.1 0-3.5-4.2-3.5-4.2z"/><path d="M1.1 4l-.2.1.9 1 .7.4L1.1 4zm3.7 4.6L8 12.3v-.4L5.5 9l-.7-.4zm4.7 5.1v.4l3.2 3.7.2-.1-3.4-4z"/><path d="M1 4.1l-.3.1.5.6.7.4L1 4.1zm3.3 4.2L8 12.6v-.4L4.9 8.7l-.6-.4zm5.2 5.8v.4l3 3.5.2-.1c0-.1-3.2-3.8-3.2-3.8z"/><path d="M.8 4.2l-.3.1.2.2.7.4-.6-.7zM3.7 8L8 13v-.4L4.4 8.4 3.7 8zm5.8 6.4v.4l2.8 3.3.2-.1c.1-.1-3-3.6-3-3.6z"/><path d="M.6 4.3H.5l.4.2c0 .1-.3-.2-.3-.2zm2.6 3.4L8 13.3v-.4L3.9 8.1l-.7-.4zm6.3 7v.4l2.6 3.1.2-.1-2.8-3.4z"/><path d="M2.7 7.4L8 13.6v-.4L3.3 7.8l-.6-.4zM9.5 15v.4l2.4 2.8.2-.1L9.5 15z"/><path d="M2.2 7.1L8 13.9v-.4l-5.2-6-.6-.4zm7.3 8.2v.4l2.3 2.6.2-.1-2.5-2.9z"/><path d="M1.6 6.8L8 14.2v-.4L2.3 7.2l-.7-.4zm7.9 8.8v.4l2.1 2.4.2-.1-2.3-2.7z"/><path d="M1.1 6.5l6.9 8v-.4L1.7 6.9l-.6-.4zM9.5 16v.4l1.9 2.2.2-.1L9.5 16z"/><path d="M.6 6.2L8 14.8v-.4L1.2 6.6l-.6-.4zm8.9 10.1v.4l1.7 2 .2-.1-1.9-2.3z"/><path d="M0 5.9l8 9.2v-.4L.7 6.3 0 5.9zm9.5 10.7v.4l1.5 1.8.2-.1c.1-.1-1.7-2.1-1.7-2.1z"/><path d="M0 5.9v.3l8 9.3v-.4L.2 6 0 5.9zm9.5 11v.3l1.4 1.6.2-.1-1.6-1.8z"/><path d="M0 6.1v.4l8 9.3v-.4L0 6.1zm9.5 11.1c0 .1-.1.2-.1.2l1.4 1.6.2-.1c-.1 0-1.5-1.7-1.5-1.7z"/><path d="M0 6.4v.4l8 9.3v-.4L0 6.4zm9.4 11l-.2.1 1.4 1.6.2-.1-1.4-1.6z"/><path d="M0 6.7v.4l8 9.3V16L0 6.7zm9.2 10.8l-.2.1 1.4 1.6.2-.1-1.4-1.6z"/><path d="M0 7v.4l8 9.3v-.4L0 7zm9.1 10.6l-.1.1h-.1l1.4 1.6.2-.1-1.4-1.6z"/><path d="M0 7.4v.4L8 17v-.4L0 7.4zm8.4 10.2l1.6 1.8.2-.1-1.4-1.6h-.2l-.2-.1z"/><path d="M0 7.7v.4l9.8 11.4.2-.1-1.5-1.7-.5-.2V17L0 7.7z"/><path d="M0 8v.4l9.6 11.2.2-.1L0 8z"/><path d="M0 8.3v.4l9.4 11 .2-.1L0 8.3z"/><path d="M0 8.6V9l9.3 10.8.2-.1L0 8.6z"/><path d="M0 8.9v.4l9.1 10.6.2-.1L0 8.9z"/><path d="M0 9.2v.4L8.9 20c.1 0 .1 0 .2-.1h.1L0 9.2z"/><path d="M0 9.5v.5l8.6 10h.3L0 9.5z"/><path d="M0 9.9v.4l8.2 9.5.3.2h.2L0 9.9z"/><path d="M0 10.2v.4l7.6 8.9.7.4L0 10.2z"/><path d="M0 10.5v.4l7.1 8.3.7.4L0 10.5z"/><path d="M0 10.8v.4l6.6 7.6.7.4L0 10.8z"/><path d="M0 11.1v.4l6 7 .7.4L0 11.1z"/><path d="M0 11.5v.4l5.5 6.4.7.4L0 11.5z"/><path d="M0 11.8v.4L4.9 18l.7.4L0 11.8z"/><path d="M0 12.1v.4l4.4 5.1.7.4L0 12.1z"/><path d="M0 12.4v.4l3.9 4.5.7.4L0 12.4z"/><path d="M0 12.7v.4L3.3 17l.7.4-4-4.7z"/><path d="M0 13v.4l2.8 3.3.7.4L0 13z"/><path d="M0 13.3v.4l2.3 2.6.7.4-3-3.4z"/><path d="M0 13.6v.4l1.7 2 .7.4L0 13.6z"/><path d="M0 14v.4l1.2 1.4.7.4L0 14z"/><path d="M0 14.3v.4l.7.8.7.4L0 14.3z"/><path d="M0 14.6v.1c0 .2.1.5.3.6l.5.3c0-.1-.8-1-.8-1zm.1.5l.1.1-.1-.1z"/></symbol><symbol id="icon_email-icon" viewBox="0 0 15 11">&lt;<path d="M317.51 350.91a1.72 1.72 0 0 0-1.28-.51h-11.17a1.87 1.87 0 0 0-1.91 1.83v7.33a1.87 1.87 0 0 0 1.91 1.83h11.17a1.87 1.87 0 0 0 1.91-1.83v-7.33a3.1 3.1 0 0 0-.63-1.32zm-13.4 1.32a.9.9 0 0 1 .85-.81h11.17a.9.9 0 0 1 .85.81v7.33a.9.9 0 0 1-.85.81H305a.9.9 0 0 1-.85-.81v-7.33z" transform="translate(-303.15 -350.4)"/><path class="cls-1" d="M305 352.74l3.51 3.06-3.51 3.26a.47.47 0 0 0 0 .71.82.82 0 0 0 .43.2c.11 0 .32-.1.43-.1l3.62-3.26 1 .81a.53.53 0 0 0 .43.1c.11 0 .32-.1.43-.1l1-.81 3.62 3.36a.53.53 0 0 0 .43.1.82.82 0 0 0 .43-.2.3.3 0 0 0 .11-.41.76.76 0 0 0-.21-.41L313 355.8l3.51-3.06a.47.47 0 0 0 0-.71.53.53 0 0 0-.74 0l-5 4.18-.85-.71a.1.1 0 0 1-.11-.1l-3.89-3.4a.53.53 0 0 0-.43-.1.82.82 0 0 0-.43.2.34.34 0 0 0-.06.64z" transform="translate(-303.15 -350.4)"/></symbol><symbol id="icon_facebook-icon" viewBox="0 0 9 15"><path d="M52.22 40.56h-2.16c-2.43 0-4 1.45-4 3.69V46H43.9a.32.32 0 0 0-.34.31v2.47a.32.32 0 0 0 .34.31h2.17v6.22a.32.32 0 0 0 .34.31h2.83a.32.32 0 0 0 .34-.31V49h2.54a.32.32 0 0 0 .34-.31v-2.43a.29.29 0 0 0-.1-.22.36.36 0 0 0-.24-.04h-2.54v-1.49c0-.69.18-1 1.19-1h1.45a.32.32 0 0 0 .34-.31v-2.33a.32.32 0 0 0-.34-.31z" transform="translate(-43.56 -40.56)"/></symbol><symbol id="icon_filter_icon_mobile" viewBox="0 0 15 14.29"><path class="cls-1" d="M.48 2.37H3a1.89 1.89 0 0 0 3.66 0h7.87a.48.48 0 0 0 0-1H6.65A1.89 1.89 0 0 0 3 1.41H.48a.48.48 0 1 0 0 .96zM4.82 1a.93.93 0 1 1-.93.93.93.93 0 0 1 .93-.93zm9.7 5.66h-3.2a1.89 1.89 0 0 0-3.66 0H.48a.48.48 0 0 0 0 1h7.18a1.89 1.89 0 0 0 3.66 0h3.2a.48.48 0 1 0 0-1zm-5 1.41a.93.93 0 1 1 .93-.93.93.93 0 0 1-.96.93zm5 3.84H6.65a1.89 1.89 0 0 0-3.66 0H.48a.48.48 0 0 0 0 1H3a1.89 1.89 0 0 0 3.66 0h7.87a.48.48 0 0 0-.01-1zm-9.7 1.41a.93.93 0 1 1 .93-.93.93.93 0 0 1-.93.93z"/></symbol><symbol id="icon_good" viewBox="0 0 13 16"><path d="M177.84 172.68a1.43 1.43 0 0 0-.65-2.62c-1.4-.34-2.34.69-3-.82s1.27-3.88-.78-5.06c-.75-.44-1.45-.16-1.38 1 .14 2.38-1.27 2.73-2.31 5-1 .6-1.81.93-2.81 1.54h-1.43v6.93h1.33l1 .31a10.66 10.66 0 0 0 4.88 1 6.47 6.47 0 0 0 3-.52 2.7 2.7 0 0 0 .84-1.63 1.65 1.65 0 0 0 1-2.33 1.63 1.63 0 0 0 .84-1 2.3 2.3 0 0 0-.53-1.8z" transform="translate(-165.48 -163.98)"/></symbol><symbol id="icon_grastin" viewBox="0 0 58.73 20"><path d="M3.55 14.84c.31-1 .66-2 1-3 .64.71 1.25 1.43 1.86 2.16-1 .28-1.9.59-2.86.85M0 10c.86-.49 1.74-1 2.62-1.5v3.19C1.73 11.15.86 10.6 0 10m3.39-4.63c1 .28 1.95.6 2.92.9-.59.73-1.25 1.38-1.88 2.06-.39-1-.7-2-1-3m2.74 5.62c.83.35 1.6.71 2.38 1.05a2.07 2.07 0 0 1 .63.86c-.1.63-.9.82-1.09 1.4h.14c2.27.53 4.58.89 6.89 1.21a.87.87 0 0 1 .41.64c-.2.62-.93.84-1.22 1.4A111 111 0 0 0 39.92 20a153.5 153.5 0 0 0 16.48-1 .59.59 0 0 0 .6-.53c.17-1.58.33-3.17.5-4.75l.63-6.09c.19-1.84.4-3.67.57-5.51a.52.52 0 0 0-.59-.53A153.48 153.48 0 0 0 30.68.11a88.3 88.3 0 0 0-16 2 1.87 1.87 0 0 0-.44.14c.32.45 1 .62 1.14 1.2a1.21 1.21 0 0 1-1.11 1A61.89 61.89 0 0 0 8 5.64c.28.48.86.71 1.09 1.23a.77.77 0 0 1-.25.64 1.51 1.51 0 0 1-.5.43c-.86.4-1.7.85-2.57 1.21a.91.91 0 0 0-.65.88 1.37 1.37 0 0 0 1.05.92zM48.5 7.36h1.82l.05.44a2.82 2.82 0 0 1 1.26-.63 1.74 1.74 0 0 1 2 .72 4.07 4.07 0 0 1 0 1.72c-.21 1.25-.42 2.49-.66 3.73h-2.43c.2-1.27.45-2.53.65-3.8A.55.55 0 0 0 51.1 9a.36.36 0 0 0-.52.29c-.26 1.35-.5 2.71-.76 4.06h-2.3c.27-1.68.55-3.37.81-5.05.05-.3.11-.62.17-.94zm-2-2.14A1.13 1.13 0 0 1 48 6a1.29 1.29 0 0 1-1.61 1 .91.91 0 0 1-.84-.8 1.11 1.11 0 0 1 .91-.98zm-1.19 2.14h2.36l-.12.72-.94 5.28h-2.37q.41-2.39.84-4.78c.08-.41.15-.82.23-1.22zm-4.14-2h2.34c-.12.66-.27 1.32-.35 2h1.36c0 .33-.11.66-.17 1s-.09.53-.14.79h-1.24c-.17 0-.18.21-.21.33-.08.52-.2 1-.28 1.55a.61.61 0 0 0 .22.67 1.54 1.54 0 0 0 .86-.08c.08.42.17.84.21 1.27a.29.29 0 0 1-.25.29 3.81 3.81 0 0 1-2.76.11A1.25 1.25 0 0 1 40 12c.12-1.39.42-2.75.66-4.13.2-.87.34-1.7.51-2.53zm-5.72 2.75a3.43 3.43 0 0 1 4.6-.2l.19.2c-.39.41-.77.82-1.17 1.22a4.25 4.25 0 0 0-1.32-.61.31.31 0 0 0-.19.56 5.08 5.08 0 0 1 1.8 1.19 1.94 1.94 0 0 1-.74 2.53 4.45 4.45 0 0 1-4.36-.28c.27-.51.54-1 .82-1.53a13.86 13.86 0 0 0 1.73.58c.28.09.5-.36.22-.49a4.2 4.2 0 0 1-1.73-1.07 1.89 1.89 0 0 1 .15-2.1zm-3.3-1a9.39 9.39 0 0 1 2.4.46c0 .19-.06.38-.09.56q-.42 2.6-.85 5.19h-1.84l-.07-.49a2.25 2.25 0 0 1-1.95.58 1.55 1.55 0 0 1-1.26-1.08 4.51 4.51 0 0 1 .23-3.08 3.6 3.6 0 0 1 3.43-2.12zm-7.56.2h1.78c0 .24 0 .48.06.72a2.34 2.34 0 0 1 1.09-.85 2 2 0 0 1 1.34.12c-.16.65-.43 1.26-.6 1.91A3.57 3.57 0 0 0 27 9.16a.73.73 0 0 0-.42.62c-.22 1.19-.42 2.38-.65 3.56h-2.32c.33-1.89.66-3.79.91-5.69zm-7.27.3a4.17 4.17 0 0 1 5.23-1.88 2.43 2.43 0 0 1 1.39 1.47l-.77.47c-.37.21-.72.43-1.09.63a1.82 1.82 0 0 0-1-.85 1.22 1.22 0 0 0-1.27.68 3.62 3.62 0 0 0-.35 2.66 1 1 0 0 0 1.54.53 14.32 14.32 0 0 0 .43-1.84.39.39 0 0 1 .4-.16h1.81c-.09.67-.21 1.34-.3 2a2.15 2.15 0 0 1-.57 1.34 4 4 0 0 1-1.22.5 5.06 5.06 0 0 1-3 0 2.57 2.57 0 0 1-1.53-1.87 5.75 5.75 0 0 1 .29-3.66z"/><path d="M31.56 11.45c.18-.88.34-1.77.46-2.66a.71.71 0 0 0-.76.22 3.41 3.41 0 0 0-.5 2.55c.11.44.75.27.8-.11z"/></symbol><symbol id="icon_instagram-icon" viewBox="0 0 15 15"><path d="M87.89 77h-6.72A4.14 4.14 0 0 0 77 81.17v6.72A4.14 4.14 0 0 0 81.17 92h6.72A4.14 4.14 0 0 0 92 87.89v-6.72A4.14 4.14 0 0 0 87.89 77zm2.81 10.89a2.81 2.81 0 0 1-2.81 2.81h-6.72a2.81 2.81 0 0 1-2.81-2.81v-6.72a2.81 2.81 0 0 1 2.81-2.81h6.72a2.81 2.81 0 0 1 2.81 2.81v6.72z" transform="translate(-77.03 -77.03)"/><path d="M84.53 80.67a3.87 3.87 0 1 0 3.87 3.87 3.87 3.87 0 0 0-3.87-3.87zm0 6.4a2.53 2.53 0 1 1 2.53-2.53 2.54 2.54 0 0 1-2.53 2.53zm4.03-7.53a1 1 0 1 0 .69.29 1 1 0 0 0-.69-.29z" transform="translate(-77.03 -77.03)"/></symbol><symbol id="icon_location-icon" viewBox="0 0 12 18"><path d="M6.1 3.8c-1.3-.1-2.5 1-2.5 2.3-.1 1.3 1 2.5 2.3 2.5 1.3.1 2.5-1 2.5-2.3v-.1c0-1.3-1-2.4-2.3-2.4zm1.3 2.4C7.3 7 6.7 7.5 6 7.5s-1.3-.7-1.3-1.4.6-1.3 1.3-1.3c.8 0 1.4.7 1.4 1.4z"/><path d="M10.2 1.8C8.1-.5 4.4-.6 2 1.5c-.1.1-.2.2-.2.3-2.1 2.5-2.3 6.1-.6 8.8L6 18l4.8-7.3c1.8-2.8 1.6-6.3-.6-8.9zm-.2 8.3l-4 6.1-4-6.1C.5 7.7.7 4.7 2.5 2.6 4.3.6 7.4.5 9.4 2.4l.2.2c1.8 2.1 1.9 5.2.4 7.5z"/></symbol><symbol id="icon_login-register-button" viewBox="0 0 22 26"><path d="M10.9 14h.2c1.4 0 2.8-.6 3.8-1.6 2.1-2.3 1.7-6.3 1.7-6.7-.1-2.9-1.5-4.2-2.6-4.9-.9-.5-1.9-.8-2.9-.8H11c-1 0-2 .3-2.9.7-1.1.7-2.5 2.1-2.6 5 0 .4-.4 4.4 1.7 6.7.9 1 2.3 1.6 3.7 1.6zm-4-8.2c.2-3.9 2.9-4.3 4.1-4.3 1.4 0 3.9.6 4.1 4.3 0 0 .4 3.7-1.3 5.6-.7.8-1.7 1.2-2.8 1.1-1 0-2.1-.4-2.8-1.1-1.6-1.9-1.3-5.6-1.3-5.6zM22 20.7v-.1c0-1.1-.1-3.6-2.4-4.4h-.1c-1.6-.4-3.1-1.1-4.4-2-.3-.2-.8-.1-1 .2-.2.3-.1.8.2 1 1.5 1 3.1 1.8 4.9 2.3 1.3.4 1.4 1.8 1.4 3v.1c0 .6 0 1.1-.1 1.7-6 2.9-12.9 2.9-18.9 0-.1-.5-.1-1.1-.1-1.7v-.1c0-1.2.2-2.6 1.4-3 1.7-.5 3.4-1.2 4.9-2.3.3-.2.4-.7.2-1-.2-.3-.7-.4-1-.2-1.4.9-2.9 1.6-4.4 2h-.2C.1 17 0 19.5 0 20.5v.1c0 .8.1 1.6.3 2.4.1.1.2.3.3.3 6.5 3.4 14.4 3.4 20.9 0l.3-.3c.1-.7.2-1.5.2-2.3z"/></symbol><symbol id="icon_mastercard" viewBox="0 0 31.4 20"><path d="M21.4 0c-2 0-4 .6-5.7 1.8 1 .7 1.8 1.5 2.5 2.5h-5c.7-1 1.5-1.8 2.5-2.5C11.2-1.4 5-.3 1.8 4.3S-.3 15 4.3 18.2c3.4 2.4 8 2.4 11.4 0-1-.7-1.8-1.5-2.5-2.5h5c-.7 1-1.5 1.8-2.5 2.5 4.5 3.2 10.8 2.1 13.9-2.5S31.7 5 27.2 1.8C25.5.6 23.5 0 21.4 0zm-1.8 7.1c.1.5.3.9.3 1.4h-8.4c.1-.5.2-1 .3-1.4h7.8zm-7.7 5.8c-.1-.5-.3-.9-.3-1.4H20c-.1.5-.2 1-.3 1.4h-7.8z"/></symbol><symbol id="icon_metro-icon" viewBox="0 0 14 9.86"><path d="M7 9.86l2.28-3.95.94 2.68h-.76v1.17H14V8.59h-.87L9.87 0 7 5.29 4.13 0 .87 8.59H0v1.17h4.54V8.59h-.76l.94-2.68L7 9.86z"/></symbol><symbol id="icon_note" viewBox="0 0 74 62"><path class="cls-1" d="M57.35 38.06l-6.9 10-4.87-4a1.23 1.23 0 0 0-1.74.17 1.24 1.24 0 0 0 .16 1.7l5.9 4.87a1.23 1.23 0 0 0 .78.28h.17a1.24 1.24 0 0 0 .84-.52l7.66-11.07a1.24 1.24 0 0 0-.31-1.73 1.23 1.23 0 0 0-1.69.3z" transform="translate(7 1)"/><path class="cls-1" d="M64.53 36.33V.21a1.25 1.25 0 0 0-.08-.41l-.06-.11a1.2 1.2 0 0 0-.18-.27l-.1-.1a1.15 1.15 0 0 0-.25-.17l-.13-.06A1.18 1.18 0 0 0 63.3-1H-5.77a1.21 1.21 0 0 0-.43.09l-.12.06a1.2 1.2 0 0 0-.25.17l-.1.1a1.22 1.22 0 0 0-.18.27l-.05.09a1.22 1.22 0 0 0-.1.43V48.6a1.25 1.25 0 0 0 .07.4 1.12 1.12 0 0 0 .06.12 1.27 1.27 0 0 0 .17.25l.1.1a1.25 1.25 0 0 0 .25.17l.12.06a1.28 1.28 0 0 0 .44.09h41.51a16 16 0 1 0 28.81-13.46zm-3.45-3.94c-.29-.24-.59-.46-.89-.67l-.35-.25c-.3-.2-.61-.38-.92-.56l-.41-.24c-.3-.16-.6-.3-.91-.44l-.49-.23c-.29-.12-.58-.22-.88-.32l-.6-.21c-.28-.09-.58-.15-.87-.22l-.65-.16c-.32-.06-.64-.1-1-.15l-.6-.09c-.51-.06-1.01-.09-1.51-.09a15.87 15.87 0 0 0-7.56 1.91l-6.54-5.34L62.07 3v30.25c-.21-.2-.43-.38-.65-.57zM60 1.48l-26 23h-.05l-2.35 2.25a4.35 4.35 0 0 1-5.68 0l-2.44-2.17a1 1 0 0 0-.1-.08l-25.87-23H60zM20.67 25.37C13.82 31.39.51 42-4.53 46V3zm14.46 22H-2.22C3.39 42.89 16 32.75 22.54 27l1.75 1.56a6.86 6.86 0 0 0 9 0L35 27l6.2 5.09-.12.1c-.36.28-.7.58-1 .89l-.34.31c-.3.3-.59.61-.86.94s-.57.67-.88 1.05c-.13.18-.28.36-.4.55s-.36.59-.54.89-.21.36-.31.55-.3.6-.44.91-.19.43-.28.65-.22.59-.32.89-.16.53-.24.8-.15.54-.21.82-.13.68-.18 1-.08.44-.1.66a16.21 16.21 0 0 0-.1 1.76c0 .46 0 .93.07 1.4 0 .27.06.54.1.8.06.11.07.21.08.3zM51 58.52a13.59 13.59 0 0 1-13.15-10.23 14.51 14.51 0 0 1-.32-1.64v-.12a12.94 12.94 0 0 1-.11-1.65 13.79 13.79 0 0 1 .1-1.6c0-.18.05-.35.08-.53.05-.34.12-.68.2-1s.1-.41.16-.61.19-.61.3-.91.13-.4.21-.59a13.62 13.62 0 0 1 .61-1.27c.11-.2.23-.38.35-.57s.31-.5.48-.75l.39-.52q.33-.42.7-.82l.29-.32a13.38 13.38 0 0 1 1.21-1.11 13.88 13.88 0 0 1 1.4-1 13.2 13.2 0 0 1 8.65-1.94l.45.07c.36.05.72.12 1.07.2l.52.13c.33.09.66.2 1 .31l.41.19c.37.15.72.32 1.08.5l.3.15a13.58 13.58 0 0 1 1.23.76l.5.35c.25.19.49.38.72.58l.47.42c.24.23.46.47.69.71s.24.25.35.39A13.64 13.64 0 0 1 51 58.52z" transform="translate(7 1)"/></symbol><symbol id="icon_odnoklassniki-icon" viewBox="0 0 14 22"><path class="cls-1" d="M46.59 52.24a9.41 9.41 0 0 1-4.83-1.63c-.17-.13-.35-.25-.51-.39a1.24 1.24 0 0 1-.19-1.84 1.43 1.43 0 0 1 1.83-.38 2.87 2.87 0 0 1 .4.22 8.32 8.32 0 0 0 8.78.08 2.43 2.43 0 0 1 .86-.42 1.38 1.38 0 0 1 1.54.58 1.18 1.18 0 0 1-.09 1.62 7.15 7.15 0 0 1-2.55 1.56 12.6 12.6 0 0 1-2.9.61l.31.32 4 3.82a1.21 1.21 0 0 1 .3 1.48 1.6 1.6 0 0 1-1.49.88 1.48 1.48 0 0 1-.94-.46c-1-1-2-1.91-3-2.89-.29-.29-.43-.23-.68 0-1 1-2.06 2-3.1 2.93a1.35 1.35 0 0 1-1.57.26 1.49 1.49 0 0 1-.92-1.38 1.35 1.35 0 0 1 .49-.92l4-3.76z" transform="translate(-40.74 -36.74)"/><path class="cls-1" d="M47.69 47.88a5.58 5.58 0 1 1 5.94-5.5 5.74 5.74 0 0 1-5.94 5.5zm2.93-5.57A2.89 2.89 0 1 0 47.76 45a2.8 2.8 0 0 0 2.86-2.7z" transform="translate(-40.74 -36.74)"/></symbol><symbol id="icon_phone-icon" viewBox="0 0 18 18"><path d="M356.48 793.55a1.77 1.77 0 0 0-1.29-.59 1.83 1.83 0 0 0-1.3.59l-1.2 1.2-.29-.15-.38-.2a13.06 13.06 0 0 1-3.13-2.85 7.7 7.7 0 0 1-1-1.62c.31-.28.6-.58.88-.87l.32-.32a1.74 1.74 0 0 0 0-2.63l-1-1-.35-.36c-.23-.24-.47-.48-.72-.71a1.8 1.8 0 0 0-1.27-.56 1.86 1.86 0 0 0-1.29.56l-1.29 1.3a2.78 2.78 0 0 0-.83 1.77 6.65 6.65 0 0 0 .49 2.82 16.35 16.35 0 0 0 2.91 4.85 17.9 17.9 0 0 0 6 4.66 9.3 9.3 0 0 0 3.35 1h.24a2.87 2.87 0 0 0 2.2-.94 8.61 8.61 0 0 1 .67-.69l.49-.49a1.89 1.89 0 0 0 .57-1.31 1.83 1.83 0 0 0-.59-1.3zm1.36 4c-.15.16-.3.3-.46.46a10 10 0 0 0-.73.76 1.84 1.84 0 0 1-1.43.6H355a8.26 8.26 0 0 1-3-.89 16.9 16.9 0 0 1-5.62-4.39 15.42 15.42 0 0 1-2.74-4.56 5.42 5.42 0 0 1-.43-2.38 1.74 1.74 0 0 1 .52-1.13l1.3-1.3a.87.87 0 0 1 .58-.27.82.82 0 0 1 .56.27c.23.22.45.44.68.68l.36.37 1 1a.72.72 0 0 1 0 1.18l-.33.33c-.32.33-.62.63-1 .93a.77.77 0 0 0-.2.86 8.33 8.33 0 0 0 1.23 2 14 14 0 0 0 3.38 3.07 5.14 5.14 0 0 0 .47.25l.38.2a.83.83 0 0 0 .38.09.81.81 0 0 0 .58-.26l1.3-1.3a.86.86 0 0 1 .57-.28.77.77 0 0 1 .55.28l2.1 2.1a.75.75 0 0 1 0 1.19zM352 786.68a4.89 4.89 0 0 1 4 4 .51.51 0 0 0 .51.43h.09a.51.51 0 0 0 .42-.59 5.92 5.92 0 0 0-4.82-4.82.52.52 0 0 0-.59.42.51.51 0 0 0 .41.59zm0 0" transform="translate(-342.25 -782.4)"/><path d="M360.24 790.34a9.74 9.74 0 0 0-7.94-7.93.51.51 0 1 0-.17 1 8.7 8.7 0 0 1 7.1 7.09.51.51 0 0 0 .51.43h.09a.5.5 0 0 0 .42-.59zm0 0" transform="translate(-342.25 -782.4)"/></symbol><symbol id="icon_pochtarf" viewBox="0 0 41.2 20"><path d="M6.7 5.4c-.2 0-.3.1-.4.4-.1.3-.2.7-.2 1.1 0 .4 0 .8.2 1.1.1.3.2.4.4.4s.3-.1.4-.4c.1-.3.2-.7.2-1.1 0-.5 0-.8-.1-1.1-.1-.2-.3-.4-.5-.4zm-1.3 6.1c-.2 0-.3.1-.4.4-.1.3-.1.6-.1 1.1 0 .4 0 .8.1 1.1.1.3.2.4.4.4s.3-.1.4-.4c.1-.3.1-.7.1-1.1 0-.5 0-.8-.1-1.1-.1-.2-.2-.4-.4-.4zm-2.9.1v1.2c0 .2 0 .3.1.4 0 .1.1.1.2.1s.1-.1.2-.2v-.4c0-.4 0-.7-.1-.9-.1-.1-.2-.2-.4-.2z"/><path d="M0 0v20h20V0H0zm1.8 4.8h2.5V9h-.7V5.5h-1V9h-.8V4.8zm1.7 8.9c-.1.2-.3.3-.6.3-.2 0-.3-.1-.4-.2V15h-.7v-4h.7c.5 0 .8.2 1 .7.1.3.2.6.2.9.1.5 0 .9-.2 1.1zm2.8.9c-.2.4-.5.6-.9.6s-.7-.2-.9-.6c-.2-.4-.3-.9-.3-1.6 0-.6.1-1.2.3-1.6.2-.4.5-.6.9-.6s.7.2.9.6c.2.4.3.9.3 1.6 0 .7-.1 1.2-.3 1.6zm-.6-6.1c-.2-.4-.3-.9-.3-1.6 0-.6.1-1.2.3-1.6.2-.4.6-.6 1-.6s.8.2 1 .6c.2.4.4.9.4 1.6 0 .6-.1 1.2-.3 1.6-.2.4-.6.6-1 .6-.5 0-.9-.2-1.1-.6zm3.5 6.7c-.7 0-1.2-.2-1.6-.6-.3-.4-.5-.9-.5-1.6 0-.7.2-1.2.5-1.6.3-.4.9-.6 1.6-.6v.7c-.4 0-.8.1-1 .4-.2.3-.3.6-.3 1s.1.8.3 1c.2.3.6.4 1 .4v.9zM8.9 6V4.8h.8V6c0 .1 0 .2.1.2.1.1.2.1.4.1h.4V4.8h.8V9h-.8V7H10c-.3 0-.5-.1-.8-.3-.2-.2-.3-.4-.3-.7zm2.9 9.2c-.7 0-1.2-.2-1.6-.6-.3-.4-.5-.9-.5-1.6 0-.7.2-1.2.5-1.6.4-.4.9-.6 1.6-.6v.7c-.4 0-.8.1-1 .4-.2.3-.3.6-.3 1s.1.8.3 1c.2.3.6.4 1 .4v.9zm.5-10.4h2.1v.7h-.6V9H13V5.5h-.6v-.7zm1.9 10.3s-.1-2.6-.1-2.7l-1 1v1.7h-.7V11h.7v1.5c.1-.1 1.5-1.6 1.5-1.6l.2 4.4h-.6zm1.1-10.3h1.1c.3 0 .6.1.8.2.2.2.4.5.4.9L18 9h-.8L17 7h-1v2h-.8l.1-4.2zm2.1 10.3s-.1-2.6-.1-2.7l-1 1v1.7h-.7V11h.7v1.5c.1-.1 1.5-1.6 1.5-1.6l.2 4.4h-.6z"/><path d="M16.8 5.7c-.1-.1-.2-.2-.4-.2h-.3v.8h.9c-.1-.3-.2-.5-.2-.6zM40.6 0H21.2v20h20V0h-.6zM40 18.8H22.4V1.2H40v17.6z"/><path d="M27.6 7.6c.2.1.3.3.3.3-.4-.3-.7-.1-.7-.1.1.5.5.6.5.6-.4 0-.6.2-.6.2.1.3.6.4.6.4-.4.3-.3.5-.3.5.4.1.6-.1.6-.1-.3.4-.1.7-.1.7.4 0 .5-.4.5-.4 0 .4.1.4.1.4.2-.1.3-.3.3-.3.1.2.4.3.4.3.1-.2 0-.4 0-.4.2.1.3-.1.3-.1l-.2-.4c-.4.2-.9.1-1-.1-.1-.2.1-.6.2-.9.1-.3 0-.5-.2-.6-.7-.4-.9-.8-1.1-1.1 0 .6.2 1 .4 1.1zm1.3 3.6c-.1-.1-.1-.2-.1-.2.1.6.1 1 .4 1.3 0 0 .2-.2.1-.8 0 0-.1 0-.2-.1 0 0 .1.2 0 .5 0-.1-.1-.2-.2-.7zm-.7-.3c0 .3-.1 1.2.2 1.5 0 0 .2-.1.3-1.4 0 .1-.1.1-.1.2 0 0 0 .4-.1.7 0 0-.1-.1 0-.7-.2-.1-.2-.2-.3-.3zm-.3 1c.2-.3.2-.8.2-1.3v-.1s-.1 0-.1.1c0 0-.1.9-.3 1.2-.1-.3.1-.7.2-1.1h-.1c-.3.5-.6 1.1-.3 1.6 0 0 .2-.1.4-.4zm-.9-1.5v-.2c-.7.7-1 .8-1 .8.2-.5.8-.8 1.1-.9 0 0 0-.1.1-.1h-.3c-.3.2-.6.5-.9.8-.3.3-.4.6-.4 1 0 0 .5 0 .9-.5.1-.4.3-.7.5-.9zm-.3-.5c-.1 0-.1 0 0 0 0 0-.7.5-1.3.7 0 0 .1-.2.4-.4.3-.2.5-.3.8-.4-.2.1-1 .4-1.3.5-.3.1-.6.4-.8 1.1 0 0 .5 0 1-.3.4-.5.9-1 1.2-1.2zm-.3-.2c-.1 0-.2 0-.3-.1-.3.2-.8.3-1.3.4 0 0 .2-.2.5-.3.3-.1.5-.2.8-.3v-.1c-.3.1-.9.1-1.2.2-.3.1-.8.3-1.1.9 0 0 .5.1 1.3-.3.9-.3 1.2-.4 1.3-.4z"/><path d="M24.5 9.5c.9-.1 1.4-.2 1.7-.2l.2-.2c-.1 0-.2 0-.3-.1-.8.2-1.5.2-1.5.2.4-.2 1.1-.3 1.4-.3-.1 0-.1-.1-.1-.1-.4 0-1.2 0-1.6.1-.3.1-.8.3-1.1.5 0 0 .5.1 1.3.1zM22.9 8s.6.4 1.3.6c.7.1 1.3 0 1.7.1l.1-.1c-.5 0-1.3-.1-1.6-.2 0 0 .7-.1 1.7.1 0 0 .1 0 .2-.1-.4-.1-1-.3-2-.4-.7-.1-1.2 0-1.4 0zm1-.3c.7.3 1.9.4 2.5.7-.3-.2-.3-.4-.3-.4-.3-.1-.5-.1-1-.2-.4-.1-.7-.3-.7-.3.2 0 .4 0 .7.1.4.1.6.2 1 .3.1-.1.2-.1.3-.1-.3-.1-1.2-.4-1.7-.6-.5-.1-1.1-.3-1.9-.3.1-.1.2.4 1.1.8zm2.2-.2s-.1-.1-.1-.2l-.6-.3c-.2-.1-.4-.3-.7-.5-.2-.2-.4-.5-.4-.5.3.1.6.3.7.4.2.2.6.5 1 .7l-.1-.3c-.4-.3-.9-.8-1.1-1-.2-.2-1-.8-1.3-.8 0 0-.1.7.2 1.1.4.5 1.5 1.2 2.4 1.4zm2.7 2.5v.5c0 .2.1.4.3.6.2.2.4.2.4.2 0-.1-.1-.3-.2-.5 0-.1-.1-.3-.1-.5-.2-.1-.3-.3-.4-.3zm-.2.1h-.1l-.1-.1s-.1.1-.1.2c-.1.2 0 .3 0 .5 0 .1.2.3.2.3.1-.1.2-.2.2-.3v-.4c0-.1 0-.1-.1-.2z"/><path d="M27.9 10.1c-.5.4-.4.6-.4.6.2 0 .5-.1.6-.2.1-.1.2-.2.2-.3V10c-.2 0-.3 0-.4.1zm-.6-.1c-.3.2-.2.4-.2.4.4 0 .6-.3.7-.4 0 0-.1-.1-.1-.3-.2.1-.2.1-.4.3z"/><path d="M27.3 9.5c-.3.1-.5.1-.6.3 0 0 .1.2.4.2.3 0 .5-.2.6-.3v-.1c-.1-.1-.2-.1-.4-.1zm-.5-.5c-.2 0-.5.1-.6.5 0 0 .2.1.5.1s.5-.2.6-.3c0-.1.1-.1.1-.2-.2-.1-.4-.1-.6-.1zm-.9-.3s.3.2.5.2c.3 0 .6-.1.7-.2 0 0-.1 0-.1-.1-.2-.1-.5-.1-.7 0-.3 0-.3.1-.4.1zm.7-.4c.3.1.5.1.6 0h.1c-.1-.1-.2-.2-.2-.4h-.4c-.1 0-.3 0-.5.1-.1-.1 0 .2.4.3zm.5-.5s.1-.1.3-.1c-.1-.1-.4-.3-.6-.4-.3-.2-.6-.3-.8-.4 0 0 .2.5.4.6.2.3.3.3.7.3zm.3-.2c-.1-.1-.2-.3-.2-.5 0-.1-.1-.5-.2-.6 0-.1-.3-.4-.7-.5 0 0-.1.4.1.8.2.2.6.6 1 .8zm1.9 2.6c-.1 0-.1 0-.2-.1.1.1.2.2.2.5.1.5.2.5.2.5.1-.2.2-.5.3-.8.2-.3 0-.5 0-.5-.1 0-.1-.1-.2-.1 0 0-.1.1-.2.1v.1s0 .1-.1.3z"/><path d="M26.3 7c.2.1.2.1.3.1-.1-.1-.2-.2-.2-.3 0-.1-.1-.1-.1-.2v-.1c-.3-.2-.6-.5-.8-.7-.2-.2-.4-.5-.6-.9.2.1.3.2.5.5.3.3.5.7.8 1v-.2c-.2-.4-.5-.9-.8-1.3-.2-.3-.7-.8-1-1.1-.1.3-.2 1 .1 1.5.4.5 1.1 1.3 1.8 1.7zm11.8 1c-.9 0-1.5.3-2 .4.1 0 .1 0 .2.1 1-.3 1.7-.1 1.7-.1-.3.1-1.1.2-1.6.2l.1.1c.4 0 1 .1 1.7-.1.7-.1 1.3-.6 1.3-.6-.2 0-.7-.1-1.4 0zm-1.7.5z"/><path d="M36 7.8c.1 0 .2 0 .3.1.4-.2.6-.2 1-.3.3-.1.5-.1.7-.1 0 0-.3.2-.7.3-.4.1-.6.1-1 .2 0 0 0 .3-.3.4.6-.3 1.8-.4 2.5-.7.9-.4 1-.8 1-.8-.8 0-1.4.2-1.9.3-.5.1-1.3.4-1.6.6zm.6-1l-.1.3c.3-.3.7-.5.9-.7.2-.1.5-.3.7-.4 0 0-.2.3-.4.5s-.5.4-.7.5c-.2.1-.3.1-.6.3 0 0-.1.1-.1.2 1-.2 2-.9 2.4-1.4.3-.4.2-1.1.2-1.1-.3.1-1 .7-1.2.8-.2.2-.7.7-1.1 1zm-.8.3c.1 0 .2-.1.2-.1h.1c.7-.4 1.4-1.2 1.7-1.7.3-.6.2-1.3.1-1.6-.3.3-.8.8-1 1.1-.2.4-.6.9-.8 1.3v.2c.2-.3.5-.7.8-1 .2-.2.3-.4.5-.5-.1.4-.4.8-.6.9-.2.2-.4.4-.7.6v.1c0 .1 0 .2-.1.2 0 .3-.1.4-.2.5zm-8.4 3.4c0-.1-.1-.1-.2-.1-.3.3-.9 1-.9 1.7 0 0 .6-.2.8-.6.2-.4.4-.7.5-.8h-.2c-.1.3-.4.7-.7.9 0 0-.1-.3.7-1.1zm6.7-2.9c-.1.1-.3.3-.2.6.1.3.4.7.2.9-.1.2-.6.2-1 .1 0 0-.1.3-.2.4 0 0 .1.1.3.1 0 0-.1.2 0 .4 0 0 .3 0 .4-.3 0 0 .1.2.3.3 0 0 .2-.1.1-.4 0 0 .1.3.5.4 0 0 .2-.3-.1-.7 0 0 .2.2.6.1 0 0 .1-.2-.3-.5 0 0 .4 0 .6-.4 0 0-.2-.2-.6-.2 0 0 .4-.1.5-.6 0 0-.3-.2-.7.1l.3-.3c.2-.1.4-.6.3-1.2-.1.4-.3.7-1 1.2zm-.9 3.8c-.1.6.1.8.1.8.3-.4.3-.7.4-1.3 0 .1-.1.2-.1.2-.1.6-.2.6-.2.6v-.5c-.1.2-.2.2-.2.2zm.5-.4c.1 1.3.3 1.4.3 1.4.3-.3.2-1.1.2-1.5 0 .1-.1.2-.1.2.1.6 0 .7 0 .7-.1-.3-.1-.7-.1-.7-.1 0-.2-.1-.3-.1zm.7-.4l-.1-.1v.1c0 .5.1 1.1.2 1.3.2.3.4.4.4.4.3-.5 0-1.2-.3-1.6h-.1c.1.3.3.8.2 1.1-.2-.3-.3-1.2-.3-1.2zm1.2-.6c-.1 0-.2.1-.3 0l.1.1c.2.1.8.4 1.1.9 0 0-.4-.1-1-.8v.1c.2.2.4.4.7.9.3.5.9.5.9.5 0-.4-.1-.7-.4-1-.4-.2-.8-.5-1.1-.7zm1.5.2c-.3-.1-1.1-.4-1.3-.5.3.1.5.2.8.4.3.2.4.4.4.4-.6-.2-1.2-.8-1.2-.8.2.2.7.7 1.2 1.1.4.4 1 .3 1 .3-.3-.4-.6-.8-.9-.9z"/><path d="M37.5 9.6c-.3-.1-.9-.2-1.2-.2v.1c.2.1.5.2.8.3.2.1.5.3.5.3-.5 0-.9-.2-1.3-.4 0 0-.1.1-.3.1.2 0 .4.1 1.3.5s1.3.3 1.3.3c-.3-.7-.8-.9-1.1-1zm-.9-.8l-.1.1c.3 0 1 .1 1.3.2 0 0-.6.1-1.5-.2-.1.1-.2.1-.3.1l.2.2c.3.1.8.2 1.7.2.9.1 1.3-.1 1.3-.1-.3-.2-.8-.4-1.1-.4-.3 0-1.2 0-1.5-.1zm-3 1.1c0 .1-.2.2-.3.4-.1.2-.1.4-.1.5 0 .1-.1.4-.2.5 0 0 .2 0 .4-.2s.2-.4.2-.6c.1-.1.1-.3 0-.6 0 .1 0 .1 0 0z"/><path d="M34 10c0 .1-.1.1 0 0l-.1.1h-.1c0 .1 0 .1-.1.2v.4c0 .2.1.3.2.3 0 0 .2-.2.2-.3 0-.1.1-.3 0-.5 0 0 0-.1-.1-.2zm.6.1c-.2 0-.3-.1-.4-.1v.2c0 .1.1.2.2.3.2.1.4.2.6.2 0 0 0-.2-.4-.6zm0-.1c.1.1.3.4.7.4 0 0 .1-.2-.2-.4-.2-.1-.3-.1-.4-.2 0 .1 0 .2-.1.2zm.1-.5v.1c.1.2.4.3.6.3.3 0 .4-.2.4-.2-.1-.2-.3-.2-.6-.4-.1.2-.3.2-.4.2zm.5-.3c.1.2.3.3.6.3.3.1.5-.1.5-.1-.2-.3-.4-.4-.7-.4H35c.1.1.1.2.2.2zM36 9c.3 0 .5-.2.5-.2 0-.1-.1-.2-.3-.3-.2-.1-.5 0-.7 0 0 .1-.1.2-.2.2.1.2.4.3.7.3zm-.8-.7c.1 0 .3.1.6 0 .4-.1.4-.4.4-.4-.2-.1-.4-.1-.5-.1h-.5c0 .2-.1.3-.2.4.1.1.2.1.2.1zm.9-.7c.2-.2.4-.6.4-.6-.2 0-.5.2-.8.3-.2.1-.5.3-.6.4.1 0 .2.1.2.1.4 0 .6 0 .8-.2zm-.1-.9c.2-.4.1-.8.1-.8-.4.1-.6.5-.7.5-.1.1-.2.5-.2.6 0 .2-.1.3-.2.5.4-.1.8-.5 1-.8zm-3.2 3c0-.1 0-.1 0 0-.1 0-.1.1-.2.1 0 0-.1.2 0 .5.2.3.3.6.3.8 0 0 .1 0 .2-.5.1-.3.1-.4.2-.5-.1 0-.2.1-.2.1H33v-.5c-.1.1-.2 0-.2 0z"/><path d="M35.2 10.5H35v.1c.8.7.7 1.1.7 1.1-.3-.2-.5-.6-.7-.9h-.2c.1.1.2.4.5.8.2.4.8.6.8.6.1-.8-.6-1.4-.9-1.7z"/><ellipse cx="31.2" cy="4.7" rx=".5" ry=".1"/><path d="M29.2 5.2h.3-.3z"/><circle cx="31.2" cy="4.9" r=".1"/><path d="M30.9 4.6c0-.2-.1-.7-.2-.8h-.2s-.1 0-.1.1.1.3.2.7h.3zm.1-.1h.1c0-.2-.1-.5-.1-.6 0-.1-.1-.2-.2-.2 0 0 .1.2.1.4 0 .1.1.3.1.4zm-.2.7c.1-.1.2-.2.2-.3-.1 0-.3 0-.5.1-.1.1-.2.2-.2.3 0 0 .2 0 .5-.1zm.1-.2s-.2.2-.3.2c-.1 0 0-.2.3-.2zm-1.3 1v-.1c.1.1.4.2.4.2V6h.2c0-.1-.1-.2-.1-.2.1.1.2.1.2.1v-.2s.1.2.4.2c.2.1.3 0 .3 0-.2 0-.4-.2-.4-.2.1 0 .2-.1.2-.1l-.1-.1.2-.2c-.2.1-.7.1-1 .1-.3 0-.6-.1-.6-.1-.1.6.3.7.3.7zm.3-.5s-.4 0-.4.2c-.1 0-.1-.1-.1-.2 0 0 .3.1.5 0zm-.9 0c0 .1.2.2.2.2 0-.1-.1-.2-.1-.4-.2 0-.2.1-.1.2zm-.2 0c-.1 0-.3 0-.4.1-.1.1 0 .4.1.5 0 0 .3-.2.6 0 0 0 .1 0 .2-.1l-.2-.2c0-.1-.3-.1-.3-.3zm-.1.4s0-.1 0 0c-.1-.1 0-.1 0-.1.1-.1.1 0 0 .1.1-.1.1 0 0 0z"/><path d="M29.6 6.2c-.1 0-.2-.2-.2-.2-.1 0-.3 0-.4.2-.1.2 0 .4 0 .4.2-.4.6-.4.6-.4zm.9.3c-.1-.1-.3-.4-.3-.4h-.1v.1l-.2-.1c.2.1.2.2.3.2.1.1.2.3.2.3.1 0 .1-.1.1-.1zm-.6-.4zm.2.5c0-.2-.1-.3-.2-.4-.1-.1-.3-.2-.4-.2.1.1.3.3.4.3.1.2.2.3.2.3zm-.4-1.9c0-.1-.1-.1-.1-.1s-.1 0-.1.1.1.2.1.3c-.1-.1.1-.3.1-.3zm-.4.4h.1c0-.1-.1-.3-.1-.4-.1 0-.1-.1-.2 0 0 0-.1 0-.1.1.1 0 .3.3.3.3z"/><path d="M29.6 5.1h.1s.2-.3.2-.4c0-.1 0-.1-.1-.1h-.2c.1.2 0 .4 0 .5zm-.1-.6h.1v-.1h.1v-.1h-.1v-.2h-.1v.2h-.2v.1h.2zm-1.5.8c0-.1 0-.1 0 0V5c-.1 0-.2.1-.3.3 0 0 .2-.2.3 0zm.1-.1c0 .1 0 .3.1.4 0-.1 0-.2.1-.4v-.5c-.1-.1-.1-.3-.1-.4 0 0-.1 0-.2.1 0 .2.1.3.1.4v.4z"/><path d="M28.3 4.4c.1 0 .2-.1.3-.2.1-.1.2-.1.2-.1s-.1-.1-.2 0c-.2 0-.4.2-.4.2v.1h.1z"/><path d="M28.8 4.3c0 .1-.1.2-.2.3 0 .1-.1.2-.1.3 0 .2.3.2.3.2s-.1-.1-.1-.2 0-.2.1-.3c0-.1.1-.3.1-.3 0-.1-.1-.1-.1-.2v.2zM30.3 6c0 .2.1.4.2.5.1.1.1.3.1.4 0 0 .1-.3 0-.4.1-.2 0-.5-.3-.5zm.6.1c-.1-.1-.3-.1-.3-.1 0 .1.2.3.2.3l.3.1c0-.1-.1-.3-.2-.3zm-1.1.4c.1.1.1.1.1.3 0 .2.1.4.2.5 0-.1.1-.4.1-.4l-.2-.2-.3-.3h-.2s.2 0 .3.1zm.8.7c.1-.2-.1-.4-.1-.5-.1.1-.2.2-.2.4v.5c.1-.1.2-.2.3-.4zm0 .1v.3c0 .1.1.2.1.2.1-.2.2-.3.2-.3.1 0 .2-.1.1-.3 0-.1-.2-.5-.2-.5l-.2.6zm0 .9c0 .1-.1.2 0 .3l.3.3s-.1-.2-.1-.4c0-.1.1-.2.1-.3v-.3c0 .1-.2.3-.3.4zm-.4.3c0 .1.1.3.1.3 0-.1.2-.3.2-.5.1-.1.1-.2.1-.3 0-.1-.1-.2-.1-.2 0 .1-.1.3-.1.5-.1 0-.2.2-.2.2zm-.6.3c.1 0 .3-.1.5-.3.3-.4.3-.9.3-.9-.3.5-.6.7-.8.7-.2 0-.3-.3-.3-.3-.1.1-.1.3-.1.5.1.2.3.3.4.3z"/><path d="M30 8.1c.1-.1.2-.2.2-.3v-.3c-.2.5-.6.4-.6.4.1.2.3.2.4.2zm.7 1.9c0 .2.3.4.3.4 0-.1.2-.3.2-.6 0-.1-.2-.3-.3-.4-.2.2-.2.5-.2.6zm-.4-.9c0 .2.2.3.3.5 0-.1.1-.3.2-.4 0 0 .1-.4-.3-.6 0 0-.1.3-.2.5zm-.5-.2v.3c0 .2.1.3.2.5 0 0 .2-.2.2-.4V9s-.1-.2-.2-.3l-.2.2zm-.1.4v-.4c-.2.1-.4 0-.4 0 0 .2.2.5.2.6.2-.1.2-.1.2-.2z"/><path d="M29.6 9.5c.1.1.1.1.2.1h.1c0-.1-.2-.3-.2-.3.1.1 0 .2-.1.2zm.7-.1zm-.3.4s0 .1.1.3c.1.2.2.3.3.3 0 0 .1-.2.2-.3v-.3c0-.1-.2-.2-.3-.4l-.3.4zm.4.7c0 .1-.1.2 0 .3 0 .1.2.3.2.3.1-.1.1-.2.2-.3v-.2c0-.1-.2-.3-.2-.4 0 .1-.1.2-.2.3zm-.3.6c0-.1.1-.1.1-.3.1-.1 0-.2 0-.3 0-.1-.1-.2-.2-.3 0 .1-.1.2-.1.3v.3c0 .1.2.3.2.3zm1 .3c0-.1 0-.2-.2-.4 0 0-.3.3-.3.5s.2.4.2.5c0 0 .1-.2.2-.3 0-.1.1-.2.1-.3zm-1 .1c0 .1.1.3.1.3 0-.1.2-.3.2-.4 0-.1-.1-.4-.1-.4-.2.2-.2.3-.2.5zm2.5-6.3h.3-.3zm-1.2-1.4c0-.1-.1-.2-.2-.2s-.2.1-.2.2.2.4.2.5c0-.1.2-.4.2-.5zm.3.8c.2-.3.3-.6.2-.7 0-.1-.1-.1-.1-.1h-.1c-.1.1-.1.5-.2.8h.2z"/><path d="M31.4 4.5c0-.2 0-.3.1-.5 0-.2.1-.4.1-.4-.1 0-.1.1-.2.2 0 .1-.1.4-.1.6 0 .1.1.1.1.1zm0 .4c0 .1.1.2.2.3.2.1.5.1.5.1 0-.1-.1-.2-.2-.3-.1-.1-.4-.1-.5-.1zm.2.1c.3 0 .3.2.3.2-.2-.1-.3-.2-.3-.2zm-.2.9s.1.1.4.1c.2 0 .3-.2.3-.2V6s.1 0 .2-.1c0 0-.1.1-.1.2 0 0 .1 0 .2-.1v.1s.3-.1.4-.2V6s.4 0 .5-.7c0 0-.3.1-.6.1s-.8 0-1-.1c0 0 0 .1.2.2 0 0-.1 0-.1.1 0 0 0 .1.2.1-.1 0-.3.2-.6.2zm1.1-.4h.5c0 .1 0 .1-.1.2 0-.2-.4-.2-.4-.2z"/><path d="M33.2 5.7s.2-.1.2-.2 0-.2-.1-.1c0 .1 0 .2-.1.3z"/><path d="M33.9 6c.2-.1.2-.3.1-.5-.1-.1-.3-.1-.4-.1-.1.2-.3.2-.4.3-.1.1-.2.3-.2.3h.3c.3-.2.6 0 .6 0zm-.2-.3s.1.1 0 0c.1.1 0 .1 0 .1-.1.1-.1 0 0-.1-.1.1-.1 0 0 0z"/><path d="M33.4 6.6s.2-.2 0-.4c-.1-.1-.2-.2-.4-.2l-.2.2s.4 0 .6.4zm-.9-.5zm-.3 0s-.1.3-.2.4v.2s.1-.2.2-.3c.1-.1.1-.1.3-.2 0 0-.1 0-.2.1v-.1c0-.2-.1-.1-.1-.1z"/><path d="M32.9 6s-.3.1-.4.2c-.1.1-.2.2-.2.4l.2-.2c.1-.1.3-.2.4-.4zm0-1.4c-.1 0-.1 0-.1.1s.1.2.1.3c0-.1.1-.2.1-.3 0-.1 0-.1-.1-.1zm.1.5h.1s.2-.3.2-.4c0-.1 0-.1-.1-.1H33v.5zm-.3 0h.1c0-.1 0-.3-.1-.4 0 0-.1-.1-.2 0 0 0-.1 0-.1.1.1 0 .3.3.3.3zm.2-.6h.1v-.1h.1v-.1H33v-.2h-.1v.2h-.2v.1h.2zm-1.8-.9h.1v-.2h.2v-.1h-.2v-.2h-.1v.2H31v.1h.1zm3.3 1.6c.1 0 .1 0 0 0 .1 0 .3.1.3.1-.1-.3-.2-.3-.3-.3v.2z"/><path d="M34.2 4.8c-.1.1-.1.4 0 .5 0 .1.1.3.1.4.1-.1.1-.3.1-.4V5c0-.1.1-.2.1-.4-.1 0-.2-.1-.2-.1s0 .1-.1.3zm-.1-.4h.1v-.1s-.2-.2-.4-.2h-.2s.1 0 .1.1c.2.1.3.2.4.2zm-.4.6c0 .1 0 .1-.1.2 0 0 .2-.1.3-.2 0-.1 0-.2-.1-.3 0-.1-.2-.2-.2-.3v-.2c-.1.1-.1.2-.1.2 0 .1.1.3.1.3 0 .1.1.2.1.3zm-2 1.4c-.1.2.1.4.1.4 0-.1 0-.3.1-.4.1-.1.2-.3.2-.4-.2 0-.4.3-.4.4zm-.1 0c.1-.1.2-.2.2-.3 0 0-.2 0-.3.1-.1.1-.2.2-.2.4 0-.1.2-.1.3-.2zm1.1-.1c-.2.1-.3.2-.3.3 0 .1-.2.2-.2.2s.1.3.1.4c0-.1.1-.3.2-.5 0-.1.1-.2.1-.3.1-.1.2-.1.2-.1 0 .1 0 0-.1 0zm-.8.5c0 .1-.2.3-.1.5s.2.3.3.4v-.5c0-.3-.1-.4-.2-.4z"/><path d="M31.2 6.5s-.2.1-.2.3c0 .1.2.4.2.5 0-.1.3-.4.2-.5.1-.2-.1-.3-.2-.3zm.4.3zm-.2.7l.3.3s.1-.1.1-.2v-.3c0-.1-.1-.3-.2-.6 0 0-.2.3-.2.5v.3zm-.2.6l.2-.2v-.2c-.1-.1-.1-.2-.2-.2 0 .1-.1.2-.1.2v.2s0 .1.1.2zm.3-.2c0 .1-.1.2 0 .3 0 .1.1.2.1.3 0 .2-.1.4-.1.4.1-.1.3-.2.3-.3.1-.1 0-.2 0-.3 0-.2-.3-.4-.3-.4zm.4-.2s-.1.1-.1.2 0 .2.1.3c.1.2.2.4.2.5 0 0 .1-.1.1-.3L32 8s-.1-.1-.1-.3zm1.3.8c0-.2 0-.4-.1-.5 0 0-.1.3-.3.3-.2 0-.5-.2-.8-.7 0 0 .1.5.4.9.2.2.3.3.4.3.1 0 .3-.1.4-.3z"/><path d="M32.2 7.4v.3c0 .1.1.2.2.3.1.1.3.1.4-.1 0 0-.4.1-.6-.5zM31 8.7c.1.1.1.1.2.1s.1 0 .2-.1c0-.1.1-.2.1-.3 0-.1-.1-.2-.1-.3l-.1.1s-.1 0-.1-.1c0 .1-.1.1-.1.3-.2.1-.1.2-.1.3zm.2.2c-.1.1-.2.1-.3.3 0 .1.2.4.3.5 0-.1.3-.4.3-.5-.1-.2-.2-.2-.3-.3zm.1 1c0 .3.1.5.2.6 0 0 .2-.2.3-.4 0-.1 0-.5-.2-.6-.1.1-.3.2-.3.4zm.6-1.3c-.4.2-.3.6-.3.6.1.1.2.3.2.4.1-.2.3-.3.3-.5s-.2-.5-.2-.5zm.4 0c-.1.1-.2.3-.2.3v.3c0 .1.2.4.2.4 0-.1.1-.3.2-.5v-.3l-.2-.2zm.4.3v.4c0 .1.1.1.1.2 0-.1.2-.4.2-.6 0 0-.2.1-.3 0zm.1.6l-.1-.1s-.1.3-.2.3h.1l.2-.2z"/><path d="M32.4 9.8s-.3-.3-.3-.4c-.1.1-.2.3-.3.4v.3c0 .1.2.3.2.3.1 0 .2-.2.3-.3.1-.2.1-.3.1-.3zm-1.4.8v.3c0 .1.2.2.2.3 0-.1.2-.2.2-.3v-.3c0-.1-.2-.3-.2-.3s-.2.2-.2.3zm.6.2c0 .1.1.2.2.3 0 0 .2-.2.2-.3v-.3c0-.1-.2-.2-.2-.3 0 .1-.2.3-.2.4v.2zm.8-.6c0 .1-.2.2-.2.3v.3c0 .1.1.2.1.3 0 0 .2-.2.2-.3v-.3c0-.1-.1-.3-.1-.3zm-.9 1.9c0-.2-.1-.4-.2-.5-.1.1-.2.4-.2.5 0 .3.2.7.2.8-.1-.1.1-.4.2-.8z"/><path d="M31.8 11.5c0-.2-.3-.5-.3-.5-.1.1-.2.2-.2.4 0 .1 0 .3.1.4.1.1.2.3.2.3.1-.2.2-.3.2-.6zm.3-.5c0 .1-.2.3-.1.4 0 .1.2.3.2.4 0 0 .1-.2.1-.3 0-.2 0-.3-.2-.5zm-.9 2.6s0 .1.1.1c.2.2.3.1.4.1 0 0-.3-.1-.3-.4 0-.3.2-.4.2-.6 0-.2 0-.3-.1-.5-.1.3-.2.6-.3.7-.1-.2-.2-.4-.3-.7-.1.2-.1.3-.1.5 0 .1.2.3.2.6s-.3.4-.3.4c.1 0 .2.1.4-.1.1 0 .1-.1.1-.1zm-.8-1.2c.2-.1.2-.3.2-.4 0-.1-.1-.2-.1-.3 0 .1-.2.2-.2.3 0 .1-.1.1 0 .2 0 .1.1.2.1.2z"/><path d="M30.2 12.6c-.2 0-.2.2-.2.2.1 0 .1.1.2.1.2 0 .3-.1.5-.4.1-.1.1-.4.1-.5-.1.3-.4.5-.6.6z"/><path d="M29.6 12.8h.3s0-.2.2-.3c0 0 .1 0 .2-.1 0 0-.1 0-.1-.1 0 0-.2.1-.3.1-.1.2-.2.3-.3.4z"/><path d="M29.5 12.5s.2 0 .4-.1.3-.1.3-.2c0 0-.1-.1-.1-.3l-.3.2c-.1.2-.3.4-.3.4zm-.4.6s.2-.1.3-.2c.1 0 .2-.2.3-.3-.1.1-.5.1-.6.1-.1 0-.2.1-.4.2.1.1.3.1.4.2zm-.5.1c.1.1.3 0 .4.1v.1s.1-.1.2 0c.1 0 .1.1.2.2 0 0 .1-.1 0-.1 0-.1-.1-.1-.2-.2-.1 0-.4-.1-.5-.2 0-.1 0 0-.1.1z"/><path d="M29.5 13.1s.1-.2.2-.2h-.1s-.1 0-.2.1c-.1 0-.2.1-.3.1h.4c-.1.1 0 .1 0 0zm0 .2c0 .2.1.2.1.3 0 0 .2.1.4-.2 0 0-.2.1-.3 0 0-.1 0-.3.1-.3.1-.1.2-.1.3-.1l-.1-.1h-.1c-.1 0-.3.2-.4.4zm-1.4 1.8c0-.1.1-.3.1-.4.1-.3.4-1 1.1-1.1.1 0-.1-.2-.1-.2-.1 0-.2.1-.2.1v-.2h-.2c-.1.2-.4.6-.5 1-.1.3-.2.4-.4.4-.1-.1-.2-.2-.5-.2-.1 0-.2.1-.3.2 0 0 0 .1.2.1.1 0 .4 0 .5.1 0 .2.1.2.3.2zm2.1-1.2c-.2.1-.2.3-.2.3.7-.1.9-1 .9-1-.1-.1-.1-.2-.1-.3-.1 0-.2.1-.2.2l-.4.4c-.2.1-.2.3-.2.3.3 0 .6-.4.7-.5.1-.1.2-.1.2-.1-.2.3-.5.5-.7.7zm.6 2.6c0-.1-.1-.2-.3-.4l-.1.2.4.6.3-.6-.1-.3c0 .2-.1.4-.2.5z"/><path d="M29.1 14.4l1.1 1.5.1-.2c-.4-.6-1-1.3-1-1.4l.2-.1-.6-.2v.6l.2-.2zm-2.2-1.5c.2.2.5.3.6.2.1-.1 0-.3-.2-.5s-.4-.3-.6-.2c-.2.1 0 .3.2.5z"/><path d="M27.5 15c0-.1-.1-.1-.1-.1s-.3 0-.4-.1c-.1-.1-.2-.3-.2-.4 0-.3.3-.6.6-.6s.6.3.6.6v.1l.1-.3c-.1-.3-.4-.6-.7-.6-.3 0-.6.2-.7.4 0-.3.2-.6.3-.7.1-.1.3-.2.3-.2-.1 0-.3-.1-.5-.3-.2-.2-.3-.3-.3-.5v.4c-.1.2-.3.6-.2 1 0 .2.2.6.5.9.1.1.1.2.1.2 0 .3.4.3.6.2-.1.1 0 .1 0 0zm1.1.2h-.5v.2h.5c.3 0 .6-.1.9-.2l-.1-.2c-.3.1-.6.1-.8.2zm2.3-1.2c0-.1-.1-.1-.1-.1-.3.4-.6.7-1 .9l.1.1c.3-.1.7-.4 1-.9z"/><path d="M27.4 15.1h-.3c-.1 0-.2 0-.2.1 0 0 0 .1.1.2h.1s.3-.1.3-.2c.1 0 .1-.1 0-.1zm.3.2h-.2c-.1 0-.3.2-.3.2v.1h.1c.1 0 .1 0 .1-.1.1.1.3-.1.3-.2 0 .1 0 0 0 0zm0 .1l-.1.2s.2 0 .3-.1c.1-.1.2-.2.1-.2s-.2 0-.3.1z"/><path d="M27.6 15.1s0 .1.1.2c.1 0 .3.1.3 0 0 0 0-.1-.2-.2-.1 0-.2-.1-.2 0zm4.4-2.7l.2-.2V12s-.2-.2-.2-.3c0 .1-.1.3-.1.3-.1.1-.1.2.1.4z"/><path d="M32.2 12.6c-.2-.1-.5-.3-.6-.5 0 .1 0 .4.1.5.1.2.3.4.4.4.1 0 .2-.1.2-.1.1-.1.1-.3-.1-.3z"/><path d="M32.8 12.8l-.3-.3c-.1-.1-.3-.1-.3-.1l-.1.1c.1 0 .2.1.2.1.1.1.2.3.2.3.1-.1.3-.1.3-.1z"/><path d="M32.7 12.3c-.1-.1-.3-.2-.3-.2 0 .1 0 .2-.1.3.1 0 .2.1.3.2.2 0 .4.1.4.1-.1-.2-.3-.4-.3-.4zm.3.6l.4.2c.1 0 .3-.1.3-.1-.1-.1-.2-.2-.4-.2-.1 0-.5-.1-.6-.1.1 0 .2.1.3.2zm.2.3c-.1 0-.2.1-.2.2v.1c0-.1.1-.2.2-.2h.2v-.1h.4s.1 0 0 0c0-.1-.1-.1-.1-.1-.1 0-.4.1-.5.1z"/><path d="M33 13.2c.1-.1.2-.1.3-.1-.1-.1-.2-.1-.3-.2-.1 0-.2-.1-.2-.1h-.1c.1.1.2.3.3.4zm-.2.4s.1-.1.1-.3c0-.2-.3-.4-.3-.4h-.1c-.1 0-.1.1-.1.1.1 0 .2 0 .3.1.1 0 .2.2.1.3-.1.1-.3 0-.3 0 0 .3.2.2.3.2zm2.6 1.1c-.1-.1-.2-.1-.3-.2-.3 0-.4.1-.5.2-.1 0-.2-.1-.4-.4-.1-.3-.4-.8-.5-1h-.2v.2l-.2-.1s-.2.1-.1.2c.7.1 1 .8 1.1 1.1.1.1.1.3.1.4.2 0 .3 0 .4-.1.1-.1.4-.1.5-.1s.1-.1.1-.2zm-3.5-1.4c.1.1.3.5.7.5 0 0-.1-.2-.2-.3-.1-.1-.3-.2-.4-.4l-.2-.2c0 .1-.1.2-.1.3 0 0 .2.9.9 1 0 0 0-.2-.2-.3-.2-.1-.5-.4-.5-.7-.2-.1-.1 0 0 .1zm-.3 1.1c-.1-.1-.4-.5-.4-.6 0 .1-.3.5-.4.6-.1.1-.4.4-.6.5 0 0 .4-.1.7-.3 0 0 .2.1.3.1.1 0 .3-.1.3-.1.2.2.7.3.7.3-.1-.1-.4-.4-.6-.5z"/><path d="M31.2 14.8c-.1 0-.2 0-.2-.1 0 .1.1.3.2.3.1-.1.2-.2.2-.3 0 .1-.1.1-.2.1z"/><path d="M33.5 14.6V14l-.5.2.2.1c-.1.1-1.4 1.9-1.6 2.2l-.8-1.5-.1.1-.7 1.1-.2-.1v.6l.5-.2-.2-.1c.1-.1.5-.7.6-.9l.8 1.4 1.7-2.4.3.1zm-1.6 1.3z"/><path d="M31.7 15.2l-.1-.2-.3.6.1.2c.1-.2.2-.3.2-.4.1.1.2.3.3.4l.1-.2-.3-.4zm.7 1l-.1-.2-.1.2.1.1-.3.2.5.2v-.6l-.1.1zm3.1-3.3c.2-.2.4-.4.2-.5-.1-.1-.3 0-.6.2-.2.2-.4.4-.2.5.2.1.4 0 .6-.2z"/><path d="M35.9 12.5c0 .1-.1.3-.3.5-.2.2-.4.3-.5.3 0 0 .2 0 .3.2.1.1.3.4.3.7-.1-.3-.4-.4-.7-.4-.3 0-.6.2-.7.6l.1.3v-.1c0-.3.3-.6.6-.6s.6.3.6.6c0 .2-.1.3-.2.4-.1.1-.3.1-.4.1 0 0-.1 0-.1.1s.1.1.1.1h.5s0-.1.1-.2c.3-.3.5-.6.5-.9.1-.4-.1-.8-.2-1v-.7zm-3.2 2.3c-.3-.2-.7-.5-1-.9s-.1 0-.2 0l.1.1c.3.5.7.8 1 1l.1-.2zm1.1.4c-.3 0-.5-.1-.8-.2l-.1.1c.3.1.6.2.9.2h.5v-.2c-.1.1-.3.1-.5.1z"/><path d="M35.3 15.1H35c-.1 0-.1.1 0 .1l.3.2h.2c0-.1.1-.1.1-.2-.1 0-.2 0-.3-.1zm-.4.2h-.1v.1s.1.2.2.2l.1.1h.1s.1 0 .1-.1c-.1-.2-.3-.3-.4-.3zm-.2.1c-.1-.1-.2-.1-.3-.1-.1 0 0 .2.1.2.1.1.3.1.3.1s-.1-.1-.1-.2zm0-.3c-.2 0-.3.1-.2.2h.3c.1 0 .1-.1.1-.2-.1-.1-.2 0-.2 0z"/></symbol><symbol id="icon_print-icon" viewBox="0 0 15 15"><path d="M238.86 236h7.5v1.87h.94V236a.94.94 0 0 0-.94-.94h-7.5a.94.94 0 0 0-.94.94v1.87h.94V236zm10.31 2.86H236a.94.94 0 0 0-.94.94v4.69a.94.94 0 0 0 .94.94h1.87v3.75a.94.94 0 0 0 .94.94h7.5a.94.94 0 0 0 .94-.94v-3.75h1.88a.94.94 0 0 0 .94-.94v-4.69a.94.94 0 0 0-.9-.94zm-2.81 10.31h-7.5v-6.56h7.5v6.56zm1.88-7.5a.94.94 0 1 1 .94-.94.94.94 0 0 1-.95.94z" transform="translate(-235.11 -235.11)"/><path d="M4.69 8.44h3.75v.94H4.69zm0 1.87h5.63v.94H4.69zm0 1.88h5.63v.94H4.69z"/></symbol><symbol id="icon_refresh" viewBox="0 0 612.035 612.035"><path d="M323.128 56.236l5.646-9.57 40.17-40.169C271.247-13.921 165.482 13.786 89.65 89.646-16.421 195.717-28.355 360.261 53.875 479.49L10.98 522.386l137.7 19.667-19.667-137.7-34.968 34.967c-60.978-96.724-49.322-226.078 34.94-310.34 53.244-53.243 124.486-77.501 194.143-72.744zm258.264 13.743l-137.7-19.667 19.668 137.7 38.25-38.25c78.726 98.31 72.521 242.186-18.583 333.317-61.116 61.117-145.989 84.039-224.882 68.739l-45.65 45.649c105.654 33.799 226.05 8.791 309.895-75.054 112.858-112.858 119.146-291.979 18.805-412.209l40.197-40.225z"/></symbol><symbol id="icon_rouble-bold" viewBox="0 0 22 24"><path transform="translate(-1124 -392)" d="M1125 411v-3h3v-2h-3v-3h3v-9.33h8.49c2.45 0 4.38.63 5.78 1.88a6.29 6.29 0 0 1 2.11 4.93c0 2.04-.7 2.68-2.1 3.92-1.41 1.24-3.34 1.86-5.8 1.86h-4.21V408H1143v3h-10.73v4h-4.28v-4zm7.27-8.03h4.22c2.77-.1 3.63-1.77 3.63-2.46 0-1.02-.3-1.87-.91-2.54-.62-.67-1.52-1-2.72-1h-4.22z"/></symbol><symbol id="icon_rouble" viewBox="0 0 22 24"><path transform="translate(-1260 -392)" d="M1262 409v-2h3.64v-2H1262v-2h3.64v-9.33h8.16c2.27 0 4.04.59 5.3 1.76a6.03 6.03 0 0 1 1.89 4.63 5.14 5.14 0 0 1-1.9 3.65c-1.25 1.16-3.02 1.73-5.3 1.73h-5.27V407H1279v2h-10.48v6h-2.88v-6zm11-6v.17h.8c2.89 0 4.3-2.06 4.3-3.09 0-1.18-.36-2.16-1.07-2.95-.72-.8-1.8-1.19-3.23-1.19h-5.28V403z"/></symbol><symbol id="icon_sberbank" viewBox="0 0 100.2 20"><path d="M16.7 1.3l.9.8L6.3 8.6.9 5.4l.5-1 5 2.8 10.3-5.9zM14.5 0l1.2.6L6.3 6 2 3.5l.7-.9 3.6 2.1L14.5 0zm3.9 3l.7.9-12.8 7.3L.2 7.7l.3-1.1L6.4 10l12-7z"/><path d="M20.3 6.3c.4 1.1.6 2.2.6 3.3s-.2 2.3-.6 3.4l-.3.6c-.5 1.2-1.3 2.3-2.2 3.3-1 1-2.1 1.7-3.3 2.2-1.3.6-2.7.8-4.1.8-1.4 0-2.8-.3-4.1-.8C5.1 18.6 4 17.9 3 17c-1-1-1.7-2.1-2.2-3.3C.3 12.3 0 11 0 9.6v-.7l6.3 3.6 13.4-7.7.6 1.5zm49 6.7h1.8l.2-1.2.7-2.4h3.2l1.1 3.6H79c-.3-.7-.7-1.5-1-2.6l-2.1-6c-.2-.5-.3-1-.4-1.5h-2.9v.3c.4.1.6.2.6.6 0 .3-.2.8-.5 1.6L69.3 13zm4.4-8.4l1.4 4.1h-2.8l1.4-4.1zM94 12.7c-.2-.1-.4-.2-.5-.3l-.1-.6V4l.1-.6c.1-.1.2-.2.5-.2v-.3h-3.3v.3c.2 0 .4.1.5.2l.1.6v7.8c0 .3 0 .5-.1.6l-.5.3v.3H94v-.3z"/><path d="M95.2 10c.7 1 1.2 2 1.7 3h3.4c-1-1-2.2-2.5-3.6-4.4l-1.3-1.9 2.4-2.4c.7-.7 1.3-1.1 1.7-1.4h-2.4c-.2.5-.9 1.6-2.1 3.1l-1.3 1.7 1.5 2.3zm-12.1 2.7c-.2-.1-.4-.2-.5-.3l-.1-.6v-4h3.9v4.1l-.1.6c-.1.1-.3.2-.5.3v.2h3.3v-.3l-.5-.3-.1-.6V4l.1-.6c.1-.1.2-.2.5-.2v-.3h-3.3v.3c.2 0 .4.1.5.2l.1.6v3.1h-3.9V4l.1-.6c.1-.1.2-.2.5-.2v-.3h-3.3v.3c.3 0 .4.1.5.2v8.4l-.1.6c-.1.1-.2.2-.5.3v.3H83v-.3zm-41.5-.4c.7-.5 1.1-1.4 1.1-2.7 0-1.3-.4-2.2-1.3-2.6-.6-.3-1.8-.5-3.4-.5h-.6V4.1c0-.2 0-.4.1-.5.1-.1.3-.2.6-.2h1.4l1.4.2c.3.2.5.5.6 1l.1.4h.5V2.9h-7.5v.3c.3 0 .4.1.5.2l.1.6v7.8l-.1.6c-.1.1-.2.2-.5.3v.3h4.1c1.3 0 2.3-.2 2.9-.7zm-3.3.1c-.4 0-.6-.1-.7-.2-.1-.1-.2-.3-.2-.7V7.2h.8c.8 0 1.4.2 1.7.7.3.4.4 1 .4 1.9 0 1.8-.6 2.6-1.8 2.6h-.2zm-8 .8c1.3 0 2.5-.3 3.4-.9l-.3-.6c-.8.4-1.7.6-2.5.6-1.2 0-2-.4-2.5-1.3-.4-.7-.6-1.8-.6-3.2s.2-2.5.5-3.2c.4-.7 1.1-1.1 2.2-1.1.6 0 1.1.1 1.4.3.3.2.5.5.6.9l.2.6h.6V3.2c-.7-.3-1.7-.5-2.9-.5-3.3 0-5 1.8-5 5.3.1 3.5 1.7 5.2 4.9 5.2zm-4 2.3h73.9v1H26.3zm24.8-4.8h-.6l-.1.3c-.1.6-.3 1-.6 1.1l-1.4.2h-.3l-1.3-.2c-.2-.1-.3-.3-.3-.6V7.8h1.3c.9 0 1.5.1 1.8.3V6.8c-.3.2-.9.3-1.8.3h-1.3V4l.1-.4.4-.1h1.1l1.4.2c.3.2.5.5.6 1l.1.4h.5V2.9h-7v.3c.3 0 .4.1.5.2l.2.6v7.8l-.1.6c-.1.1-.2.2-.5.3v.3h7.3v-2.3zM68 12.3c.7-.5 1.1-1.4 1.1-2.7 0-1.3-.5-2.2-1.4-2.6-.6-.3-1.8-.5-3.4-.5h-.6V4.1c0-.2 0-.4.1-.5.1-.1.3-.2.6-.2h1.4l1.4.2c.3.2.5.5.6 1l.2.5h.6V2.9H61v.3c.3 0 .4.1.5.2l.1.6v7.8l-.1.6-.5.3v.3h4c1.4 0 2.3-.2 3-.7zm-3.4.1c-.3 0-.6-.1-.7-.2-.1-.1-.2-.3-.2-.7V7.2h.9c.8 0 1.4.2 1.7.7.3.4.4 1 .4 1.9 0 .9-.1 1.6-.4 2-.3.4-.8.7-1.4.7h-.3zm-8.9.3c-.3-.1-.4-.2-.5-.3l-.1-.6V9h1c1.3 0 2.2-.2 2.9-.7.7-.5 1.1-1.4 1.1-2.5s-.3-1.9-1-2.4c-.5-.3-1.4-.5-2.5-.5h-4.2v.3c.2 0 .4.1.5.2l.1.6v7.8l-.1.6-.5.3v.3h3.3v-.3zm-.6-8.6c0-.2.1-.4.2-.5l.5-.1h.2c1.2 0 1.8.7 1.8 2.2 0 .9-.1 1.5-.3 1.9-.3.5-.7.7-1.3.7h-1V4.1z"/></symbol><symbol id="icon_search-icon" viewBox="0 0 18 19"><path d="M508.19 509l-4.72-5a7.64 7.64 0 0 0 1.9-5.07 7.49 7.49 0 1 0-7.49 7.62 7.41 7.41 0 0 0 4.46-1.51l4.75 5a.74.74 0 0 0 .55.24.75.75 0 0 0 .53-.22.78.78 0 0 0 .02-1.06zm-10.3-16.15a6.08 6.08 0 1 1-6 6.08 6 6 0 0 1 6-6.12z" transform="translate(-490.4 -491.27)"/></symbol><symbol id="icon_sort-price-ask" viewBox="0 0 13 12"><path id="xdrma" d="M1478 260v-9h1v9zm-3 0v-7h1v7zm-3 0v-5h1v5zm-3 0v-3h1v3z" transform="translate(-1467 -249)"/></symbol><symbol id="icon_sort-price-desk" viewBox="0 0 13 12"><path id="t5k9a" d="M1469 288v-9h1v9zm3 0v-7h1v7zm3 0v-5h1v5zm3 0v-3h1v3z" transform="translate(-1467 -277)"/></symbol><symbol id="icon_sorting_icon_mobile" viewBox="0 0 14.34 15.05"><path class="cls-1" d="M2.38 14.55V12a1.89 1.89 0 0 0 0-3.66V.5a.5.5 0 0 0-1 0v7.88a1.89 1.89 0 0 0 0 3.65v2.52a.48.48 0 1 0 1 0zM1 10.21a.93.93 0 1 1 .93.93.93.93 0 0 1-.93-.93zM6.67.51v3.2a1.89 1.89 0 0 0 0 3.66v7.18a.5.5 0 0 0 1 0V7.37a1.89 1.89 0 0 0 0-3.66V.51a.5.5 0 0 0-.5-.51.49.49 0 0 0-.49.49zm1.41 5a.93.93 0 1 1-.93-.93.93.93 0 0 1 .93.93zm3.84-5v7.87a1.89 1.89 0 0 0 0 3.66v2.51a.5.5 0 0 0 1 0V12a1.89 1.89 0 0 0 0-3.66V.5a.5.5 0 0 0-1 .01zm1.41 9.7a.93.93 0 1 1-.93-.93.93.93 0 0 1 .93.93z"/></symbol><symbol id="icon_star" viewBox="0 0 12 12"><path class="cls-1" d="M30.71 24.41a.92.92 0 0 0 .22-.92.87.87 0 0 0-.69-.61l-2.91-.44a.38.38 0 0 1-.33-.22l-1.3-2.75a.85.85 0 0 0-1.54 0l-1.3 2.75a.38.38 0 0 1-.29.22l-2.91.44a.87.87 0 0 0-.69.61.92.92 0 0 0 .22.92l2.1 2.14a.41.41 0 0 1 .11.35l-.5 3a.91.91 0 0 0 .19.73.84.84 0 0 0 1.06.22l2.6-1.43a.37.37 0 0 1 .35 0l2.6 1.43a.82.82 0 0 0 .4.1.85.85 0 0 0 .66-.32.91.91 0 0 0 .24-.71l-.5-3a.41.41 0 0 1 .11-.35z" transform="translate(-18.97 -18.97)"/></symbol><symbol id="icon_twitter-icon" viewBox="0 0 22 18"><path class="cls-1" d="M267 249.13a9 9 0 0 1-2.59.72 4.55 4.55 0 0 0 2-2.51 9 9 0 0 1-2.87 1.1 4.51 4.51 0 0 0-7.81 3.11 4.59 4.59 0 0 0 .12 1 12.79 12.79 0 0 1-9.3-4.75 4.57 4.57 0 0 0 1.4 6.07 4.47 4.47 0 0 1-2-.57v.06a4.54 4.54 0 0 0 3.62 4.46 4.49 4.49 0 0 1-2 .08 4.52 4.52 0 0 0 4.22 3.16A9.06 9.06 0 0 1 245 263a12.82 12.82 0 0 0 19.76-10.89v-.59a9.2 9.2 0 0 0 2.24-2.39z" transform="translate(-245 -247)"/></symbol><symbol id="icon_visa" viewBox="0 0 49.5 15"><path d="M21.4.5h-.7l-2.6 14.1h4L24.6.5zM35.7 10c0-1.6-1-2.9-3.4-3.9C30.9 5.4 30 5 30 4.3c0-.6.7-1.3 2.3-1.3 1.3 0 2.3.2 3 .5l.4.2.6-3.1c-.8-.3-2-.6-3.6-.6C28.8 0 26 2 26 4.8c0 2.1 2 3.2 3.5 3.9 1.1.5 1.6.9 1.9 1.3l-.2-.2c.1.1.2.3.3.4.1.1.1.3.1.4 0 .9-1.3 1.4-2.4 1.4-1.6 0-2.4-.2-3.8-.8l-.5-.2-.5 3.2v.1c.9.4 2.7.8 4.5.8 2.5 0 4.6-.7 5.7-2 .7-.9 1.1-1.9 1.1-3.1zm-22.3 3.3L19.1.5h-4.3l-2.7 6.7-1.3 3-.3-2c-.1-.2-.1-.4-.2-.7L9.1 1.6C8.9.7 8.2.5 7.3.5H0l2.5.8c.9.3 1.8.7 2.6 1.2l3.4 12.2h4.2v-.1l.7-1.3zm34.7-4.4l-2-8.4h-3c-.9 0-1.6.1-2 1l-5.9 13.1h4.2l.8-2.4h5l.5 2.4h3.8l-1.4-5.7zm-4.7-4.6l.2 1.3s.7 3.3.9 4.2h-3.3c.2-.5.8-2.1 1.2-3.2 0-.1 0-.1.1-.1 0-.1.1-.2.1-.3.1-.3.2-.5.2-.5s.1-.2.2-.5c.2-.3.3-.6.4-.9z"/></symbol><symbol id="icon_vk-icon" viewBox="0 0 16 10"><path d="M272.35 265.35l.54-.78q1.44-2.1 1.25-2.68l-.05-.09a.48.48 0 0 0-.26-.15 1.21 1.21 0 0 0-.53 0h-2.68a.38.38 0 0 0-.09.1.64.64 0 0 0-.08.16 15.56 15.56 0 0 1-.89 2.05q-.31.57-.57 1a4.65 4.65 0 0 1-.43.61 3.12 3.12 0 0 1-.32.31.29.29 0 0 1-.22.1h-.14a.59.59 0 0 1-.19-.22 1.07 1.07 0 0 1-.1-.36v-3.08a2.29 2.29 0 0 0 0-.42 1.55 1.55 0 0 0-.09-.29.48.48 0 0 0-.17-.22.92.92 0 0 0-.28-.12 5.08 5.08 0 0 0-1.12-.12 5 5 0 0 0-2 .22 1.15 1.15 0 0 0-.32.27q-.15.2 0 .22a1 1 0 0 1 .71.39l.05.11a1.89 1.89 0 0 1 .12.42 4.64 4.64 0 0 1 .08.67 7.76 7.76 0 0 1 0 1.14q0 .47-.08.74a1.59 1.59 0 0 1-.11.43l-.1.2a.58.58 0 0 1-.22 0 .5.5 0 0 1-.28-.13 2.05 2.05 0 0 1-.35-.35 4.69 4.69 0 0 1-.4-.63q-.22-.4-.47-.95l-.13-.26-.34-.74q-.22-.48-.38-.94a.6.6 0 0 0-.2-.29l-.13-.08-.19-.06h-2.28a.55.55 0 0 0-.47.17v.05a.32.32 0 0 0 0 .15.79.79 0 0 0 .05.25q.5 1.29 1.09 2.48t1 1.93q.43.73.88 1.38t.6.83l.23.27.21.22a5.09 5.09 0 0 0 .59.52 9.82 9.82 0 0 0 .86.6 4.43 4.43 0 0 0 1.1.48 3.46 3.46 0 0 0 1.22.15h1a.63.63 0 0 0 .44-.2.65.65 0 0 0 .06-.17 1 1 0 0 0 0-.25 3.28 3.28 0 0 1 .05-.71 2 2 0 0 1 .14-.47 1.17 1.17 0 0 1 .18-.27.74.74 0 0 1 .14-.13h.07a.5.5 0 0 1 .47.14 2.9 2.9 0 0 1 .51.53q.24.31.57.71a4.05 4.05 0 0 0 .58.58l.17.11a2 2 0 0 0 .43.2.86.86 0 0 0 .47 0h2.13a.9.9 0 0 0 .49-.11.44.44 0 0 0 .21-.25.77.77 0 0 0 0-.31 1.22 1.22 0 0 0-.06-.24l-.05-.11a8.93 8.93 0 0 0-1.59-2q-.53-.56-.67-.75a.75.75 0 0 1-.12-.74 6.89 6.89 0 0 1 .46-1.22z" transform="translate(-258.17 -261.17)"/></symbol><symbol id="icon_webmoney" viewBox="0 0 20.1 20"><path transform="rotate(-42.069 14.182 7.831)" d="M13 6.6h2.4V9H13z"/><path transform="rotate(-41.992 10.44 9.485)" d="M8.8 7.9H12v3.2H8.8z"/><path transform="rotate(-41.992 8.736 5.426)" d="M7.1 3.8h3.2V7H7.1z"/><path d="M17.4 8l1.2-1-1.1-1.2-1.2 1.1z"/><path transform="rotate(-41.992 12.537 4.245)" d="M11.3 3h2.4v2.4h-2.4z"/><path transform="rotate(-42.03 18.949 10.447)" d="M18.1 9.6h1.6v1.6h-1.6z"/><path d="M11.9 17.7L8 13.3l1.1-1-2.8-3 1.1-1-2.8-3.1L9 1.3l1.4 1.5L12.7.7l1.4 1.4.9-.8-.6-.3C13.1.4 11.6 0 10 0 4.5 0 0 4.5 0 10s4.5 10 10 10c1.8 0 3.5-.5 4.9-1.3.5-.3.9-.6 1.3-.9l-2-2.3-2.3 2.2z"/><path transform="rotate(-41.992 12.132 13.598)" d="M10.5 12h3.2v3.2h-3.2z"/><path transform="rotate(-42.021 17.272 15.203)" d="M16.1 14h2.4v2.4h-2.4z"/><path transform="rotate(-42.03 15.908 3.382)" d="M15.1 2.6h1.6v1.6h-1.6z"/><path d="M17.4 11.7l-1.6-1.8-1.8 1.6 1.6 1.8z"/></symbol><symbol id="icon_yandex" viewBox="0 0 15.2 20"><path d="M10.5 8.2V0L2.4 6.4C.1 8.1 0 8.8 0 9.9v8.6c0 .8.7 1.5 1.5 1.5h13.8V8.2h-4.8zM6.6 8c.5-.6 1.2-.8 1.6-.5.4.3.3 1.1-.2 1.7s-1.2.8-1.6.5c-.4-.4-.3-1.1.2-1.7zm6.2 7.3L1.9 18.8l8.6-5.9V8.2h2.3v7.1z"/></symbol><symbol id="icon_zoom-icon" viewBox="0 0 18 19"><path d="M508.19 509l-4.72-5a7.64 7.64 0 0 0 1.9-5.07 7.49 7.49 0 1 0-7.49 7.62 7.41 7.41 0 0 0 4.46-1.51l4.75 5a.74.74 0 0 0 .55.24.75.75 0 0 0 .53-.22.78.78 0 0 0 .02-1.06zm-10.3-16.15a6.08 6.08 0 1 1-6 6.08 6 6 0 0 1 6-6.12z" transform="translate(-490.4 -491.27)"/><path d="M501.6 498.09h-3V495a.63.63 0 0 0-1.25 0v3.05h-2.95a.64.64 0 0 0 0 1.28h2.95v3a.63.63 0 1 0 1.26 0v-3h3a.64.64 0 0 0-.01-1.24z" transform="translate(-490.4 -491.27)"/></symbol><symbol id="icon_r" viewBox="0 0 13 14"><path d="M8.3 8.1c2.6 0 3.7-1.8 3.7-3.6C12 2.1 9.7.9 8 .9H2.2v5.2H0v2h2.2v1H0v2h2.2v2.6h2.6v-2.6H11v-2H4.8v-1h3.5zM4.8 2.9h2.5c1.2 0 2.2.6 2.2 1.8 0 1.2-1.5 1.4-2.2 1.4H4.8V2.9z"/></symbol></svg>