<svg id="loading-icon" xmlns="http://www.w3.org/2000/svg" viewBox="0 0 20 20"><style>.st0{enable-background:new;-webkit-animation-delay:1.05s;animation-delay:1.05s}.st0,.st1,.st2,.st3,.st4,.st5,.st6,.st7{fill:#fff;-webkit-animation:fadeG 1.2s normal infinite;animation:fadeG 1.2s normal infinite}.st1{enable-background:new;-webkit-animation-delay:.9s;animation-delay:.9s}.st2{-webkit-animation-delay:.75s;animation-delay:.75s}.st3{-webkit-animation-delay:.6s;animation-delay:.6s}.st4{-webkit-animation-delay:.45s;animation-delay:.45s}.st5{-webkit-animation-delay:.3s;animation-delay:.3s}.st6{-webkit-animation-delay:.15s;animation-delay:.15s}.st7{-webkit-animation-delay:1.2s;animation-delay:1.2s}@keyframes fadeG{0%{opacity:0}to{opacity:1}}@-webkit-keyframes fadeG{0%{opacity:0}to{opacity:1}}</style><title>loading-button-icon</title><path id="Left-corner-up" class="st0" d="M7.2 7.2c-.4.4-1 .4-1.4 0L2.9 4.3c-.4-.4-.4-1 0-1.4.4-.4 1-.4 1.4 0l2.8 2.8c.5.4.5 1.1.1 1.5z"/><path id="Left" class="st1" d="M6 10c0 .6-.4 1-1 1H1c-.6 0-1-.4-1-1s.4-1 1-1h4c.6 0 1 .4 1 1z"/><path id="Left-corner-down" class="st2" d="M2.9 17.1c-.4-.4-.4-1 0-1.4l2.8-2.8c.4-.4 1-.4 1.4 0 .4.4.4 1 0 1.4l-2.8 2.8c-.3.4-1 .4-1.4 0z"/><path id="Down" class="st3" d="M10 14c.6 0 1 .4 1 1v4c0 .6-.4 1-1 1s-1-.4-1-1v-4c0-.6.4-1 1-1z"/><path id="Right-corner-down" class="st4" d="M17.1 17.1c-.4.4-1 .4-1.4 0l-2.8-2.8c-.4-.4-.4-1 0-1.4.4-.4 1-.4 1.4 0l2.8 2.8c.4.3.4 1 0 1.4z"/><path id="Right" class="st5" d="M20 10c0 .6-.4 1-1 1h-4c-.6 0-1-.4-1-1s.4-1 1-1h4c.6 0 1 .4 1 1z"/><path id="Right-corner-up" class="st6" d="M12.8 7.2c-.4-.4-.4-1 0-1.4L15.6 3c.4-.4 1-.4 1.4 0 .4.4.4 1 0 1.4l-2.8 2.8c-.3.4-1 .4-1.4 0z"/><path id="Up" class="st7" d="M10 0c.6 0 1 .4 1 1v4c0 .6-.4 1-1 1s-1-.4-1-1V1c0-.6.4-1 1-1z"/></svg>