<svg viewBox="0 0 32 45"><defs><linearGradient id="a" x1="68.2%" x2="0%" y1="0%" y2="73.135%"><stop offset="0%" stop-color="#4D5254"/><stop offset="100%" stop-color="#595E61"/></linearGradient><linearGradient id="b" x1="68.2%" x2="0%" y1="0%" y2="73.135%"><stop offset="0%" stop-color="#009BD4"/><stop offset="100%" stop-color="#00ABE7"/></linearGradient></defs><path fill="url(#a)" d="M38.69 9.49a16.17 16.17 0 0 0-22.63 0c-5.59 5.51-6.28 15.88-1.5 22.15l12.82 18.24 12.8-18.21C45 25.37 44.29 15 38.69 9.49z" transform="translate(-11.38 -4.88)"/><path fill="url(#b)" d="M38.69 9.49a16.17 16.17 0 0 0-22.63 0c-5.59 5.51-6.28 15.88-1.5 22.15l12.82 18.24 12.8-18.21C45 25.37 44.29 15 38.69 9.49z" transform="translate(-11.38 -4.88)"/></svg>