<?xml version="1.0" encoding="utf-8"?>
<!-- Generator: Adobe Illustrator 19.2.1, SVG Export Plug-In . SVG Version: 6.00 Build 0)  -->
<svg version="1.1" id="_4_copy" xmlns="http://www.w3.org/2000/svg" xmlns:xlink="http://www.w3.org/1999/xlink" x="0px" y="0px"
	 viewBox="0 0 416.6 170" style="enable-background:new 0 0 416.6 170;" xml:space="preserve">
<style type="text/css">
	.st0{fill:url(#vertical_1_);}
	.st1{fill:url(#horizontal_1_);}
	.st2{fill:url(#anchor_1_);}
	.st3{fill:url(#SVGID_1_);}
	.st4{fill:url(#vertical-2_1_);}
	.st5{fill:url(#horizontal-2_1_);}
	.st6{fill:url(#anchor-2_1_);}
</style>
<title>404-illustration</title>
<linearGradient id="vertical_1_" gradientUnits="userSpaceOnUse" x1="380.4099" y1="0.3484" x2="380.4099" y2="169.6516" gradientTransform="matrix(1 0 0 -1 0 170)">
	<stop  offset="0" style="stop-color:#4C4CD9"/>
	<stop  offset="1" style="stop-color:#0098D6"/>
</linearGradient>
<path id="vertical" class="st0" d="M380.4,0.3L380.4,0.3c6.9,0,12.5,5.6,12.5,12.5v144.2c0,6.9-5.6,12.5-12.5,12.5l0,0
	c-6.9,0-12.5-5.6-12.5-12.5V12.9C367.9,6,373.5,0.3,380.4,0.3z"/>
<linearGradient id="horizontal_1_" gradientUnits="userSpaceOnUse" x1="258.1557" y1="-81.0574" x2="258.1557" y2="51.3197" gradientTransform="matrix(6.123234e-017 1 1 -6.123234e-017 365.3197 -138.3197)">
	<stop  offset="0" style="stop-color:#155FFF"/>
	<stop  offset="2.000000e-002" style="stop-color:#4C4CD9"/>
	<stop  offset="1" style="stop-color:#0098D6"/>
</linearGradient>
<path id="horizontal" class="st1" d="M416.6,119.8L416.6,119.8c0,6.9-5.6,12.5-12.5,12.5H296.8c-6.9,0-12.5-5.6-12.5-12.5l0,0
	c0-6.9,5.6-12.5,12.5-12.5h107.3C411,107.3,416.6,112.9,416.6,119.8z"/>
<linearGradient id="anchor_1_" gradientUnits="userSpaceOnUse" x1="255.1432" y1="-4.0514" x2="255.1432" y2="165.2519" gradientTransform="matrix(0.788 0.6157 0.5849 -0.7486 90.5831 -30.4111)">
	<stop  offset="0" style="stop-color:#4C4CD9"/>
	<stop  offset="1" style="stop-color:#0098D6"/>
</linearGradient>
<path id="anchor" class="st2" d="M388.1,3.2L388.1,3.2c5.5,4.3,6.4,12.1,2.2,17.6l-83.4,106.8c-4.3,5.5-12.1,6.4-17.6,2.2l0,0
	c-5.5-4.3-6.4-12.1-2.2-17.6L370.5,5.3C374.8-0.1,382.7-1.1,388.1,3.2z"/>
<linearGradient id="SVGID_1_" gradientUnits="userSpaceOnUse" x1="207.3197" y1="-2" x2="207.3197" y2="168" gradientTransform="matrix(1 0 0 -1 1 168)">
	<stop  offset="0" style="stop-color:#4C4CD9"/>
	<stop  offset="1" style="stop-color:#0098D6"/>
</linearGradient>
<path class="st3" d="M208.3,0L208.3,0c-31.5,0.1-57,25.6-57.1,57.1v55.7c0.1,31.5,25.6,57,57.1,57.1l0,0c31.5-0.1,57-25.6,57.1-57.1
	V57.1C265.4,25.6,239.8,0.1,208.3,0z M239.7,116.4c0,17.3-14.1,31.3-31.4,31.4l0,0c-17.3,0-31.3-14.1-31.4-31.4V53.6
	c0-17.3,14.1-31.3,31.4-31.4l0,0c17.3,0,31.3,14.1,31.4,31.4V116.4z"/>
<linearGradient id="vertical-2_1_" gradientUnits="userSpaceOnUse" x1="96.1475" y1="0.3484" x2="96.1475" y2="169.6516" gradientTransform="matrix(1 0 0 -1 0 170)">
	<stop  offset="0" style="stop-color:#4C4CD9"/>
	<stop  offset="1" style="stop-color:#0098D6"/>
</linearGradient>
<path id="vertical-2" class="st4" d="M96.1,0.3L96.1,0.3c6.9,0,12.5,5.6,12.5,12.5v144.2c0,6.9-5.6,12.5-12.5,12.5l0,0
	c-6.9,0-12.5-5.6-12.5-12.5V12.9C83.6,6,89.2,0.3,96.1,0.3z"/>
<linearGradient id="horizontal-2_1_" gradientUnits="userSpaceOnUse" x1="258.1557" y1="-365.3197" x2="258.1557" y2="-232.9426" gradientTransform="matrix(6.123234e-017 1 1 -6.123234e-017 365.3197 -138.3197)">
	<stop  offset="0" style="stop-color:#4C4CD9"/>
	<stop  offset="1" style="stop-color:#0098D6"/>
</linearGradient>
<path id="horizontal-2" class="st5" d="M132.4,119.8L132.4,119.8c0,6.9-5.6,12.5-12.5,12.5H12.5c-6.9,0-12.5-5.6-12.5-12.5l0,0
	c0-6.9,5.6-12.5,12.5-12.5h107.3C126.8,107.3,132.4,112.9,132.4,119.8z"/>
<linearGradient id="anchor-2_1_" gradientUnits="userSpaceOnUse" x1="31.1394" y1="-188.6004" x2="31.1394" y2="-19.2971" gradientTransform="matrix(0.788 0.6157 0.5849 -0.7486 90.5861 -30.4101)">
	<stop  offset="0" style="stop-color:#4C4CD9"/>
	<stop  offset="1" style="stop-color:#0098D6"/>
</linearGradient>
<path id="anchor-2" class="st6" d="M103.9,3.2L103.9,3.2c5.5,4.3,6.4,12.1,2.2,17.6L22.6,127.5C18.3,133,10.5,134,5,129.7l0,0
	c-5.5-4.3-6.4-12.1-2.2-17.6L86.3,5.3C90.5-0.1,98.4-1.1,103.9,3.2z"/>
</svg>
