<svg id="Capa_1" data-name="Capa 1" xmlns="http://www.w3.org/2000/svg" viewBox="0 0 32 32"><defs><style>.cls-1{fill:#ffcc4d;}.cls-2{fill:#664500;}</style></defs><title>emoji5</title><path class="cls-1" d="M32,16A16,16,0,1,1,16,0,16,16,0,0,1,32,16"/><path id="SVGCleanerId_0" data-name="SVGCleanerId 0" class="cls-2" d="M12.44,14.67c0,1.72-1,3.11-2.22,3.11S8,16.39,8,14.67s1-3.11,2.22-3.11,2.22,1.39,2.22,3.11"/><path id="SVGCleanerId_0-2" data-name="SVGCleanerId 0" class="cls-2" d="M25,14.67c0,1.72-1,3.11-2.22,3.11s-2.22-1.39-2.22-3.11,1-3.11,2.22-3.11S25,12.95,25,14.67"/><path class="cls-2" d="M22.22,23.11H9.78a0.89,0.89,0,0,1,0-1.78H22.22a0.89,0.89,0,1,1,0,1.78"/></svg>