<svg id="Capa_1" data-name="Capa 1" xmlns="http://www.w3.org/2000/svg" viewBox="0 0 32 32"><defs><style>.cls-1{fill:#ffcc4d;}.cls-2{fill:#664500;}.cls-3{fill:#5dadec;}</style></defs><title>emoji4</title><path class="cls-1" d="M32,16A16,16,0,1,1,16,0,16,16,0,0,1,32,16"/><path id="SVGCleanerId_0" data-name="SVGCleanerId 0" class="cls-2" d="M12.44,14.67c0,1.72-1,3.11-2.22,3.11S8,16.39,8,14.67s1-3.11,2.22-3.11,2.22,1.39,2.22,3.11"/><path id="SVGCleanerId_0-2" data-name="SVGCleanerId 0" class="cls-2" d="M25,14.67c0,1.72-1,3.11-2.22,3.11s-2.22-1.39-2.22-3.11,1-3.11,2.22-3.11S25,12.95,25,14.67"/><path class="cls-2" d="M20.88,24.78s-1-3.89-4.88-3.89-4.87,3.85-4.88,3.89a0.44,0.44,0,0,0,.21.48,0.45,0.45,0,0,0,.53-0.05s0.9-.77,4.14-0.77,4.1,0.74,4.14.77a0.44,0.44,0,0,0,.74-0.43"/><path class="cls-3" d="M8.89,26.67a4.44,4.44,0,1,1-8.89,0c0-2.46,3.56-8.89,4.44-8.89s4.44,6.43,4.44,8.89"/><path class="cls-2" d="M26.67,11.56a7.91,7.91,0,0,1-7-4,0.89,0.89,0,0,1,1.59-.8,6.13,6.13,0,0,0,5.43,3.07,0.89,0.89,0,0,1,0,1.78"/><path class="cls-2" d="M5.33,11.56a0.89,0.89,0,0,1,0-1.78c4.52,0,5.33-2.77,5.36-2.89a0.89,0.89,0,0,1,1.08-.63,0.88,0.88,0,0,1,.64,1.07c0,0.17-1.13,4.23-7.08,4.23"/></svg>