<svg id="Capa_1" data-name="Capa 1" xmlns="http://www.w3.org/2000/svg" viewBox="0 0 32 32"><defs><style>.cls-1{fill:#ffcc4d;}.cls-2{fill:#664500;}</style></defs><title>emoji6</title><path class="cls-1" d="M32,16A16,16,0,1,1,16,0,16,16,0,0,1,32,16"/><path class="cls-2" d="M12.44,14.67c0,1.72-1,3.11-2.22,3.11S8,16.39,8,14.67s1-3.11,2.22-3.11,2.22,1.39,2.22,3.11"/><path class="cls-2" d="M25.3,15.82c-0.05-.12-1.33-2.93-4-2.93s-3.91,2.81-4,2.93a0.44,0.44,0,0,0,.13.53,0.45,0.45,0,0,0,.54,0,5.94,5.94,0,0,1,3.29-.8,6,6,0,0,1,3.29.8,0.44,0.44,0,0,0,.26.09,0.44,0.44,0,0,0,.41-0.62"/><path class="cls-2" d="M5.33,11.07a0.89,0.89,0,0,1-.71-1.42,9.26,9.26,0,0,1,6.93-3.91,0.89,0.89,0,0,1,0,1.78A7.5,7.5,0,0,0,6,10.72a0.89,0.89,0,0,1-.71.36"/><path class="cls-2" d="M25.78,13a0.89,0.89,0,0,1-.71-0.36c-2.3-3.07-6.19-2.34-6.23-2.33a0.89,0.89,0,1,1-.35-1.74c0.2,0,5-1,8,3A0.89,0.89,0,0,1,25.78,13"/><path class="cls-2" d="M20.67,21a0.46,0.46,0,0,0-.53.05s-0.9.77-4.14,0.77S11.87,21,11.87,21a0.44,0.44,0,0,0-.75.42s1,3.89,4.88,3.89,4.87-3.85,4.88-3.89A0.44,0.44,0,0,0,20.67,21"/></svg>