<svg id="Capa_1" data-name="Capa 1" xmlns="http://www.w3.org/2000/svg" viewBox="0 0 32 32"><defs><style>.cls-1{fill:#ffcc4d;}.cls-2{fill:#664500;}.cls-3{fill:#fff;}</style></defs><title>emoji7</title><path class="cls-1" d="M32,16A16,16,0,1,1,16,0,16,16,0,0,1,32,16"/><path class="cls-2" d="M16,18.67a37.61,37.61,0,0,1-8-.89c-0.6-.12-1.78,0-1.78,1.78,0,3.56,4.08,8,9.78,8s9.78-4.44,9.78-8c0-1.78-1.17-1.9-1.78-1.78a37.61,37.61,0,0,1-8,.89"/><path class="cls-3" d="M8,19.56a27.9,27.9,0,0,0,8,.89,27.9,27.9,0,0,0,8-.89s-1.78,3.56-8,3.56-8-3.56-8-3.56"/><path id="SVGCleanerId_0" data-name="SVGCleanerId 0" class="cls-2" d="M12.89,12c0,1.72-1,3.11-2.22,3.11S8.44,13.72,8.44,12s1-3.11,2.22-3.11,2.22,1.39,2.22,3.11"/><path id="SVGCleanerId_0-2" data-name="SVGCleanerId 0" class="cls-2" d="M24.49,12c0,1.72-1,3.11-2.22,3.11S20,13.72,20,12s1-3.11,2.22-3.11,2.22,1.39,2.22,3.11"/></svg>