<svg id="Capa_1" data-name="Capa 1" xmlns="http://www.w3.org/2000/svg" viewBox="0 0 32 32"><defs><style>.cls-1{fill:#ffcc4d;}.cls-2{fill:#664500;}.cls-3{fill:#e75a70;}</style></defs><title>emoji10</title><path class="cls-1" d="M32,16A16,16,0,1,1,16,0,16,16,0,0,1,32,16"/><path class="cls-2" d="M16,19.42a30.82,30.82,0,0,1-6.55-.73C9,18.6,8,18.69,8,20.15c0,2.91,3.34,6.55,8,6.55s8-3.64,8-6.55c0-1.46-1-1.55-1.46-1.46a30.8,30.8,0,0,1-6.55.73"/><path class="cls-3" d="M14.8,2.92a4.15,4.15,0,0,0-7.9.23A4.14,4.14,0,0,0,1,8.77c1.73,3.18,6.74,5.42,9.78,5.45C13.16,12.3,15.65,7.41,15,3.84a4.18,4.18,0,0,0-.21-0.93"/><path class="cls-3" d="M17.2,2.92a4.15,4.15,0,0,1,7.9.23A4.14,4.14,0,0,1,31,8.77c-1.73,3.18-6.74,5.42-9.78,5.45C18.84,12.3,16.35,7.41,17,3.84a4.24,4.24,0,0,1,.21-0.93"/></svg>