<svg id="Capa_1" data-name="Capa 1" xmlns="http://www.w3.org/2000/svg" viewBox="0 0 32 32"><defs><style>.cls-1{fill:#ffcc4d;}.cls-2{fill:#664500;}.cls-3{fill:#fff;}</style></defs><title>emoji2</title><path class="cls-1" d="M32,16A16,16,0,1,1,16,0,16,16,0,0,1,32,16"/><path class="cls-2" d="M14.81,9.37a0.45,0.45,0,0,0-.53.13,5.93,5.93,0,0,1-3,1.64,7.59,7.59,0,0,1-2,.28,4.31,4.31,0,0,1-1.39-.19,0.44,0.44,0,0,0-.51.69,5.33,5.33,0,0,0,3.67,1.91A3.56,3.56,0,0,0,12,13.72c2.54-.69,3-3.74,3.05-3.87a0.45,0.45,0,0,0-.26-0.47"/><path class="cls-2" d="M24.57,11.29A0.45,0.45,0,0,0,24,11.15a4.44,4.44,0,0,1-1.54.23,7.74,7.74,0,0,1-1.84-.24,5.92,5.92,0,0,1-3-1.56,0.44,0.44,0,0,0-.78.36c0,0.13.59,3.16,3.15,3.79a3.54,3.54,0,0,0,.84.1,5.28,5.28,0,0,0,3.71-2,0.44,0.44,0,0,0,0-.54"/><path class="cls-2" d="M8.89,8.89a0.89,0.89,0,0,1-.22-1.75,8.12,8.12,0,0,0,4.76-4A0.89,0.89,0,1,1,15,4,9.78,9.78,0,0,1,9.1,8.86l-0.22,0"/><path class="cls-2" d="M23.11,8.89l-0.22,0A9.78,9.78,0,0,1,17,4a0.89,0.89,0,1,1,1.59-.79,8.11,8.11,0,0,0,4.76,4,0.89,0.89,0,0,1-.22,1.75"/><path class="cls-2" d="M16,25.74a37.61,37.61,0,0,0-8,.89c-0.6.12-1.78,0-1.78-1.78,0-3.56,4.08-8,9.78-8s9.78,4.44,9.78,8c0,1.78-1.17,1.9-1.78,1.78a37.62,37.62,0,0,0-8-.89"/><path class="cls-3" d="M8.89,22.22A24.6,24.6,0,0,1,16,21.33a24.6,24.6,0,0,1,7.11.89S21.33,18.67,16,18.67s-7.11,3.56-7.11,3.56"/></svg>